<?xml version="1.0" standalone="no"?>
<!DOCTYPE svg PUBLIC "-//W3C//DTD SVG 20010904//EN"
 "http://www.w3.org/TR/2001/REC-SVG-20010904/DTD/svg10.dtd">
<svg version="1.0" xmlns="http://www.w3.org/2000/svg"
 width="825.000000pt" height="525.000000pt" viewBox="0 0 825.000000 525.000000"
 preserveAspectRatio="xMidYMid meet">

<g transform="translate(0.000000,525.000000) scale(0.100000,-0.100000)"
fill="#000000" stroke="none">
<path d="M2034 5240 c-1307 -4 -1815 -8 -1825 -16 -8 -6 -25 -14 -39 -17 -37
-10 -109 -75 -131 -121 -20 -41 -21 -60 -25 -2451 -5 -2240 -4 -2412 12 -2455
22 -58 82 -121 149 -154 l54 -26 3911 0 3911 0 53 28 c53 27 98 77 124 135 9
23 12 536 12 2451 0 2287 -1 2424 -17 2458 -22 43 -68 98 -82 98 -6 0 -11 3
-11 8 0 13 -64 42 -125 57 -64 15 -1856 17 -5971 5z m3383 -495 c9 -3 8 -12
-4 -35 -10 -21 -14 -47 -11 -75 12 -101 97 -141 180 -84 14 11 30 19 34 19 4
0 16 7 26 17 24 21 56 7 92 -40 24 -31 27 -42 24 -104 l-3 -68 -21 45 c-33 70
-71 110 -104 110 -80 0 -79 -148 1 -164 17 -3 46 -6 64 -6 65 0 65 0 65 -133
0 -70 -5 -135 -12 -154 -10 -27 -10 -38 0 -53 7 -11 12 -39 12 -62 0 -39 -5
-47 -52 -91 -36 -32 -49 -50 -41 -55 7 -4 14 -23 15 -42 3 -35 3 -35 -37 -35
-40 0 -40 0 -37 35 l3 35 -46 0 c-25 0 -45 3 -45 7 0 5 -4 8 -10 8 -5 0 -10
-9 -10 -19 0 -14 -8 -21 -27 -24 -23 -3 -22 -4 8 -6 25 0 39 4 43 14 3 8 13
15 23 15 14 -1 11 -6 -11 -22 -66 -49 -135 -120 -157 -163 -13 -25 -27 -45
-31 -45 -5 0 -8 35 -8 79 0 66 4 84 24 114 13 19 26 43 28 54 3 15 17 19 103
25 55 4 101 12 103 18 2 5 8 10 14 10 28 0 68 80 68 136 0 11 -12 31 -26 45
-21 20 -36 24 -88 24 -71 0 -103 -13 -160 -67 -37 -34 -40 -41 -44 -102 -2
-36 -8 -63 -13 -60 -16 10 -31 -7 -19 -21 7 -9 8 -25 2 -47 l-8 -33 -7 43 c-4
23 -13 42 -20 42 -27 0 -37 37 -26 94 8 43 18 63 49 94 22 22 40 48 40 59 0
33 -29 63 -61 63 -42 0 -64 -14 -79 -49 -10 -26 -9 -36 9 -74 21 -43 26 -82
15 -111 -4 -11 -23 5 -69 59 -62 73 -62 74 -52 112 5 22 7 56 3 76 -7 35 -9
37 -48 37 -34 0 -47 -6 -79 -39 -35 -34 -39 -44 -39 -87 0 -45 3 -51 35 -71
29 -19 38 -21 60 -11 26 12 31 8 88 -61 24 -29 22 -31 -22 -31 -31 0 -44 6
-64 30 -19 22 -34 30 -59 30 -51 0 -78 -24 -78 -70 0 -56 8 -69 46 -76 36 -7
77 12 102 48 14 19 46 23 100 12 37 -8 53 -41 28 -59 -17 -13 -22 -55 -7 -55
5 0 11 14 14 30 4 17 10 30 15 30 5 0 21 -26 36 -59 19 -44 28 -82 32 -152 l7
-94 -26 30 c-15 16 -36 53 -48 82 -12 29 -25 53 -29 53 -4 0 -17 16 -29 36
-12 19 -25 33 -30 30 -5 -3 -29 3 -54 14 -68 30 -114 18 -144 -40 -22 -41 -23
-49 -12 -94 6 -26 20 -56 31 -65 11 -9 24 -27 29 -40 7 -18 14 -22 34 -17 17
4 25 2 25 -7 0 -20 115 -11 162 13 l38 19 26 -26 c26 -26 26 -29 22 -115 -5
-71 -9 -92 -24 -103 -16 -12 -17 -16 -5 -24 7 -5 11 -13 7 -19 -3 -6 -7 -58
-7 -116 0 -59 -4 -106 -10 -106 -8 0 -12 59 -14 197 0 17 -3 29 -7 26 -5 -2
-8 -9 -8 -14 0 -16 -42 -47 -71 -54 -25 -6 -27 -9 -22 -45 l6 -39 -34 9 c-47
14 -59 12 -59 -5 0 -8 -6 -15 -13 -15 -18 0 -67 -23 -67 -32 0 -7 51 5 70 17
6 4 10 -4 10 -19 0 -23 -3 -25 -37 -23 -38 2 -38 2 -41 -40 -4 -54 -22 -56
-22 -3 0 22 5 40 11 40 5 0 7 5 4 10 -4 6 -15 8 -24 5 -10 -3 -23 0 -28 7 -23
29 -21 73 8 152 44 120 39 164 -26 232 -19 19 -99 32 -170 27 l-70 -5 -44 41
c-24 22 -46 41 -50 41 -3 0 -19 12 -34 26 -25 23 -34 25 -95 21 -44 -2 -89
-13 -132 -32 -95 -41 -167 -40 -246 5 -55 32 -65 35 -147 35 -74 0 -90 -3 -98
-17 -6 -10 -15 -18 -21 -18 -6 0 -21 -11 -34 -25 -13 -14 -28 -25 -34 -25 -5
0 -10 -4 -10 -9 0 -5 -21 -16 -47 -25 -41 -14 -49 -14 -76 -1 -17 8 -36 15
-44 15 -7 0 -13 5 -13 10 0 6 -6 10 -13 10 -8 0 -27 7 -43 14 -16 8 -61 20
-100 27 -68 11 -72 10 -122 -15 -63 -32 -86 -53 -114 -107 -17 -34 -20 -51
-14 -108 3 -37 11 -82 17 -99 13 -38 0 -84 -42 -150 -47 -75 -54 -106 -34
-167 25 -80 39 -89 127 -80 143 13 165 11 193 -21 14 -16 31 -44 37 -61 7 -18
16 -33 20 -33 4 0 8 -7 8 -15 0 -11 -11 -15 -40 -15 -30 0 -40 -4 -40 -16 0
-14 9 -16 50 -12 32 3 53 1 58 -6 14 -23 65 -36 136 -36 67 0 74 -2 79 -21 4
-15 11 -20 22 -15 10 3 14 2 10 -5 -4 -6 -13 -8 -21 -5 -8 3 -14 1 -14 -5 0
-6 -33 -9 -85 -7 -50 2 -84 7 -83 13 2 6 5 9 8 8 24 -8 92 -9 125 -3 33 6 26
8 -42 9 -47 1 -83 5 -85 12 -5 14 -38 0 -38 -17 0 -8 -9 -14 -21 -14 -13 0
-18 4 -13 12 4 7 8 22 9 35 1 22 -2 23 -87 23 l-88 0 0 39 0 40 -97 4 c-140 7
-201 24 -226 64 -4 7 -21 13 -37 13 -16 0 -52 9 -80 20 -59 23 -71 25 -68 8 2
-8 -9 -14 -24 -16 -23 -3 -28 1 -28 17 0 13 6 21 16 21 14 0 14 3 4 15 -7 9
-29 15 -53 15 -22 0 -38 3 -34 6 12 12 -18 31 -58 37 -22 4 -33 4 -25 0 8 -3
19 -12 23 -19 4 -8 18 -15 30 -15 17 -1 18 -2 4 -6 -30 -8 -87 17 -87 38 0 10
5 19 10 19 6 0 10 5 10 11 0 11 -46 7 -88 -8 -13 -4 -12 -2 3 11 19 16 19 16
-8 6 -41 -14 -49 -13 -42 10 4 14 2 20 -9 20 -8 0 -16 -11 -18 -27 -4 -32 -28
-44 -28 -14 0 19 -6 21 -62 21 -34 0 -58 -3 -55 -7 8 -7 -11 -33 -24 -33 -5 0
-9 14 -9 30 0 19 -5 30 -14 30 -8 0 -16 7 -20 15 -8 21 -28 19 -25 -2 3 -35
-1 -40 -33 -39 -30 1 -54 25 -26 27 7 0 23 13 36 30 21 26 22 29 5 29 -44 0
-61 -12 -72 -51 -13 -44 -25 -50 -36 -16 l-7 22 -8 -25 -9 -25 1 25 c1 14 -2
42 -7 62 -6 33 -4 41 16 58 l24 19 -32 1 c-26 0 -36 -6 -48 -30 -9 -16 -22
-30 -31 -30 -9 0 -12 -5 -8 -12 5 -9 4 -10 -4 -3 -7 7 -8 23 -3 48 10 42 12
42 -98 31 -56 -6 -61 -9 -61 -30 0 -20 -7 -25 -40 -30 -22 -4 -40 -10 -40 -15
0 -5 -18 -9 -40 -9 -36 0 -40 -2 -40 -26 0 -15 -4 -23 -10 -19 -21 13 -70 -6
-70 -26 0 -15 -7 -19 -32 -19 -31 -1 -32 -1 -14 -15 19 -14 19 -15 -7 -15 -15
0 -27 5 -27 10 0 6 -18 10 -40 10 -22 0 -40 -4 -40 -9 0 -6 -19 -11 -42 -13
-34 -2 -43 -7 -42 -20 2 -24 -18 -23 -34 3 -10 16 -10 24 -1 35 8 10 8 14 0
14 -6 0 -12 -6 -12 -12 -5 -53 -3 -108 13 -288 9 -113 17 -220 18 -239 0 -31
-2 -33 -27 -27 -16 4 -40 10 -55 13 -29 6 -29 7 -49 157 -6 49 -9 115 -7 147
2 33 1 54 -4 47 -5 -8 -8 -2 -9 17 0 17 -2 59 -5 94 -3 51 -1 68 13 84 17 18
17 19 -6 16 -23 -4 -25 -7 -24 -73 0 -59 -2 -67 -13 -51 -7 10 -15 21 -16 26
-5 12 -98 20 -98 8 0 -6 5 -7 12 -3 8 5 9 2 4 -12 -12 -29 -17 -76 -7 -70 4 3
19 -6 31 -19 23 -24 15 -36 -8 -13 -18 18 -23 5 -10 -29 9 -25 9 -40 -2 -72
-7 -23 -10 -44 -7 -48 4 -3 7 1 7 11 0 10 8 25 17 34 16 16 16 16 8 -3 -4 -11
-10 -35 -13 -52 -6 -49 -32 -43 -32 7 l0 40 -40 0 c-29 0 -40 4 -40 15 0 8 -9
15 -20 15 -11 0 -23 -7 -26 -15 -4 -8 -15 -15 -25 -15 -17 0 -19 -8 -19 -81 0
-44 3 -78 8 -75 4 2 6 -13 4 -35 -4 -33 -1 -40 19 -48 l24 -10 -22 0 c-13 -1
-23 -5 -23 -10 0 -5 10 -12 23 -14 l22 -4 -22 -8 c-29 -9 -29 -19 -2 -31 l21
-9 -23 -20 c-21 -18 -22 -19 -16 -2 4 11 1 24 -6 32 -9 9 -14 48 -16 121 -1
61 -7 111 -13 115 -7 4 -7 13 1 27 15 28 14 55 -1 49 -10 -3 -14 216 -17 1069
l-3 1074 638 2 c892 4 4016 -2 4031 -7z m354 -19 c7 -16 9 -48 5 -90 l-7 -65
-44 32 c-29 21 -44 40 -44 55 -1 13 -12 35 -26 50 -14 15 -25 30 -25 34 0 5
29 8 65 8 60 0 66 -2 76 -24z m1749 -206 c0 -147 -4 -230 -10 -230 -5 0 -10 9
-10 20 0 14 -7 20 -24 20 -20 0 -23 -4 -18 -22 5 -21 6 -21 13 -2 7 18 8 18
15 -3 3 -13 13 -23 20 -23 12 0 14 -69 14 -416 l0 -417 -50 6 c-28 3 -64 14
-80 24 -28 16 -30 21 -30 83 0 55 -5 76 -31 123 -17 31 -34 59 -39 62 -5 3 -7
12 -4 19 9 23 -56 44 -154 48 -74 3 -92 1 -88 -9 3 -7 -1 -13 -9 -13 -8 0 -15
7 -15 15 0 9 -9 15 -22 14 -22 0 -22 -1 -3 -9 17 -7 17 -9 3 -9 -10 -1 -18 -8
-18 -17 0 -10 6 -14 15 -10 19 7 20 -17 2 -36 -7 -7 -19 -29 -27 -48 -7 -19
-20 -43 -28 -53 -14 -15 -17 -16 -32 -2 -9 8 -20 12 -23 8 -4 -3 -7 -1 -7 5 0
7 -10 12 -23 12 -13 0 -28 5 -34 11 -7 7 -21 6 -48 -5 -47 -20 -55 -20 -55 0
0 8 4 13 9 10 5 -4 16 -3 25 0 13 5 14 9 5 20 -6 8 -18 14 -25 14 -8 0 -14 5
-14 10 0 6 -16 10 -35 10 -33 0 -35 2 -41 40 -6 36 -9 40 -36 40 -17 0 -27 -4
-23 -10 3 -5 2 -10 -4 -10 -5 0 -8 -9 -6 -20 2 -11 0 -18 -6 -15 -5 4 -9 17
-9 31 0 13 -6 24 -12 25 -32 2 -63 10 -66 18 -1 4 -26 2 -54 -6 -114 -29 -307
-1 -342 49 -9 13 -26 20 -50 21 -20 1 -31 4 -25 8 8 4 -2 23 -27 53 -34 41
-40 45 -50 31 -7 -9 -15 -16 -18 -16 -19 3 -25 -1 -31 -18 -8 -26 -64 -23 -70
4 -8 40 -13 232 -8 273 5 36 9 42 29 42 12 0 26 5 29 10 3 6 19 10 36 10 27 0
29 3 29 36 0 65 -38 97 -70 59 -7 -8 -21 -15 -31 -15 -15 0 -19 7 -19 34 0 18
7 39 15 46 8 7 15 18 15 26 0 23 37 25 73 4 79 -47 104 -46 166 9 13 11 36 26
52 33 22 10 31 23 39 60 23 94 -29 156 -115 138 -91 -18 -140 -57 -170 -138
-16 -40 -46 -82 -60 -82 -8 0 -6 40 7 122 l11 77 29 -6 c35 -7 85 13 93 38 6
18 30 19 781 19 l774 0 0 -230z m-1539 -599 c15 -5 18 -10 11 -15 -30 -18 -74
26 -56 56 5 7 10 4 15 -11 5 -12 18 -25 30 -30z m-36 -25 c16 -16 -2 -41 -19
-27 -6 5 -20 11 -31 14 -18 4 -18 5 3 6 12 0 22 6 22 11 0 14 9 13 25 -4z
m-184 -60 c-9 -5 -17 -9 -18 -10 0 -1 -4 -18 -8 -38 -5 -24 -3 -38 3 -38 6 0
13 12 15 28 3 22 4 21 6 -9 1 -40 -19 -65 -44 -55 -12 4 -14 10 -6 23 7 13 6
22 -4 33 -7 8 -16 25 -19 38 -7 19 -4 22 23 22 26 0 31 4 31 23 0 34 11 40 25
14 9 -18 8 -24 -4 -31z m225 18 c-3 -7 -1 -16 5 -19 13 -9 1 -25 -18 -25 -11
0 -13 5 -8 18 4 9 7 25 7 35 0 9 4 15 9 11 6 -3 8 -12 5 -20z m-66 -3 c0 -11
-88 -20 -110 -12 -8 3 8 9 35 12 28 3 56 7 63 7 6 1 12 -2 12 -7z m180 -21 c0
-5 -4 -10 -10 -10 -5 0 -10 5 -10 10 0 6 5 10 10 10 6 0 10 -4 10 -10z m-295
-10 c4 -6 -6 -10 -22 -10 -22 0 -25 2 -13 10 19 12 27 12 35 0z m93 -7 c-10
-2 -28 -2 -40 0 -13 2 -5 4 17 4 22 1 32 -1 23 -4z m265 0 c-7 -2 -21 -2 -30
0 -10 3 -4 5 12 5 17 0 24 -2 18 -5z m322 -3 c3 -5 2 -10 -4 -10 -5 0 -13 5
-16 10 -3 6 -2 10 4 10 5 0 13 -4 16 -10z m756 -59 c20 -14 49 -45 65 -70 26
-43 28 -53 28 -151 1 -103 0 -107 -38 -177 -26 -50 -50 -80 -75 -95 -36 -23
-41 -25 -72 -27 -10 -1 -17 -11 -18 -28 -1 -16 -2 -47 -4 -70 -1 -24 -5 -43
-8 -43 -15 0 -32 -168 -24 -236 7 -56 10 -64 16 -44 8 22 8 21 3 -5 -15 -80
-15 -97 -5 -126 15 -42 9 -46 -24 -15 -15 14 -30 24 -34 22 -3 -2 -4 17 -1 42
l4 47 7 -45 c6 -36 7 -32 4 20 -3 36 -7 90 -11 121 -4 39 0 86 15 158 25 124
26 132 6 125 -8 -4 -15 -1 -15 5 0 7 7 14 15 17 24 9 17 24 -10 24 -43 0 -31
30 13 31 l37 1 -35 10 c-26 6 -43 20 -60 49 -14 21 -28 39 -32 39 -5 0 -8 8
-8 18 0 10 -4 22 -10 28 -16 16 -24 154 -11 214 14 64 59 142 98 167 26 17
132 34 143 23 3 -3 21 -16 41 -29z m-1651 0 c0 -10 -24 -21 -43 -21 -7 0 -3 7
7 15 22 17 36 19 36 6z m-46 -46 c2 -7 -4 -21 -14 -30 -11 -10 -17 -22 -14
-26 3 -5 -6 -21 -20 -36 -32 -34 -32 -36 -1 -53 14 -7 25 -20 25 -27 0 -10 -5
-11 -19 -3 -39 20 -59 11 -99 -42 -21 -29 -41 -60 -45 -68 -3 -8 -6 10 -6 40
-1 49 4 64 44 129 68 110 132 160 149 116z m1046 10 c0 -9 -6 -12 -15 -9 -8 4
-15 10 -15 15 0 5 7 9 15 9 8 0 15 -7 15 -15z m117 -57 c-3 -8 -6 -5 -6 6 -1
11 2 17 5 13 3 -3 4 -12 1 -19z m-947 2 c0 -5 -5 -10 -11 -10 -5 0 -7 5 -4 10
3 6 8 10 11 10 2 0 4 -4 4 -10z m-190 -23 c0 -12 7 -33 16 -45 14 -21 14 -22
-5 -22 -15 0 -20 6 -19 23 1 12 -2 32 -6 45 -5 13 -3 22 3 22 6 0 11 -10 11
-23z m1334 -23 c18 -7 11 -60 -10 -82 -10 -10 -13 -3 -12 38 0 27 1 50 3 50 2
0 10 -3 19 -6z m-1352 -44 c4 0 8 -7 8 -15 0 -21 -22 -19 -41 3 -12 14 -13 22
-5 35 10 16 12 16 20 -3 5 -11 13 -20 18 -20z m82 -52 c-3 -4 0 -8 5 -8 6 0
11 -4 11 -10 0 -5 -11 -10 -25 -10 -18 0 -25 5 -25 19 0 13 6 19 19 18 11 0
17 -5 15 -9z m-64 -53 c0 -18 4 -23 15 -19 12 5 15 -2 15 -28 0 -45 -21 -88
-43 -88 -14 0 -16 5 -10 28 9 34 9 48 -1 95 -6 30 -4 37 9 37 9 0 15 -9 15
-25z m-2210 -25 c0 -5 5 -10 11 -10 30 0 59 -56 59 -115 0 -42 -4 -51 -36 -80
-35 -32 -83 -48 -129 -42 -18 2 -20 -5 -23 -83 -3 -115 -7 -130 -36 -130 -13
0 -27 8 -30 17 -4 9 -6 97 -5 194 2 233 14 257 137 258 28 1 52 -3 52 -9z
m3560 -16 c0 -8 -4 -14 -10 -14 -5 0 -10 9 -10 21 0 11 5 17 10 14 6 -3 10
-13 10 -21z m508 16 c6 0 12 -7 12 -15 0 -18 -7 -18 -48 -4 -35 12 -33 34 2
25 11 -3 27 -6 34 -6z m-2901 -17 c67 -32 83 -89 47 -168 -16 -35 -79 -65
-136 -65 l-37 0 -3 -102 -3 -103 -30 0 -30 0 -3 180 c-1 99 0 189 2 201 6 24
35 59 56 67 31 11 103 6 137 -10z m2988 -3 c4 -6 -7 -10 -27 -9 -27 0 -30 2
-13 9 27 12 33 12 40 0z m-759 -26 c0 -9 5 -19 13 -22 10 -3 12 1 8 17 -3 13
0 21 7 21 8 0 10 -14 8 -41 -3 -29 -7 -38 -15 -30 -7 7 -14 7 -23 0 -7 -6 -18
-8 -24 -4 -14 8 -13 45 1 45 8 0 8 5 -1 15 -10 12 -9 15 8 15 12 0 19 -6 18
-16z m169 -66 c3 -21 17 -51 31 -67 15 -18 20 -32 14 -36 -5 -3 -10 -13 -10
-22 0 -9 3 -13 8 -9 4 4 7 13 7 19 0 7 13 13 28 15 25 3 28 0 25 -20 -2 -17
-9 -22 -26 -21 -17 2 -22 -2 -22 -22 0 -28 35 -69 50 -60 6 4 10 1 10 -4 0 -6
-7 -11 -15 -11 -8 0 -17 -11 -21 -25 -3 -14 -11 -25 -18 -25 -17 0 -40 42 -37
68 1 12 -2 22 -8 22 -16 0 -13 21 5 35 14 10 15 13 1 26 -8 9 -24 34 -36 57
-18 34 -20 51 -14 99 7 61 16 55 28 -19z m-828 -2 c12 -1 25 -4 29 -8 4 -4 13
-3 21 3 10 9 13 4 13 -25 0 -22 -4 -35 -10 -31 -5 3 -10 12 -10 19 0 14 -79
29 -104 20 -20 -8 -24 -44 -11 -90 10 -36 12 -37 19 -16 4 13 5 34 2 47 -7 29
11 45 47 38 53 -10 56 -43 20 -235 -15 -81 -15 -91 0 -139 22 -67 21 -117 -2
-172 -11 -25 -17 -48 -14 -50 10 -11 33 6 33 23 0 25 20 37 21 13 0 -10 5 -3
10 15 5 17 14 32 19 32 12 0 12 0 -1 -38 -6 -19 -23 -36 -45 -47 -19 -9 -34
-20 -34 -25 0 -13 4 -13 45 7 31 15 38 25 56 85 22 75 39 88 39 31 0 -28 -3
-34 -10 -23 -7 11 -10 6 -10 -20 0 -26 3 -31 10 -20 7 11 10 2 10 -32 0 -40
-2 -45 -18 -41 -10 2 -37 -3 -59 -13 l-41 -18 22 -33 c21 -32 58 -44 71 -23 3
6 10 10 16 10 5 0 9 -4 9 -10 0 -5 -7 -10 -15 -10 -19 0 -19 -14 -2 -29 29
-24 -2 -91 -43 -91 -11 0 -20 -5 -20 -11 0 -7 14 -8 40 -4 24 4 40 3 40 -3 0
-5 -20 -13 -45 -16 -42 -7 -45 -9 -39 -32 5 -21 3 -24 -19 -24 -30 0 -44 15
-21 24 18 7 10 26 -11 26 -8 0 -17 -12 -21 -27 -11 -54 -13 -56 -29 -43 -8 7
-15 23 -15 36 0 21 -4 24 -37 23 -21 -1 -30 -3 -20 -6 9 -2 17 -10 17 -16 0
-7 4 -6 10 3 5 8 12 11 16 7 16 -16 -14 -24 -63 -18 -47 7 -53 5 -53 -11 0
-25 -27 -23 -36 4 -6 19 -7 19 -16 4 -11 -20 -28 -12 -28 15 0 12 -7 19 -20
19 -17 0 -19 -5 -14 -25 5 -19 2 -25 -10 -25 -12 0 -15 7 -12 25 3 14 0 25 -5
25 -18 0 -7 163 16 220 6 17 -50 44 -69 33 -6 -4 0 -10 14 -14 17 -4 10 -6
-23 -6 -35 0 -47 4 -43 13 5 14 -17 37 -27 27 -4 -3 -4 -16 -1 -28 7 -30 -13
-42 -34 -21 -15 15 -15 18 -2 26 8 5 15 17 15 27 0 10 7 18 15 18 8 0 21 4 28
8 6 5 17 5 22 2 6 -3 10 3 10 15 0 19 -1 20 -16 6 -23 -23 -37 -20 -28 7 5 12
8 36 7 52 -1 17 1 23 4 15 4 -8 20 -28 38 -45 17 -16 34 -38 38 -47 7 -21 23
-23 33 -6 4 7 3 8 -4 4 -7 -4 -12 -2 -12 4 0 6 -15 29 -32 52 -30 37 -33 46
-34 115 -1 42 2 69 7 61 7 -10 11 -10 21 0 6 6 20 12 30 12 10 0 18 5 18 10 0
11 90 55 133 64 l27 6 0 134 c0 119 2 135 20 151 10 9 26 15 35 12 21 -9 45 2
45 20 0 12 6 13 28 8 15 -5 37 -8 49 -9z m1269 -29 c-3 -12 -5 -28 -5 -34 -1
-7 -7 -13 -15 -13 -25 0 -28 -19 -6 -37 22 -20 27 -43 7 -43 -7 0 -20 9 -30
20 -18 22 -37 19 -37 -6 0 -8 -6 -14 -12 -15 -7 0 -23 -2 -36 -5 -21 -4 -52
15 -52 30 0 3 17 6 38 6 20 0 42 4 48 8 25 17 76 102 71 117 -5 13 -3 14 13 5
13 -7 18 -18 16 -33z m-1129 -17 c0 -22 -4 -43 -8 -46 -5 -3 -10 -17 -10 -32
-2 -23 -2 -24 -6 -5 -2 12 1 31 7 42 8 15 7 26 -1 39 -7 11 -9 27 -6 36 11 28
24 9 24 -34z m-800 -67 c-2 -21 -4 -4 -4 37 0 41 2 58 4 38 2 -21 2 -55 0 -75z
m-86 4 c-8 -8 -11 0 -10 29 1 39 1 39 11 11 7 -21 7 -32 -1 -40z m1644 43 c3
-5 -1 -10 -9 -10 -9 0 -16 5 -16 10 0 6 4 10 9 10 6 0 13 -4 16 -10z m-838
-62 c-3 -7 -5 -2 -5 12 0 14 2 19 5 13 2 -7 2 -19 0 -25z m-1406 1 c62 -33 89
-78 89 -148 0 -60 -19 -154 -33 -162 -17 -11 3 -29 32 -29 36 0 81 -45 62 -63
-10 -9 -14 -8 -22 6 -11 20 -31 23 -28 5 4 -30 -3 -38 -30 -38 -33 0 -46 22
-30 52 14 26 5 34 -24 20 -44 -22 -77 -19 -111 13 -33 31 -36 75 -4 75 12 0
31 -9 43 -20 l21 -20 22 23 c12 13 25 38 28 56 l7 33 -29 -15 c-34 -18 -106
-9 -131 15 -17 18 -28 86 -19 122 15 59 106 103 157 75z m2426 -27 c8 -5 8
-15 -1 -37 l-13 -30 -4 38 c-5 38 -3 42 18 29z m-3707 -25 c22 -19 35 -60 26
-82 -8 -22 -54 -37 -106 -33 -31 1 -45 -2 -44 -10 1 -7 2 -18 3 -26 2 -20 51
-26 87 -11 38 15 59 6 50 -23 -12 -37 -104 -69 -121 -42 -3 6 -14 10 -24 10
-10 0 -27 17 -40 41 -26 45 -24 103 5 147 32 48 123 64 164 29z m477 -20 c26
-29 33 -45 33 -77 0 -22 -4 -40 -10 -40 -5 0 -10 -7 -10 -15 0 -24 -60 -56
-100 -53 l-35 3 -5 -69 c-5 -73 -16 -88 -45 -60 -15 16 -17 33 -10 163 8 184
14 195 93 189 48 -4 60 -10 89 -41z m599 26 c29 -39 5 -80 -41 -69 -33 8 -46
54 -20 73 25 18 45 16 61 -4z m812 -68 c-3 -80 -8 -99 -23 -75 -9 15 6 160 16
160 5 0 8 -38 7 -85z m-134 -1 c-6 -49 -4 -58 20 -89 17 -21 32 -32 41 -28 11
4 13 1 9 -11 -4 -11 -1 -16 10 -16 9 0 16 7 16 15 0 8 7 15 15 15 8 0 15 -9
15 -20 0 -16 -7 -20 -35 -20 -19 0 -35 5 -35 11 0 8 -4 8 -14 0 -11 -9 -17 -6
-27 19 -8 17 -19 28 -26 25 -10 -3 -13 12 -13 58 0 72 8 109 22 101 5 -3 6
-29 2 -60z m933 14 c-3 -7 -5 -2 -5 12 0 14 2 19 5 13 2 -7 2 -19 0 -25z
m1040 0 c-3 -8 -6 -5 -6 6 -1 11 2 17 5 13 3 -3 4 -12 1 -19z m-134 -20 c-8
-46 -13 -48 -13 -5 0 21 4 37 10 37 5 0 7 -14 3 -32z m-3393 2 c49 -25 71 -65
63 -114 -3 -20 -10 -36 -14 -36 -5 0 -9 -6 -9 -13 0 -18 -31 -34 -84 -42 l-46
-7 0 -64 c0 -69 -15 -89 -46 -63 -13 11 -15 36 -12 167 4 147 5 155 27 173 30
25 72 24 121 -1z m501 -19 c20 -21 29 -39 29 -63 0 -21 9 -44 25 -62 44 -51
28 -88 -27 -65 -24 10 -31 10 -38 -1 -14 -23 -97 -7 -131 26 -25 24 -29 35
-29 85 0 48 4 60 26 83 39 38 105 37 145 -3z m2002 -59 c12 -6 16 -11 9 -11
-8 -1 -11 -11 -7 -28 l5 -28 -12 28 c-14 32 -28 36 -28 7 0 -11 -4 -20 -10
-20 -13 0 -13 37 0 45 5 3 7 12 3 20 -3 8 -2 23 3 33 7 14 8 13 11 -9 2 -15
14 -31 26 -37z m-1635 -43 c4 -108 -1 -129 -33 -129 -25 0 -34 16 -37 70 -4
69 3 111 23 131 34 34 44 19 47 -72z m2622 76 c-5 -7 -6 -16 -2 -20 4 -5 1 -5
-5 -1 -18 10 -16 33 2 33 10 0 12 -4 5 -12z m-1723 -31 c-3 -3 -12 -4 -19 -1
-8 3 -5 6 6 6 11 1 17 -2 13 -5z m243 -15 c0 -6 -4 -7 -10 -4 -5 3 -10 11 -10
16 0 6 5 7 10 4 6 -3 10 -11 10 -16z m153 14 c-7 -2 -19 -2 -25 0 -7 3 -2 5
12 5 14 0 19 -2 13 -5z m1214 -25 c-3 -7 -5 -2 -5 12 0 14 2 19 5 13 2 -7 2
-19 0 -25z m-1267 12 c0 -5 -4 -10 -10 -10 -5 0 -10 5 -10 10 0 6 5 10 10 10
6 0 10 -4 10 -10z m458 -63 c0 -56 -4 -74 -14 -74 -8 0 -14 7 -14 16 0 9 -3
27 -7 40 -4 16 -2 22 4 18 13 -8 23 14 23 49 0 13 2 24 4 24 2 0 4 -33 4 -73z
m-800 11 l-3 -43 -52 0 c-29 0 -53 2 -53 6 0 12 25 29 44 29 19 0 20 0 1 14
-19 13 -18 15 15 24 19 6 39 11 43 11 5 1 7 -18 5 -41z m242 18 c0 -7 -7 -19
-15 -26 -12 -10 -15 -9 -15 7 0 11 3 23 7 26 11 12 23 8 23 -7z m-3723 -12 c8
-21 -13 -42 -28 -27 -13 13 -5 43 11 43 6 0 13 -7 17 -16z m237 -18 c-3 -9
-10 -13 -15 -10 -5 3 -3 11 4 19 15 16 19 13 11 -9z m3957 -7 c-9 -22 -10 -22
-10 -3 -1 11 2 24 6 27 12 12 14 0 4 -24z m959 -24 c-7 -45 -7 -46 -9 -13 -1
32 8 74 14 66 1 -2 -1 -25 -5 -53z m-5510 11 c0 -22 -13 -26 -33 -11 -18 13
-18 13 0 18 31 8 33 7 33 -7z m4045 -56 c-8 -35 -24 -48 -35 -30 -9 15 -2 42
10 35 9 -6 23 25 15 33 -3 3 -5 0 -5 -6 0 -7 -5 -12 -10 -12 -6 0 -5 8 2 20
11 17 14 17 21 4 5 -8 6 -28 2 -44z m-4130 40 c3 -5 1 -10 -4 -10 -6 0 -11 5
-11 10 0 6 2 10 4 10 3 0 8 -4 11 -10z m605 -35 c0 -3 -9 -5 -20 -5 -15 0 -20
7 -20 27 l0 27 20 -22 c11 -12 20 -24 20 -27z m-639 -1 c30 -9 66 -27 81 -41
62 -59 78 -233 27 -304 -52 -76 -124 -130 -183 -141 -16 -2 -21 5 -28 34 -10
48 -28 436 -21 454 7 19 56 18 124 -2z m724 6 c8 -13 -15 -13 -35 0 -12 8 -11
10 7 10 12 0 25 -4 28 -10z m314 -6 c10 -9 -35 -3 -49 6 -11 8 -7 9 15 4 17
-4 32 -8 34 -10z m2469 -21 c5 23 39 22 47 -3 9 -27 -3 -60 -21 -60 -8 0 -14
5 -14 10 0 6 7 10 15 10 8 0 15 5 15 10 0 16 -32 12 -52 -7 -16 -14 -18 -14
-18 -1 0 9 -2 31 -6 49 l-5 34 17 -30 c14 -24 19 -26 22 -12z m1169 -40 c-2
-16 -4 -3 -4 27 0 30 2 43 4 28 2 -16 2 -40 0 -55z m-3710 61 c-3 -3 -12 -4
-19 -1 -8 3 -5 6 6 6 11 1 17 -2 13 -5z m-857 -20 c0 -8 -4 -12 -10 -9 -5 3
-10 10 -10 16 0 5 5 9 10 9 6 0 10 -7 10 -16z m86 -14 c3 -39 -5 -42 -31 -12
-26 30 -23 45 8 40 15 -2 22 -11 23 -28z m130 11 c-11 -12 -13 -21 -7 -25 14
-9 2 -36 -16 -36 -11 0 -13 7 -9 24 3 14 2 28 -4 31 -20 12 -9 25 22 25 30 0
30 -1 14 -19z m3550 8 c3 -6 2 -15 -4 -21 -6 -6 -8 -17 -5 -24 3 -8 1 -14 -5
-14 -5 0 -12 9 -15 20 -3 12 -14 20 -26 20 -25 0 -28 17 -3 23 31 8 51 7 58
-4z m1691 -41 c-3 -7 -5 -2 -5 12 0 14 2 19 5 13 2 -7 2 -19 0 -25z m-5733 13
c3 -5 -3 -11 -14 -14 -11 -3 -20 -10 -20 -16 0 -15 37 -14 43 2 4 7 6 8 6 1 1
-17 -46 -45 -63 -38 -19 7 -21 60 -3 67 20 9 45 8 51 -2z m526 -13 c0 -16 -3
-19 -11 -11 -6 6 -8 16 -5 22 11 17 16 13 16 -11z m3470 -13 c0 -8 -7 -15 -15
-15 -8 0 -15 7 -15 15 0 8 7 15 15 15 8 0 15 -7 15 -15z m-2483 -11 c-3 -3
-12 -4 -19 -1 -8 3 -5 6 6 6 11 1 17 -2 13 -5z m-1161 -24 c-3 -11 -9 -29 -12
-40 -4 -12 -2 -20 5 -20 6 0 11 10 12 23 3 58 17 -33 16 -103 0 -51 -2 -62 -6
-35 l-5 40 -6 -45 -7 -45 -1 43 c-1 23 -6 42 -12 42 -5 0 -9 12 -9 28 2 23 2
24 6 5 5 -25 19 -30 26 -10 2 6 -5 24 -16 39 -15 20 -18 35 -13 62 4 20 12 36
18 36 6 0 8 -9 4 -20z m3030 1 c5 1 12 0 17 -1 4 -1 13 -3 19 -4 7 0 14 -9 16
-19 4 -21 -37 -20 -55 3 -11 13 -12 13 -13 0 0 -12 -3 -11 -11 3 -12 20 -1 47
11 28 4 -7 11 -11 16 -10z m469 7 c29 -13 17 -28 -22 -28 -16 0 -23 6 -23 20
0 23 9 25 45 8z m-222 -30 c-6 -40 -6 -40 -34 -36 l-22 3 27 33 c15 17 29 32
31 32 2 0 1 -15 -2 -32z m-543 -18 c0 -15 -7 -20 -25 -20 -29 0 -30 3 -9 24
21 22 34 20 34 -4z m800 -26 c0 -35 -1 -35 -32 -29 -44 10 -48 13 -48 35 0 17
10 22 68 29 7 0 12 -12 12 -35z m-2192 17 c8 -4 16 -27 19 -50 5 -39 4 -41
-21 -41 -30 0 -31 3 -10 34 11 18 12 26 4 31 -14 9 -26 -3 -33 -30 -3 -11 -5
-1 -6 23 -1 34 2 42 17 42 9 0 23 -4 30 -9z m1517 -1 c18 -8 18 -9 -5 -10 -14
-1 -20 -4 -13 -6 15 -7 5 -34 -12 -34 -9 0 -13 11 -13 30 1 31 9 35 43 20z
m-2007 -22 c7 -7 8 -17 1 -30 -13 -24 -26 -23 -34 2 -11 34 10 51 33 28z
m1800 -25 c-2 -31 -7 -39 -28 -43 -24 -5 -41 -30 -19 -30 5 0 7 -5 3 -11 -5
-8 1 -10 20 -7 21 4 26 1 26 -14 0 -16 -6 -19 -32 -16 -18 2 -32 7 -30 12 2 5
-7 14 -19 20 -47 23 -24 76 34 76 20 0 23 4 19 25 -3 19 0 25 12 25 14 0 17
-8 14 -37z m308 -3 c8 0 14 -4 14 -10 0 -14 146 -13 173 1 12 6 32 21 45 32
18 17 22 18 22 4 0 -8 9 -19 20 -22 11 -3 20 -10 20 -14 0 -21 -34 -27 -150
-30 -108 -3 -126 -5 -137 -22 -8 -10 -19 -17 -26 -15 -54 16 -54 16 -33 32 17
12 18 14 3 14 -13 0 -17 9 -17 36 l0 35 26 -20 c15 -12 33 -21 40 -21z m726
27 c-7 -8 -7 -18 -2 -27 15 -23 13 -47 -2 -32 -8 8 -15 9 -25 0 -23 -19 -26 0
-4 28 12 15 19 30 15 33 -3 3 -10 -2 -15 -12 -13 -23 -29 -22 -29 3 0 16 7 20
36 20 29 0 34 -3 26 -13z m208 -22 c16 0 27 7 32 20 6 19 6 19 7 -1 1 -12 -7
-32 -18 -45 -15 -19 -21 -21 -34 -11 -11 9 -16 10 -19 1 -2 -6 -4 9 -5 32 0
26 2 36 6 24 4 -13 15 -20 31 -20z m12 23 c-9 -9 -15 -9 -24 0 -9 9 -7 12 12
12 19 0 21 -3 12 -12z m1362 -27 c3 -22 12 -41 18 -44 10 -4 11 -7 1 -18 -11
-11 -13 -10 -13 4 0 9 -7 17 -15 17 -12 0 -14 -13 -12 -70 2 -59 5 -71 21 -76
15 -5 16 -8 5 -15 -8 -5 -9 -9 -4 -9 6 0 18 9 28 20 9 11 30 23 47 26 16 4 31
12 34 20 7 18 30 18 46 -1 9 -11 7 -26 -10 -72 -17 -46 -22 -82 -23 -174 l-2
-117 -40 -47 c-22 -26 -63 -59 -90 -74 -42 -22 -62 -26 -130 -25 -67 0 -90 5
-138 28 -53 27 -97 69 -97 95 0 6 -4 11 -8 11 -5 0 -17 18 -28 40 -10 22 -22
40 -26 40 -23 0 28 229 52 238 4 2 6 11 3 20 -3 14 4 18 39 20 24 1 67 9 96
18 29 8 61 12 71 9 13 -4 29 9 57 44 27 35 47 51 64 51 14 1 19 4 13 7 -7 2
-13 15 -13 28 0 15 -6 22 -16 21 -9 0 -19 5 -21 12 -3 8 9 12 40 12 44 0 45 0
51 -39z m71 29 c-6 -10 13 -78 27 -94 23 -28 -5 -70 -54 -78 -19 -4 -28 -1
-28 8 0 9 11 14 30 14 27 0 30 3 30 30 0 17 -4 30 -9 30 -12 0 -19 54 -9 79 4
12 10 21 13 21 4 0 3 -5 0 -10z m-4449 -45 c-4 -14 -13 -25 -21 -25 -11 0 -13
4 -6 18 5 9 13 26 16 37 10 28 19 1 11 -30z m4194 31 c0 -9 12 -16 28 -18 20
-2 28 -9 30 -28 2 -20 -4 -28 -28 -38 -16 -8 -30 -20 -30 -28 0 -8 -7 -14 -15
-14 -20 0 -19 26 1 34 11 4 14 13 10 31 -4 17 -2 25 6 26 10 0 10 2 1 6 -7 2
-13 11 -13 18 0 7 -6 16 -12 18 -8 3 -6 6 5 6 9 1 17 -5 17 -13z m325 -17 c12
-19 -5 -23 -22 -6 -16 16 -16 17 -1 17 9 0 20 -5 23 -11z m-3140 -24 c19 -14
14 -15 -56 -13 -88 3 -103 22 -20 26 39 2 62 -2 76 -13z m1225 0 c11 -13 8
-15 -14 -15 -16 0 -26 5 -26 15 0 8 6 15 14 15 7 0 19 -7 26 -15z m-1400 -5
c0 -5 -8 -10 -17 -10 -15 0 -16 2 -3 10 19 12 20 12 20 0z m2470 0 c13 -9 11
-13 -10 -30 -14 -11 -33 -20 -42 -20 -27 0 -22 30 5 31 20 2 20 2 -3 7 -23 4
-24 5 -5 13 27 11 37 10 55 -1z m825 0 c3 -5 1 -10 -4 -10 -6 0 -11 5 -11 10
0 6 2 10 4 10 3 0 8 -4 11 -10z m-6033 -60 c3 -16 1 -30 -4 -30 -4 0 -8 14 -8
30 0 17 2 30 4 30 2 0 6 -13 8 -30z m3096 13 c33 -4 42 -9 42 -25 0 -10 -4
-17 -9 -14 -5 4 -21 -9 -37 -26 -15 -18 -30 -33 -33 -34 -19 -3 -40 -17 -35
-25 3 -5 -4 -9 -14 -9 -11 0 -36 -7 -55 -15 -48 -20 -57 -19 -57 5 0 16 5 19
33 15 l32 -5 -33 11 c-28 8 -32 12 -21 25 7 9 23 13 40 10 18 -2 30 1 33 10 6
15 36 8 48 -10 9 -14 26 3 28 29 5 50 1 55 -40 55 -22 0 -40 4 -40 9 0 5 17 7
38 4 20 -3 56 -7 80 -10z m-174 -15 c4 3 4 -1 1 -9 -6 -17 -11 -18 -106 -20
-46 -1 -74 3 -88 13 -21 15 -17 16 53 13 41 -1 80 2 87 6 7 4 20 4 30 -1 9 -5
19 -6 23 -2z m-2294 -13 c0 -8 -4 -15 -10 -15 -5 0 -10 7 -10 15 0 8 5 15 10
15 6 0 10 -7 10 -15z m3310 -3 c0 -4 -9 -8 -20 -9 -11 -1 -18 2 -15 8 7 11 35
12 35 1z m-902 -9 c-10 -2 -28 -2 -40 0 -13 2 -5 4 17 4 22 1 32 -1 23 -4z
m-3203 -13 c-3 -5 -1 -18 4 -29 14 -26 -11 -50 -34 -31 -11 9 -12 17 -4 31 5
11 7 24 4 29 -3 6 3 10 15 10 12 0 18 -4 15 -10z m1515 -21 c0 -12 -7 -19 -20
-19 -19 0 -28 28 -14 43 11 11 34 -5 34 -24z m910 15 c0 -13 -71 -29 -109 -25
-15 1 -22 -2 -19 -11 3 -7 16 -13 31 -13 14 0 29 -3 33 -7 4 -5 -11 -8 -33 -8
-51 0 -61 20 -27 53 20 21 34 25 74 23 29 0 50 -6 50 -12z m1627 10 c-3 -3
-12 -4 -19 -1 -8 3 -5 6 6 6 11 1 17 -2 13 -5z m438 -4 c5 -8 -43 -40 -60 -40
-12 0 -4 24 13 36 20 16 39 18 47 4z m95 0 c0 -5 -6 -10 -12 -10 -9 0 -8 -3 2
-10 22 -14 8 -20 -33 -13 -39 6 -51 23 -16 23 11 0 17 5 14 10 -4 6 5 10 19
10 14 0 26 -4 26 -10z m1047 -12 c-12 -27 -75 -71 -88 -62 -16 10 -9 33 14 45
12 7 26 18 30 25 4 8 19 14 32 14 20 0 22 -3 12 -22z m53 -3 c-21 -22 -50 -34
-50 -20 0 13 37 43 54 44 18 1 18 -1 -4 -24z m-4143 -40 c-4 -8 -16 -15 -28
-15 -21 0 -21 0 2 19 26 21 35 20 26 -4z m1763 5 c0 -13 -7 -20 -20 -20 -19 0
-27 20 -13 33 13 14 33 6 33 -13z m157 5 c7 -21 5 -22 -42 -30 -38 -7 -39 -6
-20 9 16 13 17 15 3 10 -10 -3 -18 -1 -18 4 0 9 20 17 58 21 7 0 15 -6 19 -14z
m-3294 -15 c16 -19 16 -21 -3 -40 -11 -11 -20 -27 -20 -35 0 -26 -16 -16 -28
18 -15 43 -15 47 3 47 8 0 15 7 15 15 0 21 12 19 33 -5z m2257 11 c0 -11 -39
-21 -45 -11 -2 4 -2 10 2 14 10 9 43 7 43 -3z m630 -23 c0 -6 -7 -8 -15 -4
-11 4 -15 -2 -16 -22 -1 -15 -1 -30 0 -34 0 -5 -8 -8 -19 -8 -16 0 -19 6 -17
28 5 37 17 63 28 56 5 -3 9 0 9 7 0 8 4 8 15 -1 8 -7 15 -17 15 -22z m1519 8
c6 -4 11 -36 11 -76 0 -40 4 -70 11 -72 7 -2 7 -11 -1 -30 -9 -19 -17 -24 -32
-20 -15 4 -19 1 -17 -13 2 -10 14 -19 25 -20 16 -1 28 10 45 42 13 24 29 43
35 43 7 0 14 6 17 13 5 15 92 16 107 1 22 -22 24 -94 5 -131 -16 -29 -17 -36
-5 -43 8 -5 11 -13 6 -17 -5 -4 -11 -2 -13 5 -7 19 -23 14 -23 -9 0 -11 -4
-18 -9 -15 -12 8 -34 -21 -26 -34 3 -5 13 -10 22 -10 11 0 13 -4 6 -12 -6 -9
-6 -21 2 -35 13 -25 25 -20 25 9 0 13 8 18 30 18 29 0 30 -2 30 -42 -1 -34 -3
-39 -11 -25 -5 9 -16 17 -23 17 -23 0 -27 -30 -11 -76 8 -25 15 -56 15 -69 0
-31 17 -33 23 -2 3 12 4 -29 4 -90 -1 -62 -5 -113 -10 -113 -5 0 -6 35 -2 80
4 50 3 80 -3 80 -5 0 -13 -33 -16 -72 -9 -87 -23 -148 -36 -148 -5 0 -13 -12
-16 -27 -9 -34 -101 -141 -128 -149 -11 -4 -26 -13 -33 -20 -8 -7 -31 -18 -51
-23 -50 -14 -233 -16 -257 -4 -11 6 -42 21 -70 34 -27 12 -69 42 -94 66 -48
48 -65 54 -57 21 3 -13 3 -17 0 -10 -3 6 -17 12 -31 12 -21 0 -24 -2 -13 -15
7 -8 18 -15 25 -15 15 0 26 -35 18 -56 -3 -8 -15 -14 -27 -14 -32 1 -118 24
-144 38 -35 20 -18 27 20 9 18 -8 47 -19 63 -22 l30 -7 -34 26 c-19 14 -42 28
-52 31 -9 3 -19 12 -22 19 -4 9 -20 13 -54 11 -26 -2 -65 -4 -85 -4 -31 -1
-38 -5 -38 -21 0 -11 5 -20 10 -20 6 0 10 -9 10 -20 0 -31 -17 -23 -24 11 -7
35 10 105 31 130 7 8 13 23 13 32 0 9 5 19 10 22 6 3 10 18 11 33 0 24 1 24 8
7 7 -18 11 -15 30 23 22 44 51 56 51 22 0 -11 -8 -35 -18 -54 -14 -25 -22 -32
-32 -26 -15 9 -40 -5 -40 -21 0 -17 20 -9 21 9 1 14 2 15 6 1 2 -9 15 -21 29
-28 23 -10 25 -9 19 9 -7 21 9 50 26 50 13 0 37 -42 43 -74 7 -39 39 -66 84
-72 20 -2 30 -1 22 2 -26 11 -40 26 -34 35 3 5 14 5 25 -1 28 -15 35 11 15 51
-18 36 -22 174 -6 184 6 3 10 13 10 22 0 19 31 86 44 95 6 4 4 9 -6 13 -19 8
-41 -2 -33 -14 4 -7 -19 -8 -63 -3 -25 3 -1 22 29 22 16 0 29 5 29 10 0 6 -6
10 -14 10 -8 0 -27 18 -43 40 -15 22 -34 40 -41 40 -8 0 -16 9 -19 20 -3 11
-9 20 -14 20 -4 0 -20 17 -34 37 -60 89 -11 231 98 283 43 21 96 26 113 11 5
-5 38 -11 74 -14 65 -5 210 -40 241 -57 23 -12 29 -3 22 31 -3 18 -1 29 6 29
6 0 11 10 11 21 0 12 15 37 34 55 30 29 37 32 69 25 19 -5 40 -11 46 -15z
m-3829 4 c0 -5 -5 -10 -11 -10 -5 0 -7 5 -4 10 3 6 8 10 11 10 2 0 4 -4 4 -10z
m3695 0 c3 -5 1 -10 -4 -10 -6 0 -11 5 -11 10 0 6 2 10 4 10 3 0 8 -4 11 -10z
m-2369 -19 c-26 -5 -27 -8 -13 -19 10 -9 17 -10 22 -2 11 18 25 11 25 -14 0
-13 -7 -27 -16 -30 -22 -9 -24 -8 -18 8 4 10 -2 16 -18 18 -15 2 -24 11 -26
26 -3 20 1 22 35 21 35 -1 36 -2 9 -8z m1455 -4 c9 -7 18 -32 22 -56 5 -41 5
-42 -10 -21 -8 12 -12 24 -9 27 13 14 -19 33 -55 33 -42 0 -62 16 -27 23 42 8
63 6 79 -6z m544 4 c-30 -5 -36 -8 -22 -14 10 -4 27 -7 38 -7 10 0 19 -3 19
-8 0 -4 -36 -7 -80 -7 -44 0 -80 3 -80 7 0 5 9 8 19 8 11 0 28 3 38 7 14 6 8
9 -22 14 -25 3 -9 5 45 5 54 0 70 -2 45 -5z m2206 -5 c16 9 10 -13 -7 -27 -14
-11 -15 -27 -10 -106 6 -77 5 -93 -7 -93 -10 0 -16 19 -21 69 -7 70 -1 121 15
121 5 0 9 12 10 28 0 15 3 21 6 14 2 -6 9 -10 14 -6z m-2864 -21 c20 -8 42
-15 51 -15 13 0 38 -20 106 -85 46 -45 82 -92 106 -140 20 -40 29 -49 47 -47
17 2 21 10 21 31 -1 37 8 51 35 51 20 0 22 4 18 43 -3 33 -5 38 -12 22 -5 -13
-8 -15 -8 -5 0 8 8 26 19 40 11 14 20 33 20 42 0 14 9 17 48 16 l48 -1 -21
-21 c-11 -12 -23 -18 -26 -13 -8 11 -42 -30 -46 -56 -1 -12 -3 -50 -4 -84 -2
-65 -17 -83 -38 -45 -10 16 -10 16 -11 0 0 -10 -4 -18 -8 -18 -4 0 -6 -17 -4
-37 2 -29 1 -34 -7 -23 -6 8 -11 23 -11 33 0 9 -4 17 -9 17 -16 0 -24 -20 -14
-33 9 -12 23 -55 43 -132 14 -56 12 -198 -4 -273 -15 -70 -90 -228 -116 -245
-13 -8 -16 -20 -12 -54 2 -24 0 -43 -5 -43 -18 0 -22 12 -11 36 15 31 5 41
-19 17 -10 -10 -41 -29 -68 -43 -28 -14 -52 -28 -55 -32 -10 -13 -96 -28 -167
-28 -40 0 -73 -4 -73 -9 0 -10 153 -7 192 4 34 9 59 0 53 -18 -7 -17 -298 -18
-315 -1 -8 8 -2 13 22 19 l33 7 -30 10 c-16 6 -32 14 -35 18 -3 4 -21 10 -40
14 -46 9 -116 43 -161 78 -20 15 -41 28 -45 28 -11 0 -88 84 -116 129 -50 77
-71 142 -76 241 -4 94 2 129 40 230 22 57 58 120 68 120 6 0 10 5 10 10 0 17
-38 11 -49 -7 -5 -10 -12 -15 -16 -11 -9 9 25 58 41 58 7 0 16 -5 20 -11 5 -9
84 61 84 76 0 15 -30 2 -44 -20 -9 -14 -21 -25 -27 -25 -7 0 -6 6 2 17 11 13
11 17 2 20 -29 10 -10 20 35 18 28 -1 53 4 62 11 43 39 79 64 92 64 7 0 22 6
33 14 11 7 49 25 85 39 58 23 75 26 149 21 46 -2 99 -11 118 -19z m-2667 1 c0
-7 -7 -20 -16 -27 -15 -12 -14 -14 7 -21 15 -5 10 -6 -16 -3 -37 5 -39 4 -21
-10 11 -8 26 -15 33 -15 7 0 13 -4 13 -8 0 -15 -47 -5 -66 14 -19 18 -19 19
16 51 38 36 50 40 50 19z m5602 -3 c6 -21 0 -43 -12 -43 -9 0 -20 47 -12 55
10 10 20 5 24 -12z m-778 -93 c29 -33 46 -83 35 -96 -16 -19 -36 -17 -48 4 -5
9 -9 53 -8 97 0 44 2 64 4 45 3 -19 10 -42 17 -50z m-4934 50 c-8 -5 -19 -10
-25 -10 -5 0 -3 5 5 10 8 5 20 10 25 10 6 0 3 -5 -5 -10z m4269 -6 c1 -1 -6
-13 -18 -25 -12 -13 -21 -29 -21 -36 0 -7 -9 -13 -19 -13 -15 0 -21 -9 -24
-37 -2 -21 -3 -14 -1 14 1 29 -2 55 -7 59 -5 3 -2 13 7 22 12 12 13 17 4 20
-7 3 -16 -1 -20 -8 -5 -7 -13 -9 -21 -5 -21 14 20 24 71 18 25 -3 47 -7 49 -9z
m469 9 c-10 -2 -26 -2 -35 0 -10 3 -2 5 17 5 19 0 27 -2 18 -5z m-5308 -37 c0
-19 4 -37 9 -40 10 -6 3 -56 -11 -72 -5 -8 -3 -14 7 -18 18 -7 11 -26 -9 -26
-16 0 -28 37 -16 45 5 3 7 33 5 68 -4 74 -5 79 -14 48 l-7 -24 -17 26 -17 27
35 0 c33 0 35 -2 35 -34z m34 19 c-4 -8 -10 -15 -15 -15 -4 0 -6 7 -3 15 4 8
10 15 15 15 4 0 6 -7 3 -15z m756 1 c0 -7 -7 -27 -15 -42 -12 -23 -15 -25 -15
-9 0 31 11 65 21 65 5 0 9 -6 9 -14z m50 -5 c0 -11 -5 -23 -11 -26 -13 -8 -15
-6 -23 23 -6 18 -3 22 13 22 14 0 21 -6 21 -19z m2084 4 c-4 -8 -13 -15 -22
-15 -9 0 -26 -10 -39 -22 -24 -23 -31 -11 -13 23 8 14 17 18 34 13 13 -3 27
-1 30 5 10 16 16 13 10 -4z m624 -2 c-2 -10 3 -17 10 -15 14 2 14 0 6 -23 -6
-14 -8 -14 -25 1 -23 21 -25 54 -4 54 10 0 15 -7 13 -17z m777 -3 c0 -15 -35
-16 -45 0 -3 4 -14 10 -25 13 -11 3 0 5 25 4 33 -2 45 -6 45 -17z m311 13
c-16 -3 -40 -12 -53 -20 -12 -8 -31 -12 -40 -9 -29 11 24 34 77 34 30 -1 35
-2 16 -5z m-4538 -25 c2 -9 -6 -18 -20 -21 -26 -7 -43 5 -35 26 7 18 51 15 55
-5z m446 -13 c-7 -18 -16 -19 -31 -4 -18 18 -5 41 18 29 10 -6 16 -17 13 -25z
m5713 -2 c-3 -10 -5 -4 -5 12 0 17 2 24 5 18 2 -7 2 -21 0 -30z m-5814 20 c-7
-2 -19 -2 -25 0 -7 3 -2 5 12 5 14 0 19 -2 13 -5z m163 -67 c0 -30 5 -61 12
-69 14 -17 7 -87 -9 -87 -5 0 -8 -4 -6 -9 1 -5 -2 -9 -8 -10 -15 -2 -31 52
-16 57 14 5 15 52 0 52 -5 0 -7 5 -4 10 3 6 -1 13 -9 16 -23 9 -20 23 4 17 22
-6 26 7 9 24 -8 8 -8 17 0 32 19 35 28 24 27 -33z m204 24 c0 -5 -5 -10 -11
-10 -5 0 -7 5 -4 10 3 6 8 10 11 10 2 0 4 -4 4 -10z m2800 -30 c20 -15 25 -28
26 -67 1 -42 0 -45 -9 -23 -5 14 -11 31 -13 38 -4 20 -25 42 -40 42 -15 0 -19
12 -7 23 10 10 16 8 43 -13z m1470 -21 c0 -11 77 -12 82 0 2 4 20 11 41 15 32
6 37 4 37 -12 0 -29 -27 -34 -220 -36 -96 -1 -122 -1 -57 1 71 2 117 8 117 14
0 6 -12 9 -27 7 -42 -4 -214 12 -209 20 6 11 236 2 236 -9z m-5040 -9 c0 -5
-4 -10 -10 -10 -5 0 -10 5 -10 10 0 6 5 10 10 10 6 0 10 -4 10 -10z m-114 -26
c-3 -9 -6 -18 -6 -20 0 -3 -4 -3 -10 1 -11 7 -2 35 12 35 6 0 7 -7 4 -16z
m724 6 c0 -5 -4 -10 -10 -10 -5 0 -10 5 -10 10 0 6 5 10 10 10 6 0 10 -4 10
-10z m1194 -20 c23 -11 30 -12 34 -2 5 17 22 15 22 -3 0 -17 -4 -18 -72 -19
-26 -1 -53 -7 -59 -13 -7 -7 -14 -35 -17 -62 -3 -34 -9 -51 -18 -51 -8 0 -14
-4 -14 -10 0 -5 6 -10 13 -10 7 0 18 -13 24 -29 9 -25 7 -35 -18 -75 -16 -25
-29 -55 -29 -65 0 -11 -5 -23 -11 -26 -6 -4 -8 -13 -5 -21 3 -7 2 -16 -3 -18
-4 -3 -7 26 -7 63 1 66 17 108 37 95 5 -3 9 2 9 10 0 8 -4 17 -9 20 -15 10
-19 55 -5 67 17 14 19 63 2 53 -8 -5 -9 0 -5 16 3 13 2 32 -4 42 -9 17 -12 17
-39 3 -30 -15 -30 -15 -30 11 0 24 3 26 30 21 17 -4 30 -2 30 3 0 5 24 11 53
13 62 4 55 5 91 -13z m233 9 l28 -11 -23 -9 c-13 -5 -21 -13 -18 -18 3 -5 -2
-8 -12 -7 -22 1 -43 38 -28 48 15 10 20 10 53 -3z m270 5 c-3 -3 -12 -4 -19
-1 -8 3 -5 6 6 6 11 1 17 -2 13 -5z m353 2 c0 -2 -7 -16 -14 -32 -8 -15 -13
-31 -11 -35 3 -4 -2 -10 -11 -13 -12 -4 -15 -2 -11 9 4 8 2 17 -3 20 -17 11
-11 32 13 43 24 11 37 14 37 8z m3850 -42 c0 -19 -4 -25 -15 -20 -9 3 -15 0
-15 -9 0 -8 -4 -15 -10 -15 -13 0 -13 17 1 26 6 3 9 19 7 35 -4 24 -2 27 14
18 10 -6 18 -21 18 -35z m-5370 -4 c0 -46 -5 -49 -31 -18 -23 26 -24 34 -1 47
28 17 32 13 32 -29z m50 0 c0 -29 -4 -40 -15 -40 -11 0 -15 11 -15 40 0 29 4
40 15 40 11 0 15 -11 15 -40z m1073 30 c31 0 57 -3 57 -7 0 -5 -19 -8 -42 -8
-24 0 -78 -3 -120 -7 -45 -5 -78 -4 -78 1 0 16 53 31 90 26 19 -3 61 -5 93 -5z
m121 4 c9 -3 16 -15 16 -25 0 -18 -2 -19 -30 -4 -41 21 -28 45 14 29z m4031
-36 c57 -66 67 -100 62 -200 -3 -69 -9 -92 -26 -113 -11 -15 -21 -32 -21 -36
0 -5 -6 -9 -14 -9 -9 0 -16 -12 -18 -27 -2 -16 -6 -27 -11 -25 -10 4 -67 -30
-67 -40 0 -4 -36 -8 -80 -8 -47 0 -80 4 -80 10 0 6 -8 10 -17 10 -24 1 -63 34
-63 55 0 21 29 50 49 50 11 0 16 10 17 30 2 42 -6 65 -22 65 -8 0 -14 4 -14
10 0 5 -20 19 -45 31 -25 12 -45 25 -45 29 0 12 94 -1 111 -16 18 -16 83 -19
74 -4 -3 6 -13 10 -21 10 -9 0 -22 7 -30 15 -9 8 -26 16 -40 16 -36 2 -42 3
-50 12 -4 4 -2 7 5 7 7 0 9 5 5 13 -4 6 -3 9 1 4 5 -4 21 4 36 18 l26 26 5
-24 c4 -20 1 -24 -11 -20 -11 4 -13 3 -6 -5 14 -15 95 -3 95 14 0 8 5 14 11
14 6 0 9 -7 5 -15 -3 -8 -1 -15 4 -15 21 0 10 -59 -16 -83 -17 -16 -22 -27
-15 -31 19 -12 12 -27 -19 -37 -19 -7 -30 -18 -30 -30 0 -16 3 -17 25 -7 14 6
25 15 25 20 0 4 6 8 13 8 15 0 51 56 43 68 -2 4 -1 14 5 22 6 10 9 11 9 3 0
-7 4 -13 8 -13 4 0 8 16 8 36 0 19 4 38 10 42 15 11 31 107 22 132 -4 12 -4
19 1 15 5 -3 12 -1 16 5 12 20 34 10 70 -32z m45 32 c0 -5 -4 -10 -9 -10 -6 0
-13 5 -16 10 -3 6 1 10 9 10 9 0 16 -4 16 -10z m-4500 -34 c8 -12 15 -30 15
-40 0 -11 6 -21 13 -24 6 -2 12 1 12 6 0 6 24 13 53 17 28 4 57 11 64 17 6 5
58 12 115 15 l104 6 46 -46 c38 -39 47 -55 53 -97 4 -27 11 -50 16 -50 5 0 9
-11 9 -24 0 -14 5 -28 10 -31 15 -9 12 -25 -4 -25 -8 0 -17 10 -19 23 l-4 22
-8 -22 c-4 -13 -14 -23 -21 -23 -8 0 -14 -5 -14 -11 0 -19 -41 -69 -56 -69 -8
0 -24 -9 -36 -20 -12 -11 -32 -20 -45 -20 -39 0 -27 -27 15 -34 l38 -6 -3 -80
c-1 -50 2 -82 9 -86 6 -4 8 -3 5 3 -4 6 4 8 20 5 l26 -5 -27 -14 c-25 -13 -30
-13 -46 2 -15 14 -17 27 -13 96 5 64 3 79 -8 79 -11 0 -15 -17 -15 -77 0 -51
-4 -78 -12 -81 -6 -2 -12 -10 -12 -17 0 -7 -5 -15 -11 -17 -6 -2 -14 -37 -19
-77 -4 -40 -13 -78 -19 -84 -6 -6 -11 -17 -11 -25 0 -53 -195 -113 -272 -83
-27 10 -28 9 -28 -18 0 -16 -3 -36 -6 -45 -8 -20 -34 -21 -34 -2 0 8 -7 16
-15 20 -8 3 -15 10 -15 16 0 5 7 10 15 10 25 0 17 26 -12 41 -67 35 -113 102
-113 164 0 19 -2 35 -5 35 -13 0 -63 -27 -79 -43 -17 -18 -18 -20 -3 -29 10
-5 17 -14 17 -19 0 -6 -6 -7 -12 -2 -7 4 -23 6 -35 4 -18 -2 -23 3 -23 20 0
22 0 22 -15 3 -13 -18 -14 -16 -15 24 0 24 5 42 11 42 8 0 8 4 -1 15 -6 8 -9
19 -5 25 8 13 48 13 61 0 13 -13 98 4 130 25 26 17 22 53 -10 86 -18 20 -22
38 -24 115 -4 83 -1 98 23 153 15 34 34 61 41 61 20 0 17 26 -6 47 -10 10 -22
38 -26 61 -6 39 -4 44 15 49 11 3 21 9 21 14 0 5 12 9 26 9 17 0 28 -6 31 -20
6 -23 18 -26 27 -7 3 6 4 1 2 -13 -5 -25 18 -69 30 -57 4 3 3 23 -2 44 -11 50
-7 73 14 89 21 16 52 8 72 -20z m4200 -23 c0 -7 -9 -13 -21 -13 -15 0 -19 4
-15 16 3 9 6 25 6 37 1 21 1 21 15 -3 8 -14 14 -31 15 -37z m-634 -9 c-4 -12
-10 -12 -26 -4 -11 6 -20 16 -20 23 0 7 4 6 10 -3 8 -12 10 -12 10 5 0 17 2
17 10 5 8 -12 10 -10 11 10 2 25 2 25 6 2 3 -13 2 -30 -1 -38z m-4446 36 c0
-6 -7 -13 -15 -16 -8 -4 -12 -10 -9 -15 3 -5 0 -9 -5 -9 -9 0 -9 22 -2 48 3 7
31 0 31 -8z m3630 -6 c0 -8 -4 -12 -10 -9 -5 3 -10 10 -10 16 0 5 5 9 10 9 6
0 10 -7 10 -16z m-4743 0 c-3 -3 -12 -4 -19 -1 -8 3 -5 6 6 6 11 1 17 -2 13
-5z m5503 -19 c0 -1 -6 -7 -13 -13 -10 -8 -13 -6 -13 7 0 11 6 17 13 14 7 -3
13 -6 13 -8z m-5621 -9 c11 -7 11 -10 0 -17 -11 -7 -12 -12 -2 -28 9 -15 10
-22 1 -27 -7 -5 -4 -10 11 -15 16 -6 27 -3 41 11 26 26 25 30 -5 30 -14 0 -25
4 -25 10 0 5 14 7 33 3 41 -8 41 -7 28 -31 -14 -27 -14 -82 0 -82 6 0 9 -6 6
-14 -3 -8 1 -20 9 -26 16 -14 19 -46 5 -54 -21 -13 -41 7 -41 39 0 36 -37 104
-57 105 -10 0 -13 -148 -14 -707 0 -390 -4 -730 -8 -758 l-7 -50 -8 37 c-4 20
-5 41 -2 46 11 18 7 1517 -4 1520 -5 2 -10 8 -10 13 0 10 29 7 49 -5z m1811 4
c0 -5 -10 -10 -22 -10 -19 0 -20 2 -8 10 19 13 30 13 30 0z m3077 -14 c-3 -7
6 -30 19 -52 24 -39 33 -114 14 -114 -15 0 -30 36 -30 75 0 26 -7 43 -25 59
-29 27 -31 36 -10 36 8 0 15 5 15 11 0 5 5 7 11 4 6 -4 8 -12 6 -19z m-3630 8
c-3 -3 -12 -4 -19 -1 -8 3 -5 6 6 6 11 1 17 -2 13 -5z m1360 -23 c7 -9 12 -44
12 -81 l-1 -65 -16 65 c-20 76 -28 91 -46 84 -7 -3 -16 1 -19 9 -7 19 54 9 70
-12z m203 15 c0 -3 -4 -8 -10 -11 -5 -3 -10 -1 -10 4 0 6 5 11 10 11 6 0 10
-2 10 -4z m1054 -60 c7 -30 5 -41 -10 -58 -11 -12 -13 -18 -6 -14 11 7 11 4 0
-13 -12 -19 -13 -19 -20 -3 -4 12 -7 6 -8 -18 l-2 -35 -8 34 c-8 33 4 78 24
92 5 4 1 17 -8 30 -9 13 -16 30 -16 37 0 29 45 -15 54 -52z m2824 -16 c-1 -63
-20 -100 -33 -61 -6 20 2 98 11 113 14 22 23 1 22 -52z m-271 18 c-3 -7 -5 -2
-5 12 0 14 2 19 5 13 2 -7 2 -19 0 -25z m-3682 -9 c0 -13 3 -29 7 -35 4 -6 4
-24 -1 -40 l-8 -29 -8 30 c-12 44 -12 106 0 102 5 -2 10 -15 10 -28z m-975 6
c0 -8 -4 -15 -10 -15 -5 0 -10 7 -10 15 0 8 5 15 10 15 6 0 10 -7 10 -15z
m-1652 -35 c10 -16 24 -20 70 -21 l57 -2 -60 -8 c-76 -10 -95 -4 -95 27 0 29
11 31 28 4z m607 0 c7 0 18 -7 26 -16 11 -13 8 -20 -19 -45 -18 -17 -37 -27
-42 -24 -15 9 -12 25 5 25 8 0 15 5 15 10 0 6 -4 10 -9 10 -6 0 -13 -4 -16
-10 -3 -5 -15 -10 -26 -10 -10 0 -19 -6 -19 -12 0 -10 -2 -10 -8 -1 -5 8 -24
11 -54 8 -42 -4 -46 -3 -50 20 -3 14 -1 25 3 25 5 0 9 -7 9 -15 0 -11 11 -15
48 -14 27 1 36 4 22 6 -14 3 -29 9 -35 15 -7 7 10 8 52 3 62 -7 62 -7 69 21 4
16 9 23 12 16 2 -6 9 -12 17 -12z m785 3 c0 -7 -8 -13 -17 -13 -10 0 -28 -3
-40 -6 -18 -5 -23 -2 -23 13 0 16 7 19 40 18 25 0 40 -5 40 -12z m1270 7 c0
-5 -4 -10 -10 -10 -5 0 -10 5 -10 10 0 6 5 10 10 10 6 0 10 -4 10 -10z m1030
0 c0 -5 -4 -10 -10 -10 -5 0 -10 5 -10 10 0 6 5 10 10 10 6 0 10 -4 10 -10z
m1860 -20 c0 -25 -4 -30 -24 -30 -13 0 -31 -3 -40 -6 -13 -5 -16 1 -16 30 0
35 1 36 40 36 38 0 40 -2 40 -30z m80 20 c0 -5 -7 -10 -15 -10 -8 0 -15 5 -15
10 0 6 7 10 15 10 8 0 15 -4 15 -10z m-1805 -52 c15 -9 7 -68 -9 -65 -18 3
-28 39 -14 49 10 8 10 11 1 15 -7 2 -13 14 -13 26 1 22 1 22 12 2 6 -11 16
-23 23 -27z m1825 12 c0 -5 -11 -20 -25 -33 -21 -18 -27 -36 -32 -90 -5 -56
-9 -67 -24 -67 -15 0 -19 8 -19 40 0 22 4 40 8 40 11 0 12 39 1 45 -5 4 -9 -6
-9 -20 0 -25 -2 -26 -32 -20 -45 10 -49 14 -38 34 6 12 5 22 -2 29 -9 9 -2 12
30 12 23 0 42 4 42 10 0 5 18 13 40 16 22 4 40 11 40 16 0 5 5 6 10 3 6 -3 10
-10 10 -15z m-5380 -5 c0 -10 10 -15 34 -15 18 0 47 -3 63 -6 25 -5 29 -10 25
-30 -5 -30 -26 -26 -30 5 -3 21 -7 22 -95 20 -84 -2 -92 -3 -97 -23 -7 -27
-32 -27 -40 0 -5 22 -32 25 -77 10 -18 -6 -23 -4 -23 10 0 15 8 16 66 11 81
-6 109 0 93 19 -9 12 -3 14 35 14 34 0 46 -4 46 -15z m1120 0 c0 -8 -7 -15
-15 -15 -26 0 -18 20 13 29 1 1 2 -6 2 -14z m1222 -56 c6 -4 6 -33 -1 -84 -6
-43 -12 -80 -14 -81 -1 -1 -2 52 -3 119 0 67 1 106 3 87 3 -19 9 -38 15 -41z
m-1282 41 c0 -5 -4 -10 -10 -10 -5 0 -10 5 -10 10 0 6 5 10 10 10 6 0 10 -4
10 -10z m2547 -32 c-3 -8 -6 -5 -6 6 -1 11 2 17 5 13 3 -3 4 -12 1 -19z m850
0 c-3 -8 -6 -5 -6 6 -1 11 2 17 5 13 3 -3 4 -12 1 -19z m1838 -22 c10 -10 11
-16 2 -25 -18 -18 -27 -13 -27 14 0 28 6 31 25 11z m-1819 -33 c-11 -11 -17 4
-9 23 7 18 8 18 11 1 2 -10 1 -21 -2 -24z m-4073 21 c9 -9 -3 -34 -17 -34 -6
0 -18 5 -26 10 -13 9 -13 11 0 20 17 11 34 13 43 4z m3054 -16 c-3 -8 -6 -5
-6 6 -1 11 2 17 5 13 3 -3 4 -12 1 -19z m2429 -11 c2 -14 0 -29 -6 -32 -5 -3
-10 -3 -11 2 0 4 -2 17 -4 27 -4 20 3 41 11 33 3 -3 7 -16 10 -30z m-2216 -21
c0 -3 -4 -8 -10 -11 -5 -3 -10 -1 -10 4 0 6 5 11 10 11 6 0 10 -2 10 -4z
m-3507 -20 c-108 -12 -111 -31 -3 -21 54 5 80 4 80 -4 0 -7 -53 -10 -162 -8
-90 1 -144 3 -120 5 74 5 45 22 -38 22 -47 0 -80 -4 -80 -10 0 -5 -18 -10 -40
-10 -33 0 -40 3 -40 20 0 18 8 19 243 17 207 -1 230 -3 160 -11z m6077 -38 c0
-18 -2 -20 -9 -8 -6 8 -7 18 -5 22 9 14 14 9 14 -14z m-4080 -18 c0 -28 -13
-40 -24 -22 -7 12 5 52 15 52 5 0 9 -13 9 -30z m1277 -42 c-2 -13 -4 -3 -4 22
0 25 2 35 4 23 2 -13 2 -33 0 -45z m199 -30 c-3 -106 1 -145 18 -151 6 -2 3
-3 -7 -1 -9 1 -21 -5 -26 -14 -12 -22 -18 -15 -41 47 -14 40 -15 51 -5 51 7 0
16 -6 18 -12 3 -7 6 14 6 48 1 63 16 124 31 124 5 0 7 -42 6 -92z m2671 70
c-3 -8 -6 -5 -6 6 -1 11 2 17 5 13 3 -3 4 -12 1 -19z m-4924 -20 c7 -23 1 -38
-14 -38 -5 0 -9 14 -9 30 0 35 15 40 23 8z m964 -30 c-3 -7 -5 -2 -5 12 0 14
2 19 5 13 2 -7 2 -19 0 -25z m3878 3 c-9 -16 -25 -3 -18 15 4 10 9 12 15 6 6
-6 7 -15 3 -21z m-4145 9 c0 -5 -4 -10 -10 -10 -5 0 -10 5 -10 10 0 6 5 10 10
10 6 0 10 -4 10 -10z m3659 -93 c1 -51 -2 -68 -11 -65 -14 5 -24 130 -12 157
11 28 23 -17 23 -92z m138 57 c34 -13 43 -22 43 -40 0 -17 -6 -24 -20 -24 -12
0 -20 -7 -20 -16 0 -9 9 -18 20 -21 23 -6 28 -43 5 -43 -8 0 -19 9 -25 20 -7
14 -21 20 -44 20 -19 0 -39 7 -46 15 -11 13 -8 15 19 15 28 0 31 3 31 29 0 17
-4 33 -10 36 -11 7 -14 25 -3 25 4 0 27 -7 50 -16z m293 -13 c-1 -16 -18 -29
-50 -36 -65 -13 -159 -17 -177 -7 -16 10 -16 11 7 20 14 5 48 8 75 5 37 -3 59
1 85 15 32 18 60 19 60 3z m-4033 2 c-4 -3 0 -17 8 -30 14 -21 14 -25 0 -46
-8 -13 -12 -27 -8 -30 3 -4 2 -7 -4 -7 -5 0 -9 27 -9 60 0 33 4 60 9 60 6 0 7
-3 4 -7z m3316 -42 c-10 -16 -9 -18 6 -14 10 3 18 12 17 21 0 10 6 17 14 17
11 0 16 -13 18 -49 2 -36 0 -47 -10 -44 -7 3 -14 14 -16 26 -4 23 -17 29 -27
12 -11 -17 -44 -11 -43 8 0 9 -3 25 -6 34 -6 12 -2 17 16 20 32 5 45 -8 31
-31z m-3090 9 c3 -11 1 -20 -4 -20 -5 0 -9 9 -9 20 0 11 2 20 4 20 2 0 6 -9 9
-20z m3445 9 c-2 -6 -7 -10 -11 -10 -4 1 -14 1 -22 1 -8 0 -15 5 -15 10 0 6
12 10 26 10 14 0 24 -5 22 -11z m-4364 -35 c26 -27 34 -54 16 -54 -5 0 -10 5
-10 11 0 6 -11 20 -25 31 -25 19 -33 38 -16 38 4 0 20 -12 35 -26z m4239 0
c33 -10 7 -22 -29 -14 -20 5 -51 6 -70 3 -39 -6 -68 2 -58 18 6 11 112 6 157
-7z m-1149 -9 c7 -18 33 -20 39 -2 3 9 7 9 20 -2 20 -16 22 -42 6 -58 -8 -8
-1 -10 27 -6 32 4 41 1 52 -16 11 -20 10 -22 -16 -27 -23 -5 -28 -10 -25 -29
6 -26 -22 -42 -44 -24 -11 9 -26 6 -69 -16 -30 -15 -58 -33 -62 -40 -7 -12
-65 -35 -88 -35 -37 0 7 63 66 96 19 10 41 25 48 32 8 6 22 17 33 23 16 8 19
17 13 47 -3 20 -12 42 -20 48 -18 14 -18 24 0 24 8 0 16 -7 20 -15z m846 5
c13 -9 13 -11 1 -19 -8 -5 -20 -7 -27 -4 -8 3 -27 0 -44 -5 -28 -10 -30 -9
-30 14 0 22 4 24 43 24 23 0 49 -5 57 -10z m-3006 -62 c-2 -3 -14 -4 -25 -1
-19 5 -19 7 -5 15 11 6 15 17 12 31 -3 12 0 9 8 -8 8 -16 12 -33 10 -37z
m2096 17 c0 -26 -3 -33 -15 -29 -17 7 -17 9 -9 42 9 34 24 26 24 -13z m1688
12 c3 -12 -4 -17 -22 -17 -27 0 -37 24 -13 33 19 8 32 2 35 -16z m-1658 -4 c0
-10 3 -28 6 -40 5 -17 2 -23 -10 -23 -19 0 -22 20 -3 21 10 0 10 2 0 6 -15 6
-18 53 -3 53 6 0 10 -8 10 -17z m137 -5 c-3 -8 -6 -5 -6 6 -1 11 2 17 5 13 3
-3 4 -12 1 -19z m-2207 -42 c0 -3 -7 -6 -15 -6 -9 0 -15 9 -15 21 0 18 2 19
15 5 8 -8 15 -17 15 -20z m3560 24 c0 -5 -4 -10 -10 -10 -5 0 -10 5 -10 10 0
6 5 10 10 10 6 0 10 -4 10 -10z m-4690 -14 c0 -3 -4 -8 -10 -11 -5 -3 -10 -1
-10 4 0 6 5 11 10 11 6 0 10 -2 10 -4z m860 -36 c0 -29 4 -40 15 -40 9 0 15
-10 15 -26 0 -20 -4 -25 -22 -22 -17 2 -23 -2 -22 -14 1 -13 -5 -18 -21 -18
-18 0 -24 6 -27 26 -2 22 -11 29 -50 42 -39 12 -48 19 -48 38 0 29 16 34 61
16 33 -13 39 -12 63 3 14 9 23 21 20 26 -3 5 0 9 5 9 6 0 11 -18 11 -40z m80
0 c0 -29 -4 -40 -15 -40 -10 0 -15 10 -15 33 0 19 3 37 7 40 15 16 23 5 23
-33z m-827 23 c-7 -2 -21 -2 -30 0 -10 3 -4 5 12 5 17 0 24 -2 18 -5z m3947
-50 c0 -14 -21 -17 -57 -7 -16 4 -23 14 -23 29 0 23 0 23 40 8 22 -9 40 -22
40 -30z m-2919 27 c30 -16 23 -37 -11 -36 -29 1 -41 22 -23 39 8 9 11 9 34 -3z
m3399 -15 c0 -14 -5 -25 -11 -25 -5 0 -7 -4 -4 -10 4 -6 -46 -10 -144 -10
-110 0 -150 3 -154 13 -2 8 -26 12 -73 12 -38 -1 -56 1 -41 3 24 3 26 6 15 19
-11 14 -10 15 12 7 14 -4 84 -9 155 -10 156 -2 150 -1 137 -17 -8 -10 -1 -13
34 -13 49 0 52 3 27 22 -17 12 -16 13 7 23 37 14 40 13 40 -14z m-4594 -28 c8
-18 23 -47 33 -66 17 -33 17 -35 -1 -53 -22 -22 -29 -23 -22 -4 3 8 -1 28 -10
44 -8 16 -13 32 -10 35 3 3 -3 12 -15 19 -20 12 -28 47 -15 61 10 10 23 -2 40
-36z m3164 9 c0 -7 -7 -19 -15 -26 -16 -13 -20 -3 -9 24 8 20 24 21 24 2z
m300 4 c0 -5 -10 -10 -22 -10 -19 0 -20 2 -8 10 19 13 30 13 30 0z m-2480 -35
c0 -8 -4 -15 -9 -15 -13 0 -22 16 -14 24 11 11 23 6 23 -9z m1230 -11 c0 -8
-5 -12 -10 -9 -6 4 -8 11 -5 16 9 14 15 11 15 -7z m1124 -15 l16 -31 -32 6
c-17 3 -33 8 -36 10 -3 3 26 41 35 45 1 1 9 -13 17 -30z m-2502 -1 c4 -7 8
-17 8 -23 0 -6 -4 -5 -8 1 -4 6 -22 15 -39 19 -49 10 -55 30 -8 22 21 -3 42
-12 47 -19z m2558 -4 c0 -14 -3 -14 -15 -4 -8 7 -15 14 -15 16 0 2 7 4 15 4 8
0 15 -7 15 -16z m-1290 -9 c0 -9 -9 -15 -21 -15 -18 0 -19 2 -9 15 7 8 16 15
21 15 5 0 9 -7 9 -15z m-1110 -7 c0 -5 -14 -8 -31 -8 -16 0 -28 3 -26 8 3 4
17 7 31 7 14 0 26 -3 26 -7z m285 2 c3 -5 -1 -10 -9 -10 -8 0 -18 5 -21 10 -3
6 1 10 9 10 8 0 18 -4 21 -10z m-1097 -20 c10 -16 10 -20 -2 -20 -7 0 -16 9
-19 20 -3 11 -2 20 2 20 3 0 12 -9 19 -20z m620 13 c-10 -2 -26 -2 -35 0 -10
3 -2 5 17 5 19 0 27 -2 18 -5z m544 -19 c7 -15 23 -27 40 -31 42 -8 34 -23
-11 -19 -24 3 -42 -1 -44 -7 -2 -7 -8 -8 -13 -4 -5 4 -4 11 2 15 19 12 11 56
-11 64 -19 6 -18 6 3 7 15 1 26 -7 34 -25z m1943 16 c11 -5 14 -9 8 -9 -7 -1
-13 -8 -13 -16 0 -8 -4 -15 -10 -15 -5 0 -10 7 -10 15 0 7 -8 19 -17 24 -17
10 -16 10 2 10 11 0 29 -4 40 -9z m-3134 -40 c11 -6 19 -21 19 -36 0 -14 4
-23 10 -19 6 4 7 11 4 17 -5 8 -1 9 10 5 10 -4 24 -7 32 -7 21 0 17 -24 -9
-49 -33 -30 -146 -41 -171 -16 -20 20 -21 55 -2 55 8 0 18 -4 21 -10 13 -22
23 -8 18 24 -4 28 -2 35 13 39 31 8 34 7 55 -3z m3079 0 c0 -5 -14 -10 -31
-10 -17 0 -28 4 -24 10 3 6 17 10 31 10 13 0 24 -4 24 -10z m-3172 -20 c-7
-11 -16 -20 -20 -20 -5 0 -3 9 4 20 7 11 16 20 20 20 5 0 3 -9 -4 -20z m2337
10 c12 -19 -5 -30 -25 -17 -11 6 -20 15 -20 19 0 12 38 10 45 -2z m92 -22 c-3
-7 -5 -2 -5 12 0 14 2 19 5 13 2 -7 2 -19 0 -25z m763 -100 c20 -22 17 -48 -6
-48 -8 0 -14 9 -14 19 0 11 -4 22 -8 25 -11 7 -15 93 -5 109 5 7 9 -8 11 -37
2 -30 10 -56 22 -68z m-1812 95 c-9 -2 -15 -10 -12 -17 3 -8 -2 -16 -11 -20
-20 -7 -33 23 -14 35 8 5 23 8 34 8 16 -1 17 -2 3 -6z m1499 1 c-3 -3 -12 -4
-19 -1 -8 3 -5 6 6 6 11 1 17 -2 13 -5z m-2952 -45 c0 -24 -5 -35 -17 -37 -13
-3 -18 3 -18 21 0 14 3 33 6 42 11 27 29 11 29 -26z m2045 31 c0 -5 -9 -10
-20 -10 -11 0 -20 5 -20 10 0 6 9 10 20 10 11 0 20 -4 20 -10z m342 -37 c3
-27 -1 -61 -8 -78 -11 -28 -12 -24 -13 48 -1 84 14 106 21 30z m-2112 -17 c0
-8 -8 -17 -17 -19 -14 -4 -12 -5 5 -6 12 0 22 4 22 9 0 6 5 10 11 10 6 0 9
-10 7 -22 -2 -15 -11 -24 -27 -26 -59 -9 -100 29 -46 42 14 4 25 11 25 16 0 6
5 10 10 10 6 0 10 -6 10 -14z m480 4 c-10 -6 -11 -10 -2 -10 6 0 12 -4 12 -10
0 -5 -7 -10 -15 -10 -8 0 -15 6 -15 13 0 17 10 27 24 27 6 0 4 -5 -4 -10z
m-57 -36 c-25 -19 -32 -17 -26 5 3 13 11 17 24 14 18 -5 19 -6 2 -19z m-75
-11 c-4 -35 -33 -43 -41 -12 -8 29 -1 39 24 39 16 0 20 -6 17 -27z m222 -28
c0 -59 -14 -74 -25 -25 -5 21 -13 30 -28 31 -12 1 -34 2 -49 3 -38 3 -48 16
-12 16 16 1 40 7 54 15 49 28 60 21 60 -40z m2536 30 c-1 -19 -4 -22 -11 -12
-15 18 -37 15 -45 -7 -4 -14 -9 -16 -14 -8 -15 24 3 47 38 49 30 3 34 0 32
-22z m-2926 5 c0 -5 -4 -10 -10 -10 -5 0 -10 5 -10 10 0 6 5 10 10 10 6 0 10
-4 10 -10z m3030 -48 c0 -10 -5 -23 -11 -29 -8 -8 -7 -17 3 -33 10 -18 10 -24
1 -27 -7 -3 -13 -11 -13 -19 0 -9 4 -13 9 -10 5 3 11 -8 13 -25 5 -35 -2 -42
-36 -33 -24 6 -24 7 -10 30 9 13 13 28 9 35 -4 6 -2 15 6 20 11 6 10 12 -6 28
-10 12 -24 20 -31 19 -12 -3 -14 0 -14 24 0 9 3 9 12 0 18 -18 27 -15 38 13
11 29 30 33 30 7z m-1113 -34 c-3 -8 -6 -5 -6 6 -1 11 2 17 5 13 3 -3 4 -12 1
-19z m983 -2 c7 -14 10 -34 7 -45 -7 -27 9 -27 23 -1 12 22 18 24 38 12 10 -7
10 -18 0 -55 -6 -25 -15 -44 -20 -41 -4 3 -23 2 -43 -2 -39 -7 -48 -31 -12
-31 55 -1 63 -3 47 -13 -8 -5 -27 -10 -42 -10 -25 0 -26 -3 -26 -49 -1 -38 -6
-54 -26 -74 -17 -17 -28 -21 -35 -14 -8 8 -5 17 8 31 15 16 20 39 23 94 3 73
3 74 -24 79 -27 5 -28 6 -22 62 8 68 17 81 59 81 23 0 35 -6 45 -24z m40 14
c0 -5 -4 -10 -9 -10 -6 0 -13 5 -16 10 -3 6 1 10 9 10 9 0 16 -4 16 -10z
m-3114 -40 c15 0 24 -6 24 -15 0 -11 -12 -15 -50 -15 -47 0 -50 2 -50 25 0 22
2 24 26 15 14 -6 36 -10 50 -10z m534 6 c0 -2 3 -11 6 -20 5 -13 -1 -16 -25
-16 -24 0 -31 4 -31 20 0 15 7 20 25 20 14 0 25 -2 25 -4z m-412 -15 c6 -1 12
-5 12 -11 0 -5 -20 -10 -45 -10 -32 0 -45 4 -45 14 0 13 6 13 78 7z m62 -12
c0 -5 -4 -9 -10 -9 -5 0 -10 7 -10 16 0 8 5 12 10 9 6 -3 10 -10 10 -16z m280
11 c0 -12 -28 -25 -36 -17 -9 9 6 27 22 27 8 0 14 -5 14 -10z m-235 -10 c3 -5
-3 -10 -15 -10 -12 0 -18 5 -15 10 3 6 10 10 15 10 5 0 12 -4 15 -10z m75 0
c12 -8 12 -10 -5 -10 -11 0 -27 5 -35 10 -12 8 -12 10 5 10 11 0 27 -5 35 -10z
m100 0 c0 -5 -18 -10 -41 -10 -24 0 -38 4 -34 10 3 6 22 10 41 10 19 0 34 -4
34 -10z m1640 -34 c0 -25 -22 -51 -33 -39 -4 3 -7 19 -7 35 0 21 5 28 20 28
14 0 20 -7 20 -24z m-8 -176 c3 -33 0 -40 -14 -40 -14 0 -18 8 -18 40 0 28 4
40 14 40 9 0 15 -14 18 -40z m732 -16 c17 -7 22 -72 10 -133 -8 -40 -44 -45
-44 -6 0 20 -5 25 -27 26 -24 2 -25 2 -5 6 19 4 22 11 22 52 0 60 7 69 44 55z
m-369 -86 c1 -74 0 -78 -21 -78 -22 0 -32 28 -35 110 -2 32 -2 31 -8 -10 -5
-39 -9 -45 -30 -45 -13 0 -26 6 -29 14 -3 10 2 13 22 9 24 -5 26 -2 26 26 0
39 17 58 50 54 23 -3 24 -6 25 -80z m558 65 c-7 -2 -19 -2 -25 0 -7 3 -2 5 12
5 14 0 19 -2 13 -5z m-644 -19 c8 -7 -7 -15 -37 -20 -17 -3 -33 0 -37 6 -3 5
-39 11 -78 12 l-72 2 75 6 c69 6 139 3 149 -6z m561 -4 c-20 -13 -47 -13 -55
0 -4 6 9 10 32 10 28 0 34 -3 23 -10z m58 -2 c-6 -18 -28 -21 -28 -4 0 9 7 16
16 16 9 0 14 -5 12 -12z m-879 -55 c-9 -10 -6 -13 17 -14 16 -1 32 -1 37 0 4
0 7 -3 7 -8 0 -18 -60 -28 -94 -15 -17 7 -22 34 -6 34 6 0 10 12 10 27 0 25 0
26 20 8 15 -14 17 -21 9 -32z m-109 22 c0 -8 -4 -15 -10 -15 -5 0 -10 7 -10
15 0 8 5 15 10 15 6 0 10 -7 10 -15z m980 -10 c0 -8 9 -20 20 -27 11 -7 20
-18 20 -25 0 -16 1 -17 -45 7 -22 11 -59 20 -83 20 -39 0 -42 2 -28 15 16 17
41 21 31 5 -4 -6 7 -10 25 -10 17 0 29 4 26 9 -4 5 0 12 6 14 22 9 28 7 28 -8z
m-660 -5 c0 -5 -7 -10 -15 -10 -8 0 -15 5 -15 10 0 6 7 10 15 10 8 0 15 -4 15
-10z m750 0 c0 -5 -7 -10 -15 -10 -8 0 -15 5 -15 10 0 6 7 10 15 10 8 0 15 -4
15 -10z m-872 -7 c-10 -2 -26 -2 -35 0 -10 3 -2 5 17 5 19 0 27 -2 18 -5z m55
-10 c-7 -2 -19 -2 -25 0 -7 3 -2 5 12 5 14 0 19 -2 13 -5z m-153 -128 c0 -3
-9 -5 -20 -5 -16 0 -20 7 -20 38 l0 37 20 -33 c11 -18 20 -35 20 -37z m920 1
c0 -15 -43 -26 -94 -25 -27 0 -24 3 24 19 69 23 70 23 70 6z m-741 -22 c2 -2
-32 -4 -77 -4 -45 0 -82 4 -82 10 0 8 149 3 159 -6z m2569 -46 c-4 -10 -683
-13 -3353 -13 -2670 0 -3349 3 -3352 13 -4 9 671 12 3352 12 2681 0 3356 -3
3353 -12z"/>
<path d="M3443 4618 c-31 -15 -46 -71 -32 -123 12 -46 44 -85 69 -85 13 0 19
-12 23 -47 3 -27 3 -52 0 -56 -2 -4 -19 6 -36 23 -17 16 -39 32 -49 36 -10 3
-18 9 -18 13 0 4 -12 13 -26 19 -24 12 -25 16 -22 80 3 61 1 67 -17 69 -11 2
-28 -3 -38 -11 -16 -12 -17 -19 -7 -56 13 -49 8 -58 -23 -42 -53 26 -97 10
-97 -35 0 -20 5 -23 35 -23 35 0 46 -15 25 -36 -15 -15 0 -52 23 -58 14 -4 41
4 70 19 61 31 86 31 122 1 27 -23 27 -53 0 -42 -17 6 -55 -35 -55 -60 0 -25
18 -44 42 -44 27 0 67 -47 73 -88 3 -20 8 -47 11 -59 2 -13 0 -23 -5 -23 -11
0 -71 89 -71 105 0 27 -76 76 -138 90 -28 6 -36 2 -62 -25 -17 -18 -30 -42
-30 -54 0 -26 47 -128 63 -138 26 -16 109 -8 149 14 l40 23 29 -35 c29 -34 29
-36 29 -162 l0 -128 40 0 c22 0 40 4 40 10 0 5 -5 9 -12 7 -16 -3 -29 67 -26
143 l3 65 54 3 c43 3 60 9 78 28 35 37 29 108 -10 118 -31 8 -64 -18 -88 -69
-12 -25 -25 -45 -29 -45 -11 0 -19 112 -9 130 22 40 23 40 79 25 67 -18 120
-19 120 -3 0 6 6 19 14 27 8 9 17 34 20 56 6 35 3 45 -18 68 -14 15 -30 27
-36 27 -5 0 -10 5 -10 10 0 6 -22 10 -50 10 -47 0 -52 -2 -80 -42 -22 -30 -30
-52 -30 -85 0 -23 -4 -43 -9 -43 -14 0 -10 111 6 152 16 39 37 51 84 47 52 -5
79 2 108 27 24 20 31 34 31 63 0 84 -73 108 -161 53 -60 -39 -67 -50 -71 -107
-4 -67 -22 -64 -26 4 -3 48 0 57 22 76 14 12 26 27 26 33 0 6 5 12 11 14 6 2
12 27 12 57 1 45 -3 56 -24 72 -27 21 -100 25 -136 7z m-168 -218 c3 -5 2 -10
-4 -10 -5 0 -13 5 -16 10 -3 6 -2 10 4 10 5 0 13 -4 16 -10z m80 -22 c18 -8
22 -14 13 -19 -14 -9 -48 7 -48 21 0 13 4 12 35 -2z m145 -153 c0 -14 -2 -25
-4 -25 -2 0 -6 11 -8 25 -3 14 -1 25 3 25 5 0 9 -11 9 -25z m6 -72 c-11 -11
-19 6 -11 24 8 17 8 17 12 0 3 -10 2 -21 -1 -24z"/>
<path d="M4502 4578 c-26 -13 -37 -46 -26 -80 9 -30 33 -47 65 -48 24 0 27 -5
34 -46 3 -25 4 -48 2 -51 -3 -2 -19 15 -35 39 -46 66 -105 109 -124 90 -7 -7
3 -16 28 -29 l39 -18 -34 -3 c-25 -3 -37 2 -48 17 -17 24 -65 28 -82 7 -7 -8
-11 -30 -9 -48 2 -28 7 -34 30 -36 19 -2 36 5 53 22 21 21 31 24 62 19 35 -6
52 -17 53 -35 0 -3 -8 -4 -19 -1 -24 6 -35 -21 -18 -47 8 -14 23 -20 50 -20
21 0 39 -5 42 -12 9 -30 15 -138 8 -138 -8 1 -34 34 -76 100 -26 40 -63 61
-123 68 -36 4 -44 1 -58 -20 -28 -42 -30 -81 -6 -132 24 -54 63 -77 120 -69
36 5 81 22 91 36 17 23 59 -30 59 -73 0 -24 -4 -24 -34 -5 -30 20 -55 2 -58
-44 -3 -31 0 -36 27 -44 83 -26 76 -8 74 -184 -1 -170 0 -175 52 -154 16 7 19
10 7 10 -16 1 -17 16 -14 179 2 97 4 185 5 195 1 15 9 18 51 16 66 -3 92 19
88 74 -1 28 -8 43 -25 54 -24 16 -31 14 -78 -32 -10 -10 -29 -47 -38 -75 -3
-8 -6 8 -6 37 -1 66 10 95 45 118 28 18 29 18 87 -14 87 -48 140 -29 153 55
10 70 -33 124 -98 124 -35 0 -47 -6 -80 -40 -21 -23 -38 -47 -38 -54 0 -13
-68 -81 -75 -74 -2 1 -6 27 -9 56 -4 39 -1 63 11 85 21 42 29 47 89 47 74 0
114 17 129 54 23 55 -6 116 -55 116 -74 0 -160 -65 -160 -121 0 -42 -10 -79
-20 -79 -4 0 -13 20 -19 44 -11 44 -7 76 10 76 19 0 8 57 -14 78 -25 24 -50
27 -85 10z"/>
<path d="M2691 4344 c0 -11 3 -14 6 -6 3 7 2 16 -1 19 -3 4 -6 -2 -5 -13z"/>
<path d="M2226 4321 c-12 -5 -15 -10 -9 -14 6 -4 26 0 44 8 31 13 32 14 9 14
-14 0 -34 -4 -44 -8z"/>
<path d="M3098 4313 c7 -3 16 -2 19 1 4 3 -2 6 -13 5 -11 0 -14 -3 -6 -6z"/>
<path d="M3388 4303 c7 -3 16 -2 19 1 4 3 -2 6 -13 5 -11 0 -14 -3 -6 -6z"/>
<path d="M2138 4293 c7 -3 16 -2 19 1 4 3 -2 6 -13 5 -11 0 -14 -3 -6 -6z"/>
<path d="M2075 4280 c-3 -5 1 -10 9 -10 9 0 16 5 16 10 0 6 -4 10 -9 10 -6 0
-13 -4 -16 -10z"/>
<path d="M1995 4260 c-3 -6 1 -7 9 -4 18 7 21 14 7 14 -6 0 -13 -4 -16 -10z"/>
<path d="M1902 4221 c-11 -6 -9 -9 6 -13 15 -4 19 -2 15 8 -6 16 -4 16 -21 5z"/>
<path d="M1646 4091 c-4 -5 3 -7 14 -4 23 6 26 13 6 13 -8 0 -17 -4 -20 -9z"/>
<path d="M1540 4019 c0 -5 5 -7 10 -4 6 3 10 8 10 11 0 2 -4 4 -10 4 -5 0 -10
-5 -10 -11z"/>
<path d="M1435 3970 c3 -5 11 -10 16 -10 6 0 7 5 4 10 -3 6 -11 10 -16 10 -6
0 -7 -4 -4 -10z"/>
<path d="M1340 3920 c0 -5 5 -10 10 -10 6 0 10 5 10 10 0 6 -4 10 -10 10 -5 0
-10 -4 -10 -10z"/>
<path d="M1288 3893 c7 -3 16 -2 19 1 4 3 -2 6 -13 5 -11 0 -14 -3 -6 -6z"/>
<path d="M1873 3850 c0 -25 2 -35 4 -22 2 12 2 32 0 45 -2 12 -4 2 -4 -23z"/>
<path d="M1220 3856 c0 -2 7 -6 15 -10 8 -3 15 -1 15 4 0 6 -7 10 -15 10 -8 0
-15 -2 -15 -4z"/>
<path d="M5085 3830 c-7 -12 22 -12 50 0 17 7 15 9 -12 9 -17 1 -35 -3 -38 -9z"/>
<path d="M1526 3815 c-3 -9 -5 -33 -5 -53 2 -33 2 -32 9 13 8 53 6 66 -4 40z"/>
<path d="M2728 3813 c7 -3 16 -2 19 1 4 3 -2 6 -13 5 -11 0 -14 -3 -6 -6z"/>
<path d="M5405 3799 c-4 -11 -4 -23 -2 -26 9 -9 27 7 27 25 0 14 2 14 9 3 5
-8 14 -10 22 -6 9 6 8 10 -7 16 -32 13 -42 10 -49 -12z"/>
<path d="M5068 3803 c6 -2 18 -2 25 0 6 3 1 5 -13 5 -14 0 -19 -2 -12 -5z"/>
<path d="M5128 3803 c7 -3 16 -2 19 1 4 3 -2 6 -13 5 -11 0 -14 -3 -6 -6z"/>
<path d="M3325 3790 c-6 -9 33 -30 56 -30 13 0 11 14 -3 28 -15 15 -45 16 -53
2z"/>
<path d="M5210 3751 c0 -6 5 -13 10 -16 6 -3 10 1 10 9 0 9 -4 16 -10 16 -5 0
-10 -4 -10 -9z"/>
<path d="M2454 3695 c-10 -8 -14 -14 -9 -15 15 0 40 18 34 24 -3 3 -14 -1 -25
-9z"/>
<path d="M915 3690 c3 -5 11 -10 16 -10 6 0 7 5 4 10 -3 6 -11 10 -16 10 -6 0
-7 -4 -4 -10z"/>
<path d="M1708 3543 c7 -3 16 -2 19 1 4 3 -2 6 -13 5 -11 0 -14 -3 -6 -6z"/>
<path d="M2232 3530 c-7 -11 -8 -20 -3 -20 9 0 24 30 18 36 -1 2 -8 -6 -15
-16z"/>
<path d="M1635 3510 c4 -6 11 -8 16 -5 14 9 11 15 -7 15 -8 0 -12 -5 -9 -10z"/>
<path d="M1620 3486 c14 -7 29 -10 34 -8 11 6 -20 20 -44 21 -8 0 -4 -5 10
-13z"/>
<path d="M2362 3478 c-7 -7 -12 -21 -12 -31 0 -14 -4 -17 -17 -12 -35 14 -48
10 -63 -22 -9 -19 -30 -39 -52 -50 -21 -10 -38 -21 -38 -25 0 -13 19 -9 46 9
16 10 42 16 65 14 33 -1 41 2 51 24 8 18 17 24 29 20 10 -4 27 -1 39 5 35 19
20 80 -20 80 -9 0 -21 -5 -28 -12z m46 -36 c3 -17 -2 -22 -17 -22 -16 0 -21 6
-21 26 0 33 33 30 38 -4z m-84 -28 c10 -27 7 -34 -19 -34 -18 0 -25 5 -25 18
0 34 33 45 44 16z"/>
<path d="M2506 3425 c-3 -9 0 -15 9 -15 8 0 15 7 15 15 0 8 -4 15 -9 15 -5 0
-11 -7 -15 -15z"/>
<path d="M2065 3420 c-3 -5 -1 -10 4 -10 6 0 11 5 11 10 0 6 -2 10 -4 10 -3 0
-8 -4 -11 -10z"/>
<path d="M2462 3421 c-11 -7 -11 -9 2 -14 10 -4 16 -1 16 8 0 17 -1 17 -18 6z"/>
<path d="M2515 3320 c-3 -5 -24 -7 -45 -5 -31 4 -40 2 -40 -9 0 -18 38 -46 62
-46 22 0 58 34 58 55 0 17 -25 20 -35 5z"/>
<path d="M1673 3125 c0 -22 2 -30 4 -17 2 12 2 30 0 40 -3 9 -5 -1 -4 -23z"/>
<path d="M5100 3125 c-10 -12 -10 -15 4 -15 9 0 16 7 16 15 0 8 -2 15 -4 15
-2 0 -9 -7 -16 -15z"/>
<path d="M1320 3100 c-41 -6 -42 -7 -10 -8 19 0 58 3 85 8 47 7 48 7 10 7 -22
0 -60 -3 -85 -7z"/>
<path d="M1466 3074 c-9 -24 -2 -26 12 -4 7 11 8 20 3 20 -5 0 -12 -7 -15 -16z"/>
<path d="M1512 3065 c0 -16 2 -22 5 -12 2 9 2 23 0 30 -3 6 -5 -1 -5 -18z"/>
<path d="M1138 3053 c12 -2 32 -2 45 0 12 2 2 4 -23 4 -25 0 -35 -2 -22 -4z"/>
<path d="M810 2969 c-6 -11 -9 -25 -6 -32 2 -7 5 -5 5 4 1 9 8 19 16 23 8 3
15 10 15 16 0 17 -19 11 -30 -11z"/>
<path d="M2108 2943 c7 -3 16 -2 19 1 4 3 -2 6 -13 5 -11 0 -14 -3 -6 -6z"/>
<path d="M1173 2919 c9 -5 17 -18 18 -27 0 -14 2 -13 9 3 14 31 12 35 -17 35
-24 -1 -25 -2 -10 -11z"/>
<path d="M1050 2860 c0 -5 5 -10 10 -10 6 0 10 5 10 10 0 6 -4 10 -10 10 -5 0
-10 -4 -10 -10z"/>
<path d="M1200 2856 c0 -8 -10 -22 -22 -32 -17 -12 -18 -15 -5 -10 10 3 20 6
22 6 11 0 24 39 15 45 -5 3 -10 -1 -10 -9z"/>
<path d="M1170 2715 c0 -8 7 -15 16 -15 9 0 12 -5 8 -12 -5 -10 -4 -10 6 -1 7
6 10 19 7 27 -8 20 -37 21 -37 1z"/>
<path d="M962 2665 c0 -16 2 -22 5 -12 2 9 2 23 0 30 -3 6 -5 -1 -5 -18z"/>
<path d="M6580 4366 c0 -2 6 -16 14 -31 10 -19 16 -23 22 -14 4 7 2 15 -4 17
-7 2 -12 10 -12 18 0 8 -4 14 -10 14 -5 0 -10 -2 -10 -4z"/>
<path d="M6620 4360 c0 -5 5 -10 10 -10 6 0 10 5 10 10 0 6 -4 10 -10 10 -5 0
-10 -4 -10 -10z"/>
<path d="M6772 4360 c-12 -5 -29 -7 -37 -4 -8 4 -15 2 -15 -4 0 -5 18 -12 41
-14 31 -3 43 0 50 14 11 20 -1 23 -39 8z"/>
<path d="M5890 4147 c0 -11 -5 -14 -17 -10 -11 4 -14 3 -9 -5 4 -7 1 -15 -8
-18 -9 -3 -16 -12 -16 -20 0 -12 4 -12 19 -2 24 14 47 55 38 65 -4 3 -7 -1 -7
-10z"/>
<path d="M6678 3813 c7 -3 10 -8 7 -13 -6 -10 48 -18 172 -25 83 -4 93 -3 102
14 6 10 7 21 4 25 -11 10 -53 7 -53 -5 0 -11 -179 -8 -225 3 -11 3 -14 3 -7 1z"/>
<path d="M6848 3813 c6 -2 18 -2 25 0 6 3 1 5 -13 5 -14 0 -19 -2 -12 -5z"/>
<path d="M7270 3810 c8 -5 29 -9 45 -9 26 0 27 2 10 9 -11 5 -31 9 -45 9 -20
1 -22 -1 -10 -9z"/>
<path d="M7360 3790 c0 -5 -8 -10 -17 -10 -12 0 -14 -3 -6 -8 20 -13 103 -2
103 14 0 10 -12 14 -40 14 -22 0 -40 -4 -40 -10z"/>
<path d="M5440 3559 c0 -5 5 -7 10 -4 6 3 10 8 10 11 0 2 -4 4 -10 4 -5 0 -10
-5 -10 -11z"/>
<path d="M3268 3369 c-27 -15 -25 -85 2 -99 39 -21 90 10 90 55 0 20 -8 29
-35 41 -40 16 -35 16 -57 3z"/>
<path d="M4416 3358 c-19 -27 -21 -69 -4 -86 19 -19 66 -14 88 8 31 31 24 62
-21 85 -37 20 -45 19 -63 -7z"/>
<path d="M6001 3203 c-1 -17 3 -33 9 -35 6 -2 5 -31 -4 -80 -13 -78 -12 -88 8
-88 18 0 19 148 2 195 l-15 40 0 -32z"/>
<path d="M5910 2930 c0 -5 5 -10 10 -10 6 0 10 5 10 10 0 6 -4 10 -10 10 -5 0
-10 -4 -10 -10z"/>
<path d="M5990 2900 c0 -5 5 -10 10 -10 6 0 10 5 10 10 0 6 -4 10 -10 10 -5 0
-10 -4 -10 -10z"/>
<path d="M5824 2767 c-6 -16 12 -57 30 -69 22 -15 83 -8 99 10 28 31 21 42
-28 42 -25 0 -57 7 -70 16 -22 14 -25 14 -31 1z"/>
<path d="M5774 2661 c3 -5 15 -11 26 -14 17 -4 19 -3 9 9 -12 15 -44 20 -35 5z"/>
<path d="M5846 2374 c-9 -24 -7 -27 9 -10 17 17 19 26 6 26 -5 0 -12 -7 -15
-16z"/>
<path d="M5910 2380 c0 -5 5 -10 11 -10 5 0 7 5 4 10 -3 6 -8 10 -11 10 -2 0
-4 -4 -4 -10z"/>
<path d="M4672 3128 c-11 -14 -15 -33 -13 -60 1 -23 39 -32 74 -19 21 8 27 17
27 39 0 15 -5 33 -12 40 -16 16 -63 15 -76 0z"/>
<path d="M4816 2821 c-4 -7 -5 -15 -2 -18 9 -9 19 4 14 18 -4 11 -6 11 -12 0z"/>
<path d="M3376 3101 c-7 -10 16 -21 45 -21 12 0 16 5 13 15 -7 16 -49 21 -58
6z"/>
<path d="M3826 3093 c-4 -8 -6 -30 -6 -49 0 -33 1 -34 38 -34 31 0 41 5 52 24
11 21 10 27 -6 44 -25 25 -71 34 -78 15z"/>
<path d="M3584 3006 c-17 -68 27 -97 73 -48 l23 25 -22 24 c-29 31 -66 31 -74
-1z"/>
<path d="M4069 3024 c-17 -20 -15 -84 3 -95 32 -21 78 3 78 40 0 23 -37 71
-55 71 -7 0 -18 -7 -26 -16z"/>
<path d="M1511 2781 c-15 -10 -8 -41 9 -41 15 0 25 29 14 40 -5 5 -15 5 -23 1z"/>
<path d="M1442 2758 c2 -12 9 -23 15 -26 19 -6 29 28 12 39 -23 14 -31 10 -27
-13z"/>
<path d="M1540 2610 c-29 -22 -109 -27 -128 -8 -22 22 -37 -6 -23 -40 15 -35
48 -52 101 -52 30 0 43 6 64 31 15 18 26 43 26 60 0 34 -6 35 -40 9z"/>
<path d="M4596 2601 c-3 -5 0 -11 8 -14 15 -6 26 1 26 15 0 11 -27 10 -34 -1z"/>
<path d="M6740 2416 c0 -9 7 -16 16 -16 17 0 14 22 -4 28 -7 2 -12 -3 -12 -12z"/>
<path d="M6796 2383 c-6 -14 -5 -15 5 -6 7 7 10 15 7 18 -3 3 -9 -2 -12 -12z"/>
<path d="M6845 2380 c-9 -15 4 -30 20 -23 8 3 15 9 15 13 0 12 -29 20 -35 10z"/>
<path d="M6640 2190 c0 -68 34 -100 107 -100 35 0 83 41 83 72 0 15 -7 16 -49
11 -42 -5 -57 -2 -95 21 l-46 27 0 -31z"/>
<path d="M3855 2420 c3 -5 8 -10 11 -10 2 0 4 5 4 10 0 6 -5 10 -11 10 -5 0
-7 -4 -4 -10z"/>
<path d="M5420 2280 c0 -5 5 -10 10 -10 6 0 10 5 10 10 0 6 -4 10 -10 10 -5 0
-10 -4 -10 -10z"/>
<path d="M4790 2225 c0 -8 5 -15 10 -15 6 0 10 7 10 15 0 8 -4 15 -10 15 -5 0
-10 -7 -10 -15z"/>
<path d="M4870 2209 c0 -5 5 -7 10 -4 6 3 10 8 10 11 0 2 -4 4 -10 4 -5 0 -10
-5 -10 -11z"/>
<path d="M5080 2185 c0 -22 4 -26 23 -23 14 2 22 10 22 23 0 13 -8 21 -22 23
-19 3 -23 -1 -23 -23z"/>
<path d="M5257 2107 c-12 -8 -16 -19 -11 -30 8 -21 27 -22 44 -1 11 12 11 18
-1 30 -12 12 -18 12 -32 1z"/>
<path d="M4991 1817 c-46 -56 -16 -192 51 -228 37 -20 90 -28 137 -22 64 9
121 67 121 123 0 45 1 44 -37 29 -53 -22 -143 -4 -193 37 -16 14 -30 22 -30
17 -1 -4 -9 7 -19 25 -15 29 -19 31 -30 19z"/>
<path d="M4640 1530 c0 -5 5 -10 10 -10 6 0 10 5 10 10 0 6 -4 10 -10 10 -5 0
-10 -4 -10 -10z"/>
<path d="M4288 1273 c6 -2 18 -2 25 0 6 3 1 5 -13 5 -14 0 -19 -2 -12 -5z"/>
<path d="M4048 1263 c6 -2 18 -2 25 0 6 3 1 5 -13 5 -14 0 -19 -2 -12 -5z"/>
<path d="M6410 2278 c0 -7 4 -19 9 -27 11 -17 23 1 15 23 -7 19 -24 21 -24 4z"/>
<path d="M3310 2020 c0 -5 5 -10 10 -10 6 0 10 5 10 10 0 6 -4 10 -10 10 -5 0
-10 -4 -10 -10z"/>
<path d="M3240 2000 c0 -5 5 -10 10 -10 6 0 10 5 10 10 0 6 -4 10 -10 10 -5 0
-10 -4 -10 -10z"/>
<path d="M3107 1715 c-21 -29 -80 -43 -102 -25 -22 18 -28 7 -21 -34 8 -42 38
-66 81 -65 39 0 79 48 79 95 0 46 -15 58 -37 29z"/>
<path d="M2688 1493 c6 -2 18 -2 25 0 6 3 1 5 -13 5 -14 0 -19 -2 -12 -5z"/>
<path d="M4813 1690 c0 -25 2 -35 4 -22 2 12 2 32 0 45 -2 12 -4 2 -4 -23z"/>
<path d="M4800 1590 c0 -11 4 -20 9 -20 5 0 7 9 4 20 -3 11 -7 20 -9 20 -2 0
-4 -9 -4 -20z"/>
<path d="M6863 1499 c-32 -12 -29 -15 12 -15 19 0 35 3 35 7 0 12 -25 17 -47
8z"/>
<path d="M5895 1020 c-3 -5 -1 -10 4 -10 6 0 11 5 11 10 0 6 -2 10 -4 10 -3 0
-8 -4 -11 -10z"/>
<path d="M5735 1100 c-3 -5 -1 -10 4 -10 6 0 11 5 11 10 0 6 -2 10 -4 10 -3 0
-8 -4 -11 -10z"/>
</g>
</svg>
