<svg width="96" height="96" viewBox="0 0 96 96" fill="none" xmlns="http://www.w3.org/2000/svg">
<g clip-path="url(#clip0_125_8046)">
<path d="M48.0016 90.15C65.8956 90.15 80.4016 75.644 80.4016 57.75C80.4016 39.8559 65.8956 25.35 48.0016 25.35C30.1075 25.35 15.6016 39.8559 15.6016 57.75C15.6016 75.644 30.1075 90.15 48.0016 90.15Z" fill="#FFC100"/>
<path d="M28.6484 30.75H67.3484V52.5H28.6484V30.75Z" fill="white"/>
<path d="M39.1484 40.2002V43.2002V40.2002ZM47.9984 40.2002V43.2002V40.2002ZM56.8484 40.2002V43.2002V40.2002Z" fill="white"/>
<path d="M39.1484 40.2002V43.2002M47.9984 40.2002V43.2002M56.8484 40.2002V43.2002" stroke="#193651" stroke-width="2" stroke-miterlimit="10"/>
<path d="M86.85 64.65H70.05V94.5H94.5V72.3L86.85 64.65ZM52.65 64.65H35.7V94.5H60.3V72.3L52.65 64.65ZM18.3 64.65H1.5V94.5H25.95V72.3L18.3 64.65Z" fill="white"/>
<path d="M75.6031 74.8501H88.8031V77.8501H75.6031V74.8501ZM75.6031 82.9501H88.8031V85.9501H75.6031V82.9501ZM41.4031 74.8501H54.6031V77.8501H41.4031V74.8501ZM41.4031 82.9501H54.6031V85.9501H41.4031V82.9501ZM7.20312 74.8501H20.4031V77.8501H7.20312V74.8501ZM7.20312 82.9501H20.4031V85.9501H7.20312V82.9501Z" fill="#193651"/>
<path d="M85.65 19.2C80.7 19.2 76.8 15.3 76.8 10.35C76.8 5.4 80.7 1.5 85.65 1.5C90.6 1.5 94.5 5.4 94.5 10.35C94.5 15.3 90.6 19.2 85.65 19.2ZM48 19.2C43.05 19.2 39.15 15.3 39.15 10.35C39.15 5.4 43.05 1.5 48 1.5C52.95 1.5 56.85 5.4 56.85 10.35C56.85 15.3 52.95 19.2 48 19.2ZM10.35 19.2C5.4 19.2 1.5 15.3 1.5 10.35C1.5 5.4 5.4 1.5 10.35 1.5C15.3 1.5 19.2 5.4 19.2 10.35C19.2 15.3 15.3 19.2 10.35 19.2Z" fill="#FFC100"/>
<path d="M87.15 63.15V46.5H68.85V36.75H87.15V20.55C92.1 19.8 96 15.45 96 10.35C96 4.65 91.35 0 85.65 0C79.95 0 75.3 4.65 75.3 10.35C75.3 15.6 79.2 19.8 84.15 20.55V33.75H68.85V29.25H49.5V20.55C54.45 19.8 58.35 15.45 58.35 10.35C58.35 4.65 53.7 0 48 0C42.3 0 37.65 4.65 37.65 10.35C37.65 15.6 41.55 19.8 46.5 20.55V29.25H27.15V33.75H11.85V20.55C16.8 19.8 20.7 15.45 20.7 10.35C20.7 4.65 16.05 0 10.35 0C4.65 0 0 4.65 0 10.35C0 15.6 3.9 19.8 8.85 20.55V36.75H27.15V46.5H8.85V63.15H0V96H27.45V71.7L18.9 63.15H11.85V49.5H27.15V54H46.5V63.15H34.2V96H61.65V71.7L53.1 63.15H49.5V54H68.85V49.5H84.15V63.15H68.55V96H96V71.7L87.45 63.15H87.15ZM78.3 10.35C78.3 6.3 81.6 3 85.65 3C89.7 3 93 6.3 93 10.35C93 14.4 89.7 17.7 85.65 17.7C81.6 17.7 78.3 14.4 78.3 10.35ZM40.65 10.35C40.65 6.3 43.95 3 48 3C52.05 3 55.35 6.3 55.35 10.35C55.35 14.4 52.05 17.7 48 17.7C43.95 17.7 40.65 14.4 40.65 10.35ZM3 10.35C3 6.3 6.3 3 10.35 3C14.4 3 17.7 6.3 17.7 10.35C17.7 14.4 14.4 17.7 10.35 17.7C6.3 17.7 3 14.4 3 10.35ZM24.45 72.9V93H3V66.15H17.7L24.45 72.9ZM58.8 72.9V93H37.2V66.15H51.9L58.8 72.9ZM65.85 51H30.15V32.25H65.85V51ZM93 93H71.55V66.15H86.25L93 72.9V93Z" fill="#193651"/>
</g>
<defs>
<clipPath id="clip0_125_8046">
<rect width="96" height="96" fill="white"/>
</clipPath>
</defs>
</svg>
