<svg width="50" height="60" viewBox="0 0 50 60" fill="none" xmlns="http://www.w3.org/2000/svg">
<path d="M32.9353 6.05043L35.4949 1.43286C35.5277 1.37362 35.5486 1.30849 35.5562 1.24119C35.5639 1.1739 35.5582 1.10575 35.5396 1.04063C35.5209 0.975523 35.4896 0.914726 35.4474 0.861714C35.4053 0.808703 35.3531 0.764516 35.2938 0.731675C35.1742 0.665349 35.0331 0.649268 34.9016 0.686967C34.7701 0.724667 34.659 0.81306 34.5927 0.932701L32.0048 5.60145C29.7967 4.63347 27.412 4.13371 25.0011 4.13371C22.5902 4.13371 20.2055 4.63347 17.9975 5.60145L15.4095 0.932701C15.3432 0.81306 15.232 0.724667 15.1005 0.686967C14.9691 0.649268 14.828 0.665349 14.7083 0.731675C14.5887 0.798 14.5003 0.909136 14.4626 1.04063C14.4249 1.17213 14.441 1.31322 14.5073 1.43286L17.0669 6.05046C14.6304 7.25145 12.5718 9.10025 11.1168 11.3941C9.66178 13.6879 8.8666 16.3381 8.81847 19.0541H41.1838C41.1357 16.3381 40.3405 13.6879 38.8855 11.394C37.4305 9.10022 35.3718 7.25142 32.9353 6.05043ZM17.532 13.132C17.2647 13.132 17.0035 13.0528 16.7812 12.9043C16.559 12.7558 16.3857 12.5447 16.2834 12.2978C16.1812 12.0508 16.1544 11.7791 16.2065 11.5169C16.2587 11.2548 16.3874 11.0139 16.5764 10.8249C16.7654 10.6359 17.0062 10.5072 17.2684 10.4551C17.5305 10.4029 17.8023 10.4297 18.0492 10.532C18.2962 10.6343 18.5072 10.8075 18.6557 11.0297C18.8042 11.252 18.8835 11.5133 18.8835 11.7806C18.8831 12.1389 18.7406 12.4824 18.4872 12.7358C18.2339 12.9891 17.8904 13.1316 17.532 13.132ZM32.4701 13.132C32.2028 13.132 31.9415 13.0528 31.7193 12.9043C31.497 12.7558 31.3238 12.5447 31.2215 12.2978C31.1192 12.0508 31.0925 11.7791 31.1446 11.5169C31.1968 11.2548 31.3255 11.0139 31.5145 10.8249C31.7035 10.6359 31.9443 10.5072 32.2065 10.4551C32.4686 10.4029 32.7404 10.4297 32.9873 10.532C33.2343 10.6343 33.4453 10.8075 33.5938 11.0297C33.7423 11.252 33.8216 11.5133 33.8216 11.7806C33.8212 12.1389 33.6787 12.4824 33.4253 12.7358C33.1719 12.9891 32.8284 13.1316 32.4701 13.132ZM8.81823 43.7907C8.81823 44.8283 9.23042 45.8234 9.96413 46.5571C10.6978 47.2909 11.693 47.703 12.7306 47.703H15.3268V55.7056C15.3255 56.1828 15.4184 56.6556 15.6002 57.0969C15.7819 57.5382 16.0489 57.9393 16.3859 58.2772C16.7229 58.6152 17.1233 58.8833 17.5641 59.0662C18.0049 59.2491 18.4775 59.3433 18.9547 59.3433C19.432 59.3433 19.9045 59.2491 20.3453 59.0662C20.7861 58.8833 21.1865 58.6152 21.5235 58.2772C21.8605 57.9393 22.1275 57.5382 22.3093 57.0969C22.491 56.6556 22.5839 56.1828 22.5826 55.7056V47.703H27.4196V55.7056C27.4183 56.1828 27.5112 56.6556 27.6929 57.0969C27.8746 57.5382 28.1417 57.9393 28.4787 58.2772C28.8157 58.6152 29.216 58.8833 29.6568 59.0662C30.0976 59.2491 30.5702 59.3433 31.0474 59.3433C31.5247 59.3433 31.9972 59.2491 32.438 59.0662C32.8788 58.8833 33.2792 58.6152 33.6162 58.2772C33.9532 57.9393 34.2203 57.5382 34.402 57.0969C34.5837 56.6556 34.6766 56.1828 34.6753 55.7056V47.703H37.2717C38.3093 47.703 39.3044 47.2909 40.0381 46.5571C40.7718 45.8234 41.184 44.8283 41.184 43.7907V20.3343H8.81823V43.7907ZM3.83882 19.7119C2.87698 19.713 1.95485 20.0956 1.27473 20.7757C0.594606 21.4558 0.212038 22.378 0.210951 23.3398V38.4557C0.209657 38.9329 0.30254 39.4057 0.484278 39.847C0.666017 40.2883 0.933039 40.6894 1.27005 41.0274C1.60706 41.3653 2.00743 41.6334 2.44822 41.8163C2.88902 41.9993 3.36158 42.0934 3.83883 42.0934C4.31608 42.0934 4.78864 41.9993 5.22944 41.8163C5.67023 41.6334 6.0706 41.3653 6.40761 41.0274C6.74462 40.6894 7.01164 40.2883 7.19338 39.847C7.37512 39.4057 7.468 38.9329 7.46671 38.4557V23.3398C7.46562 22.378 7.08305 21.4558 6.40292 20.7757C5.7228 20.0956 4.80066 19.713 3.83882 19.7119ZM46.1633 19.7119C45.2015 19.713 44.2794 20.0956 43.5992 20.7757C42.9191 21.4558 42.5365 22.378 42.5355 23.3398V38.4557C42.5342 38.9329 42.627 39.4057 42.8088 39.847C42.9905 40.2883 43.2575 40.6894 43.5946 41.0274C43.9316 41.3653 44.3319 41.6334 44.7727 41.8163C45.2135 41.9993 45.6861 42.0934 46.1633 42.0934C46.6406 42.0934 47.1131 41.9993 47.5539 41.8163C47.9947 41.6334 48.3951 41.3653 48.7321 41.0274C49.0691 40.6894 49.3361 40.2883 49.5179 39.847C49.6996 39.4057 49.7925 38.9329 49.7912 38.4557V23.3398C49.7901 22.378 49.4076 21.4558 48.7274 20.7757C48.0473 20.0956 47.1252 19.713 46.1633 19.7119Z" fill="#0092E5"/>
</svg>
