<svg width="161" height="56" viewBox="0 0 161 56" fill="none" xmlns="http://www.w3.org/2000/svg">
<g opacity="0.3">
<path d="M252.443 28.7851C252.059 28.4831 251.642 28.1896 251.138 27.8185C251.73 27.7611 252.219 27.6975 252.803 27.6086C252.069 24.8688 251.36 22.2235 250.651 19.5781C249.318 19.7666 247.919 21.2216 247.692 22.7676C247.412 24.4963 247.78 26.1193 250.415 27.6408C247.676 27.4971 245.788 28.5095 244.778 31.0414C244.829 29.8463 244.692 28.7019 244.081 27.6841C243.463 26.6348 242.51 25.9786 241.328 25.7217C239.685 25.3855 237.325 26.1528 236.471 28.0019C236.043 28.9265 235.908 29.8066 236.075 30.8082C236.337 32.2906 237.193 33.3438 238.456 34.1529C236.398 34.0294 234.984 35.0497 233.73 36.6683C233.62 36.2589 233.521 36.0154 233.477 35.7235C233.312 34.8563 232.849 34.1366 232.246 33.5219C230.387 31.6235 227.312 31.7385 225.542 33.698C224.192 35.2075 223.884 37.5852 225.251 39.4128C225.518 39.78 225.777 40.1157 226.092 40.5374C225.439 40.7461 224.801 40.8834 224.26 41.1298C223.695 41.4161 223.236 41.8429 222.665 42.2321C222.112 40.4225 221.04 39.191 219.35 38.4286C220.711 38.4689 221.925 38.2113 222.947 37.3637C223.96 36.4846 224.597 35.3351 224.471 33.9849C224.267 31.7107 223.125 30.0928 220.335 29.7602C218.766 29.573 216.592 31.0331 216.099 32.718C215.524 34.7285 216.085 37.0758 219.208 38.3993C217.918 38.3736 216.801 38.2342 215.774 38.813C214.78 39.3833 214.081 40.178 213.419 41.233C213.387 40.7354 213.397 40.3951 213.344 40.0718C212.991 38.3774 211.998 37.192 210.414 36.5702C209.101 36.0782 207.814 36.1868 206.529 36.936C205.661 37.4726 205.111 38.1936 204.659 39.0237C204.612 39.1036 204.463 39.1772 204.377 39.234C204.327 39.0451 204.268 38.8247 204.289 38.6503C204.416 37.7387 204.102 36.9452 203.653 36.154C202.652 34.431 200.292 33.8143 198.643 34.4589C198.305 34.5832 198.032 34.8251 197.711 35.0124C196.263 35.9067 195.706 37.6084 195.994 39.1853C196.186 40.2813 196.754 41.1417 197.666 41.7748C197.835 41.8985 197.98 42.0622 198.116 42.1943C197.117 42.4958 196.164 42.7175 195.293 43.1197C194.39 43.5303 193.86 44.4487 193.275 45.4154C193.197 44.9976 193.106 44.7856 193.11 44.5483C193.17 43.8909 192.924 43.3493 192.638 42.7847C191.589 40.6354 189.365 40.0165 187.483 40.5543C186.255 40.8833 185.257 41.691 184.739 42.9097C184.237 44.057 184.146 45.2289 184.615 46.3519C184.895 47.0195 185.278 47.6931 185.88 48.1733C185.96 48.2195 185.97 48.3853 186.061 48.5974C184.513 48.742 183.34 49.5289 182.331 50.6767C182.224 50.4018 182.159 50.2842 182.116 50.1268C181.781 48.4954 180.759 47.4528 179.237 46.8141C179.046 46.7303 178.87 46.5751 178.662 46.4284C178.441 46.4874 178.229 46.578 177.983 46.5426C176.851 46.4746 175.844 46.7447 174.906 47.401C172.232 49.2649 172.541 53.0637 174.673 54.7203C174.801 54.8209 174.906 54.9615 175.1 55.1797C174.281 55.3991 173.563 55.4902 172.904 55.8018C172.236 56.082 171.651 56.5426 171.072 56.9003C170.743 56.1783 170.486 55.4708 170.097 54.9001C169.699 54.2978 169.106 53.8491 168.543 53.2575C169.11 53.1056 169.582 52.9791 170.054 52.8525C171.581 52.376 172.487 51.222 172.731 49.739C173.071 47.859 172.443 46.272 170.732 45.1778C169.389 44.3225 167.35 44.3964 165.936 45.4166C163.357 47.2552 163.92 51.1209 165.965 52.3281C166.085 52.3973 166.167 52.5778 166.329 52.8044C164.136 52.6831 162.804 53.8839 161.653 55.5087C161.564 53.541 160.719 52.1475 159.067 51.2737C158.436 50.9364 157.771 50.8448 157.082 50.7931C156.218 50.7206 155.471 50.9546 154.751 51.4175C153.882 51.9541 153.302 52.6835 152.826 53.5535C152.78 53.6334 152.654 53.6672 152.568 53.724C152.564 53.9613 152.6 54.2217 152.596 54.459C152.573 55.005 152.48 55.5365 152.552 56.0572C152.69 57.2016 153.369 58.0997 154.212 58.8526C154.349 58.9848 154.485 59.1169 154.71 59.3266C153.923 59.5376 153.205 59.6288 152.577 59.9319C151.95 60.2351 151.404 60.7188 150.842 61.1395C149.407 57.1699 146.113 56.4661 143.544 57.9644C142.518 58.5432 141.845 59.4324 141.508 60.5689C140.893 62.5564 141.546 64.2378 143.043 65.7943C141.578 66.1195 140.409 66.669 139.581 67.7348C139.195 66.9267 138.921 66.1563 138.484 65.531C138.046 64.9056 137.382 64.4423 136.787 63.8592C137.016 63.8316 137.196 63.7495 137.371 63.7703C138.194 63.8197 138.868 63.4367 139.461 63.0075C141.048 61.8737 141.518 60.2287 141.218 58.3515C141.148 57.9652 140.881 57.598 140.685 57.2454C139.869 55.7091 138.536 55.0197 136.835 54.9693C135.371 54.9227 134.236 55.5982 133.345 56.6809C132.353 57.8917 132.195 59.3179 132.614 60.7581C132.891 61.6629 133.473 62.4519 134.274 63.0473C134.394 63.1165 134.436 63.274 134.59 63.4691C133.771 63.6885 132.99 63.7965 132.331 64.1081C131.68 64.4512 131.12 65.0063 130.417 65.5322C130.316 65.1543 130.231 64.8394 130.147 64.5245C129.852 63.4223 129.143 62.6671 128.216 62.1053C125.787 60.5961 122.35 61.7532 121.385 64.577C121.348 64.6883 121.247 64.8165 121.178 64.9363C121.127 64.7474 121.005 64.5438 121.034 64.401C121.201 63.5124 120.919 62.7105 120.637 61.9086C120.428 61.2557 119.961 60.7732 119.408 60.3476C118.063 59.3579 116.628 59.1685 115.073 59.7878C113.667 60.3334 112.807 61.4076 112.537 62.7961C112.195 64.5418 112.657 66.1394 114.17 67.2528C114.29 67.3219 114.341 67.5109 114.431 67.7229C112.61 67.6033 111.417 68.5644 110.259 69.786C109.682 67.004 108.005 65.5296 105.316 65.5749C103.363 65.5919 101.968 66.8095 101.311 68.6395C100.601 70.6523 101.24 72.4052 102.878 73.8565C102.634 73.9555 102.445 74.0061 102.256 74.0567C101.169 74.2807 100.138 74.5906 99.3932 75.4652C99.2842 75.5619 99.0868 75.581 98.9923 75.6064C98.5924 74.8697 98.3038 74.1707 97.8432 73.5853C97.3826 72.9999 96.7353 72.5996 96.197 72.1025C98.3183 72.2091 100.131 70.9133 100.646 69.0541C101.221 67.0435 100.412 65.0326 98.4976 64.0604C96.663 63.1344 94.7083 63.5231 93.2654 65.1924C92.7306 65.8419 92.427 66.5983 92.3545 67.4616C92.2905 68.3563 92.4784 69.1835 92.8868 69.9517C93.2867 70.6884 93.8963 71.2001 94.6718 71.7011C94.2939 71.8023 94.0589 71.9328 93.8531 71.9205C93.1872 71.8289 92.6541 72.1067 92.0895 72.393C91.2499 72.7867 90.5954 73.3672 90.1343 74.1658C90.0191 74.3654 89.8953 74.5336 89.6395 74.8384C89.5836 71.9844 88.2731 70.2428 85.6328 69.8365C83.5868 69.5071 81.9206 70.5949 81.1205 72.3956C80.0607 74.7386 80.8527 76.6865 82.9757 78.3116C82.0625 78.5563 81.2729 78.6328 80.5908 78.9844C79.9317 79.296 79.3801 79.8826 78.7087 80.4C78.6158 80.0536 78.5483 79.8017 78.4724 79.5183C78.1365 77.8869 77.0831 76.8528 75.6018 76.2371C75.4905 76.1994 75.3937 76.0903 75.2739 76.0212C74.9337 76.0111 74.585 75.9695 74.2133 75.9678C73.264 75.9522 72.3423 76.1654 71.568 76.6766C70.6216 77.3015 69.8686 78.1446 69.5718 79.3042C69.5572 79.3756 69.3997 79.4178 69.3137 79.4746C69.2799 79.3486 69.2462 79.2227 69.2838 79.1113C69.4907 78.2458 69.1853 77.4838 68.9659 76.6651C68.814 76.0982 68.4816 75.6135 68.0716 75.217C65.7905 73.128 62.6874 73.892 61.3688 75.8992C60.5743 77.0909 60.4687 78.3343 60.8945 79.6716C61.1876 80.6394 61.6904 81.3823 62.5458 81.9294C62.7539 82.0761 62.9305 82.2313 63.1386 82.3781C62.2799 82.5744 61.3958 82.6763 60.6423 83.0132C59.8887 83.3501 59.2825 83.9851 58.5481 84.5194C58.3388 83.3604 57.8861 82.3004 56.98 81.5643C56.0571 80.7653 54.9351 80.3571 53.7654 80.4005C51.9321 80.4867 50.5639 81.4271 49.8015 83.1165C48.8254 85.2682 49.4892 87.1155 51.186 88.7873C50.4302 88.9898 49.7121 89.081 49.0845 89.3841C48.4884 89.6789 47.9345 90.1311 47.3407 90.5602C47.267 90.4112 47.1703 90.3021 47.0966 90.1531C46.8187 89.62 46.6039 89.07 46.2715 88.5853C45.7602 87.8109 44.97 87.3813 44.1484 86.9602C44.037 86.9225 43.9633 86.7735 43.8751 86.6959C43.6062 86.7004 43.3374 86.705 43.0456 86.7494C42.382 86.7922 41.6447 86.686 41.0632 86.9093C40.1438 87.2569 39.298 87.7536 38.671 88.5629C38.5935 88.6512 38.5074 88.708 38.3753 88.8446C38.2993 88.5612 38.2403 88.3408 38.1896 88.1518C38.0017 87.3246 37.5557 86.6678 37.0068 86.0048C35.4674 84.2908 32.4093 83.9627 30.5131 85.9559C28.7722 87.7725 28.782 90.7063 30.7729 92.4681C30.8697 92.5771 30.9664 92.6862 31.12 92.8814C30.3012 93.1008 29.52 93.2088 28.861 93.5204C28.1704 93.8405 27.6104 94.3956 26.9389 94.913C26.6638 93.1303 25.6396 91.9534 24.1138 91.0458C25.4663 91.0547 26.6315 90.7425 27.588 89.7774C28.5445 88.8123 28.9757 87.6504 28.8187 86.3086C28.6319 84.6035 27.435 83.0341 25.3807 82.6732C23.3977 82.327 21.8007 83.2949 20.9584 84.9382C20.4074 86.031 20.3479 87.1945 20.826 88.349C21.2957 89.472 22.1472 90.2564 23.2399 90.8075C20.581 90.7098 18.6606 91.7307 17.6536 94.397C17.5833 93.5045 17.6726 92.7042 17.4555 92.0199C17.2383 91.3355 16.9644 90.5651 16.1888 90.0641C16.2164 90.2929 16.1872 90.4358 16.2294 90.5932C16.3222 90.9397 16.3835 91.2945 16.5163 91.664C16.8892 92.6779 16.8297 93.8414 17.5952 94.6827C17.6435 94.7372 17.6688 94.8317 17.6542 94.9031C17.4474 95.7686 17.8557 96.5368 18.0667 97.3241C18.1595 97.6705 18.3468 97.9916 18.5571 98.2727C18.8727 98.6945 19.2427 99.0679 19.6297 99.5042C19.3232 99.6201 19.0482 99.7275 18.7502 99.8749C19.3071 101.953 19.8556 104 20.4294 106.142C20.8073 106.041 21.0907 105.965 21.3741 105.889C24.4603 105.062 27.5235 104.275 30.5928 103.385C31.5375 103.132 32.4547 102.65 33.3657 102.27C33.4833 102.205 33.5609 102.117 33.6699 102.02C34.1463 101.656 34.6141 101.261 35.1449 100.849C35.2861 101.25 35.4189 101.619 35.5432 101.957C36.4357 101.887 44.4891 99.695 44.9823 99.3941C44.9451 98.1214 44.1628 97.2172 43.3635 96.25C44.4866 95.7803 45.4836 95.3444 46.268 94.4929C46.5251 95.2004 46.6539 95.8072 46.9633 96.3318C47.2811 96.888 47.7709 97.3305 48.2231 97.8844C47.3121 98.2635 46.2768 98.3047 45.6228 99.3912C52.1102 97.6529 58.4715 95.9484 64.8329 94.2439C64.7541 93.3199 63.9178 92.9702 63.6838 92.2228C64.912 91.8938 65.8162 91.1114 66.7665 90.2492C66.8655 90.4927 66.9308 90.6103 66.9729 90.7677C67.1226 91.2002 67.2008 91.618 67.3819 92.042C67.86 93.1965 68.2109 93.3725 69.3762 93.0603C74.037 91.8114 78.6977 90.5626 83.3585 89.3137C83.6734 89.2293 83.9799 89.1135 84.3179 88.9891C84.1391 88.6995 83.9771 88.4729 83.855 88.2694C84.4826 87.9662 85.041 87.7828 85.5257 87.4504C86.0189 87.1495 86.4783 86.7226 86.9777 86.3188C87.1864 86.9717 87.3697 87.5301 87.593 88.1116C87.8534 88.0756 88.0823 88.048 88.2713 87.9974C93.7509 86.5291 99.2619 85.0524 104.742 83.5842C105.119 83.4829 105.503 83.2787 105.839 83.02C106.261 82.7045 106.634 82.3344 107.071 81.9475C107.187 82.254 107.294 82.5289 107.393 82.7724C108.317 82.6936 116.307 80.5188 116.824 80.178C116.72 79.6657 116.585 79.1618 116.167 78.7339C115.797 78.3605 115.473 77.9073 115.077 77.4394C116.417 77.148 117.447 76.3319 118.49 75.31C118.743 76.7609 119.238 77.9784 120.447 78.8359C119.679 79.2442 118.824 79.2032 118.232 79.7668C118.533 79.7538 118.793 79.7178 119.076 79.6419C119.738 79.4647 120.399 79.2875 121.029 79.1187C125.973 77.7939 130.917 76.4691 135.83 75.1527C136.082 75.0852 136.294 74.9947 136.601 74.8788C136.18 74.3165 135.816 73.8402 135.492 73.3869C136.12 73.0838 136.661 72.8374 137.154 72.5365C137.647 72.2356 138.107 71.8087 138.606 71.4049C138.971 72.3873 139.066 73.3742 139.893 74.0642C145.152 72.655 150.442 71.2374 155.733 69.8198C155.714 69.6224 155.695 69.425 155.699 69.1877C156.921 68.9615 157.859 68.3051 158.744 67.3254C158.927 67.8838 159.094 68.3793 159.3 68.8977C160.182 68.6615 160.969 68.4505 161.788 68.2311C162.607 68.0117 163.457 67.7839 164.276 67.5645C165.095 67.3451 165.882 67.1342 166.701 66.9148C167.519 66.6954 168.307 66.4844 169.125 66.265C169.944 66.0456 170.795 65.8178 171.613 65.5984C172.432 65.379 173.219 65.1681 174.038 64.9487C174.857 64.7293 175.653 64.5498 176.463 64.2989C177.273 64.048 178.174 64.0092 178.869 63.4518C179.726 63.6272 180.486 63.1873 181.281 63.0079C182.109 62.82 182.887 62.5775 183.706 62.3581C184.525 62.1387 185.375 61.9109 186.194 61.6915C186.981 61.4806 187.786 61.3326 188.508 61.0041C188.505 60.3636 188.175 60.0132 187.836 59.6314C187.537 59.2726 187.239 58.9139 186.843 58.446C188.311 58.2553 189.27 57.4246 190.281 56.4111C190.399 56.852 190.475 57.1354 190.542 57.3873C190.745 58.1431 191.191 58.7999 191.715 59.3685C192.142 59.8279 192.547 59.9555 193.145 59.7952C197.861 58.4979 202.561 57.2721 207.285 56.0064C207.537 55.9389 207.749 55.8483 208.15 55.7072C207.755 55.2393 207.439 54.8176 207.101 54.4357C207.737 54.1641 208.398 53.9869 208.954 53.6691C209.479 53.3597 209.961 52.8929 210.484 52.4492C210.659 52.9761 210.794 53.48 210.992 53.9669C211.274 54.7689 211.465 54.8526 212.284 54.6332C215.654 53.7304 219.032 52.859 222.424 51.9161C224.488 51.4306 226.586 51.0711 228.506 50.0502C228.836 49.8944 229.125 49.7156 229.438 49.4968C229.86 49.1813 230.281 48.8657 230.726 48.5103C230.867 48.9112 230.992 49.2492 231.108 49.5557C232.323 49.4324 256.366 42.9226 256.883 42.5818C256.824 42.3614 256.756 42.1094 256.689 41.8575C255.693 38.1415 254.706 34.4569 253.71 30.7409C253.49 29.9221 253.084 29.2883 252.443 28.7851ZM24.8955 103.662C24.5619 102.165 23.7458 101.135 22.6001 100.261C23.253 100.052 23.8913 99.915 24.4559 99.6287C25.0205 99.3424 25.4799 98.9155 26.1052 98.4779C26.2876 99.9142 27.0721 100.953 28.1256 101.987C26.849 102.261 25.789 102.714 24.8955 103.662ZM37.5205 95.858C36.9643 96.1758 36.5533 96.6572 36.0079 97.1409C35.7362 96.5049 35.5275 95.852 35.1698 95.2728C34.8205 94.7251 34.3537 94.2426 33.8531 93.6341C35.4069 93.3866 36.6452 92.7172 37.5342 91.5002C37.7513 92.1846 37.8886 92.8229 38.1833 93.4189C38.4781 94.015 38.8903 94.5459 39.3048 95.2111C38.6835 95.4114 38.0452 95.5486 37.5205 95.858ZM56.2106 93.179C55.922 92.48 55.7847 91.8417 55.467 91.2855C55.1492 90.7294 54.6908 90.2784 54.2386 89.7245C54.8285 89.5327 55.5067 89.4185 56.0629 89.1007C56.619 88.7829 57.07 88.3245 57.6469 87.8324C57.8703 88.4139 58.0705 89.0353 58.3484 89.5684C58.6262 90.1015 59.0301 90.6008 59.4592 91.1946C58.1281 91.5176 57.0304 92.0817 56.2106 93.179ZM71.2835 84.6848C69.8327 84.9385 68.5775 85.5449 67.5479 86.8671C67.1069 85.0951 66.2148 83.7815 64.5631 82.9077C65.004 82.7896 65.279 82.6821 65.5708 82.6377C66.6354 82.4537 67.5779 82.0662 68.2195 81.1854C68.5445 80.7608 68.7812 80.2586 69.0663 79.8109C69.1439 79.7226 69.1815 79.6113 69.2591 79.523C69.3013 79.6804 69.4149 79.8525 69.3857 79.9954C69.2262 81.7933 69.8286 83.2857 71.216 84.4328C71.256 84.4559 71.2414 84.5273 71.2835 84.6848ZM76.7214 88.7294C76.1264 88.1463 76.3102 87.3207 75.709 86.8405C75.2276 86.4295 74.8384 85.8587 74.3547 85.3132C75.6082 85.0786 76.7942 84.5921 77.7085 83.4695C77.9509 84.2484 78.0651 84.9266 78.3599 85.5227C78.6462 86.0873 79.073 86.5467 79.5191 87.2035C78.3853 87.5073 77.4344 87.8633 76.7214 88.7294ZM89.3847 81.3197C88.7971 81.6459 88.323 82.1442 87.7461 82.6363C87.3631 81.9627 87.3956 81.0764 86.8006 80.4932C86.2455 79.9332 85.7219 79.3647 85.1268 78.7815C86.9855 78.7898 88.2254 77.7488 89.2274 76.1977C89.4637 77.0794 89.7061 77.8583 89.9171 78.6456C90.168 79.456 90.849 79.9823 91.4609 80.6284C90.7136 80.8624 90.0039 80.985 89.3847 81.3197ZM98.2017 83.6151C97.7316 83.8761 97.2953 84.263 96.7644 84.6753C96.4646 83.3043 95.6968 82.3286 94.6058 81.4059C95.9684 81.0745 96.9946 80.4957 97.9596 79.5621C98.2049 80.9815 98.8635 82.0539 99.9315 83.0166C99.2786 83.2253 98.7033 83.3457 98.2017 83.6151ZM107.978 78.5316C107.567 77.1229 107.11 75.794 105.758 74.9073C106.497 74.6418 107.167 74.4961 107.731 74.2098C108.288 73.892 108.801 73.4168 109.301 73.0129C109.604 73.6405 109.853 74.3165 110.21 74.8957C110.568 75.4749 111.012 75.9973 111.489 76.6457C110.093 76.851 108.892 77.409 107.978 78.5316ZM119.302 71.9194C119.088 71.3694 118.93 70.9055 118.717 70.4899C118.504 70.0743 118.22 69.6442 117.922 69.2854C117.623 68.9266 117.207 68.6331 116.765 68.2451C117.08 68.1607 117.269 68.1101 117.458 68.0595C119.003 67.7804 120.097 66.9474 120.761 65.5207C120.844 65.3295 120.815 64.9662 121.195 64.9993C121.162 65.8856 121.224 66.7466 121.483 67.5884C121.701 68.2728 122.027 68.8605 122.534 69.366C122.63 69.4751 122.704 69.6241 122.866 69.8507C121.384 70.1129 120.231 70.7254 119.302 71.9194ZM128.375 73.91C128.095 73.2425 127.912 72.6841 127.602 72.1594C127.293 71.6347 126.843 71.2152 126.399 70.6928C127.613 70.4352 128.681 70.0139 129.453 68.8621C129.727 69.6325 129.887 70.2308 130.157 70.7324C130.426 71.2341 130.813 71.6704 131.242 72.2642C130.148 72.5911 129.174 72.9871 128.375 73.91ZM148.527 69.7591C148.224 68.6254 147.616 67.742 146.859 66.9322C147.876 66.322 148.8 65.737 149.786 65.1352C150.018 66.2543 150.526 67.2659 151.42 68.2078C150.303 68.5746 149.32 68.9391 148.527 69.7591ZM159.663 63.7037C159.258 62.1921 158.589 60.9538 157.183 60.1154C157.966 59.6357 158.812 59.6452 159.484 59.1277C160.124 58.6187 160.621 58.0805 161.145 57.265C161.349 58.1552 161.134 58.9892 161.66 59.6922C162.169 60.3321 162.623 61.0204 163.118 61.7317C161.85 62.0378 160.584 62.4782 159.663 63.7037ZM168.64 65.5852C168.367 64.443 167.671 63.482 166.611 62.5508C167.942 62.2279 168.912 61.5631 169.839 60.7408C170.056 61.4252 170.162 62.0719 170.448 62.6365C170.695 63.1781 171.122 63.6375 171.446 64.0907C170.497 64.5812 169.611 65.0548 168.64 65.5852ZM179.818 59.6872C179.482 58.0558 178.758 56.8659 177.384 56.0191C178.194 55.7682 178.904 55.6456 179.563 55.334C180.159 55.0392 180.673 54.564 181.329 54.118C181.512 55.5542 182.336 56.6159 183.398 57.6815C181.907 57.9122 180.843 58.6023 179.818 59.6872ZM191.203 52.9238C190.846 51.4667 190.068 50.3252 188.842 49.4047C190.967 48.7679 191.305 48.6436 192.775 46.6971C192.986 47.4844 193.117 48.2256 193.405 48.9246C193.694 49.6236 194.131 50.2489 194.571 51.0086C193.255 51.2601 192.077 51.7782 191.203 52.9238ZM200.297 55.2461C200.029 53.8667 199.307 52.8112 198.325 51.7917C199.553 51.4626 200.607 51.1127 201.406 50.1898C201.738 51.5524 202.428 52.6163 203.553 53.665C202.253 53.9795 201.159 54.3063 200.297 55.2461ZM204.082 45.1862C203.494 45.5124 202.981 45.9876 202.341 46.4966C201.971 44.7393 201.104 43.5201 199.446 42.7493C199.698 42.6818 199.847 42.6081 199.982 42.6058C201.505 42.8728 203.332 41.5055 203.896 40.207C204.017 39.9044 204.178 39.6249 204.331 39.3139C204.332 39.82 204.333 40.3262 204.302 40.8407C204.227 41.5696 204.413 42.2624 204.77 42.8416C205.088 43.3978 205.563 43.9117 206.024 44.4971C205.34 44.7142 204.67 44.8599 204.082 45.1862ZM211.343 48.9787C210.963 47.5616 210.499 46.3357 209.276 45.5496C210.053 45.1727 210.792 44.9072 211.386 44.4781C211.979 44.0489 212.428 43.4562 212.925 42.9179C213.071 43.5877 213.131 44.3143 213.411 44.9818C213.691 45.6493 214.214 46.2178 214.669 46.9061C213.401 47.2121 212.263 47.7532 211.343 48.9787ZM220.439 50.9293C220.19 50.2534 220.046 49.718 219.754 49.2564C219.501 48.8177 219.091 48.4213 218.793 48.0625C219.779 47.4607 220.679 46.9157 221.689 46.274C221.921 47.3931 222.366 48.4216 223.377 49.2982C222.188 49.6504 221.206 50.0149 220.439 50.9293ZM231.503 44.8593C231.178 43.3938 230.677 42.2793 229.5 41.4133C230.199 41.1248 230.86 40.9476 231.439 40.5898C231.987 40.2406 232.429 39.7507 233.029 39.2187C233.203 40.6234 233.902 41.7189 234.846 42.8497C233.467 43.1181 232.466 43.7913 231.503 44.8593ZM241.887 45.8235C241.449 46.076 241.067 46.4146 240.568 46.8184C240.241 45.7246 239.719 44.7844 238.916 44.0545C239.91 43.4842 240.851 42.9622 241.877 42.3835C242.078 43.511 242.623 44.4113 243.451 45.2357C242.83 45.4359 242.326 45.5709 241.887 45.8235ZM245.411 36.6774C244.987 36.8585 244.515 36.9851 244.139 37.2207C243.732 37.4648 243.381 37.795 242.914 38.1904C242.46 36.6242 241.585 35.3736 240.148 34.5436C241.172 34.3366 242.134 34.1464 242.931 33.5952C243.697 33.0525 244.261 32.2601 244.657 31.3439C244.674 33.297 245.098 35.006 246.811 36.2347C246.366 36.5901 245.835 36.4963 245.411 36.6774ZM251.704 40.763C251.353 39.203 250.684 37.9647 249.269 37.0949C250.08 36.844 250.789 36.7213 251.385 36.4266C251.99 36.1634 252.512 35.7196 253.146 35.3135C253.346 35.9349 253.452 36.5816 253.747 37.1777C254.033 37.7423 254.46 38.2017 254.929 38.8186C253.63 39.1331 252.612 39.7433 251.704 40.763Z" fill="#E79B06"/>
<path d="M152.513 53.7727C152.494 53.5753 152.435 53.3549 152.447 53.149C152.553 51.9056 152.108 50.8771 151.231 49.9982C150.483 49.2199 149.584 48.8871 148.506 48.7708C146.866 48.569 144.981 49.8503 144.403 51.2202C143.842 52.6532 143.888 53.9573 144.717 55.2878C145.66 56.7904 147.601 57.4853 149.215 57.0865C150.515 56.772 151.451 55.9812 152.039 54.7771C152.224 54.4577 152.368 54.1152 152.513 53.7727Z" fill="#E79B06"/>
<path d="M124.1 58.0785C124.691 60.2829 126.729 61.5931 129.1 60.9917C131.493 60.3504 132.65 58.1166 132.036 55.9521C131.397 53.6931 129.306 52.5657 127.013 53.0788C124.708 53.7977 123.509 55.8741 124.1 58.0785Z" fill="#E79B06"/>
<path d="M158.701 42.7299C156.517 43.1463 155.325 45.6259 155.84 47.5469C156.38 49.5623 158.633 50.9163 160.689 50.3993C162.83 49.8255 164.056 47.4719 163.541 45.5509C163.033 43.527 160.737 42.0156 158.701 42.7299Z" fill="#E79B06"/>
<path d="M135.444 51.6637C136.018 53.8051 138.148 54.9555 140.149 54.4869C142.182 54.0098 143.513 51.7968 142.996 49.7414C142.495 47.749 140.306 46.3781 138.259 46.9266C136.163 47.4205 134.895 49.6167 135.444 51.6637Z" fill="#E79B06"/>
<path d="M115.33 55.7019C116.092 57.7927 117.669 58.8892 119.97 58.4076C121.956 58.0104 123.222 55.6799 122.707 53.7589C122.192 51.8378 120.051 50.5215 118.075 51.0846C115.888 51.7383 114.991 53.43 115.33 55.7019Z" fill="#E79B06"/>
<path d="M95.3713 59.6996C95.6487 61.6167 98.0484 62.7626 99.7574 62.3384C101.647 61.8321 102.82 59.6613 102.379 57.8893C101.913 56.0228 99.7483 54.7464 97.8588 55.2527C96.1582 55.7084 94.6698 57.9636 95.3713 59.6996Z" fill="#E79B06"/>
<path d="M147.102 45.163C147.583 46.958 149.779 48.226 151.551 47.7849C153.409 47.2871 154.606 45.0763 154.141 43.3442C153.627 41.4232 151.445 40.0839 149.669 40.7622C147.801 41.0942 146.638 43.4309 147.102 45.163Z" fill="#E79B06"/>
<path d="M133.91 47.4505C133.393 45.3951 131.461 44.36 129.572 44.8663C127.619 45.3894 126.599 47.2493 127.019 49.1956C127.597 51.0997 129.419 52.2316 131.34 51.7169C133.238 51.2421 134.41 49.4429 133.91 47.4505Z" fill="#E79B06"/>
<path d="M106.967 53.2171C107.456 55.0436 109.152 56.2093 111.168 55.6692C113.057 55.1629 114.103 53.3976 113.589 51.4766C113.091 49.6185 111.191 48.5749 109.404 49.0874C107.569 49.5453 106.509 51.3821 106.967 53.2171Z" fill="#E79B06"/>
<path d="M165.265 36.6174C164.809 34.9169 162.953 33.659 161.121 34.2513C159.3 34.6378 158.234 36.5775 158.715 38.3726C159.196 40.1676 161.072 41.2511 162.836 40.7786C164.725 40.2723 165.721 38.318 165.265 36.6174Z" fill="#E79B06"/>
<path d="M90.9341 59.6406C92.6346 59.185 93.7474 57.1654 93.3086 55.5278C92.8552 53.9617 91.0077 52.7353 89.2442 53.2078C87.6381 53.6382 86.3026 55.5824 86.9242 57.2723C87.2224 59.015 89.4225 60.0457 90.9341 59.6406Z" fill="#E79B06"/>
<path d="M141.077 38.678C139.24 39.0015 138.264 41.1532 138.686 42.7278C139.142 44.4284 141.081 45.495 142.727 45.0878C144.365 44.649 145.551 42.7784 145.096 41.0779C144.686 39.2974 142.681 38.1133 141.077 38.678Z" fill="#E79B06"/>
<path d="M120.916 42.7974C119.184 43.2615 118.138 45.0269 118.594 46.7274C119.01 48.4049 120.735 49.4277 122.524 49.0497C124.193 48.6024 125.27 46.8286 124.895 45.1742C124.47 43.4652 122.585 42.3502 120.916 42.7974Z" fill="#E79B06"/>
<path d="M100.529 47.0795C98.7091 47.466 97.8269 49.0862 98.2426 50.7637C98.5931 52.3237 100.123 53.5 101.958 53.0421C103.793 52.5842 104.604 50.9493 104.205 49.3348C103.815 47.7518 102.325 46.5985 100.529 47.0795Z" fill="#E79B06"/>
<path d="M150.008 35.9797C150.463 37.6803 152.124 38.5856 153.698 38.1637C155.241 37.7502 156.332 36.2767 155.842 34.4502C155.378 32.7181 153.781 31.796 152.169 32.3292C150.457 32.619 149.609 34.3652 150.008 35.9797Z" fill="#E79B06"/>
<path d="M80.3455 51.2384C78.6995 51.6457 77.6728 53.6084 78.2162 54.8804C78.4407 56.4742 80.481 57.4126 81.8667 57.0413C83.1578 56.6953 84.4033 55.0453 83.9645 53.4077C83.5173 51.7386 81.6367 50.8924 80.3455 51.2384Z" fill="#E79B06"/>
<path d="M129.893 40.0196C130.256 41.3738 132.078 42.5056 133.527 42.1175C134.881 41.7546 136.03 39.9955 135.625 38.4839C135.237 37.0352 133.406 35.8718 131.999 36.4175C130.36 36.7218 129.556 38.7599 129.893 40.0196Z" fill="#E79B06"/>
<path d="M60.123 55.374C58.5253 55.8358 57.6954 57.2733 58.0942 58.8878C58.4678 60.4079 59.939 61.3638 61.625 60.9795C63.1911 60.5261 64.0986 59.0003 63.6767 57.4257C63.2295 55.7567 61.6346 54.9689 60.123 55.374Z" fill="#E79B06"/>
<path d="M111.955 40.8438C110.223 41.3079 109.568 42.7662 109.847 44.3116C110.101 45.7625 111.96 46.783 113.418 46.4263C115.004 45.7986 115.893 44.5816 115.429 42.8495C115.047 41.298 113.601 40.4365 111.955 40.8438Z" fill="#E79B06"/>
<path d="M93.1662 50.334C94.6547 49.9689 95.5077 48.4915 95.151 47.0344C94.8028 45.6088 93.3085 44.6929 91.8829 45.0411C90.3314 45.4231 89.4154 46.9174 89.8981 48.3407C90.1856 49.9175 91.8036 50.6653 93.1662 50.334Z" fill="#E79B06"/>
<path d="M144.897 35.4271C146.314 35.0474 147.176 33.6014 146.836 32.2074C146.446 30.6243 144.899 29.8911 143.599 30.2056C142.016 30.596 141.149 32.1449 141.621 33.4023C141.851 34.8931 143.377 35.8006 144.897 35.4271Z" fill="#E79B06"/>
<path d="M69.8012 52.4424C69.9897 53.7757 71.7528 54.6872 73.0271 54.2782C74.4504 53.7956 75.1566 52.5263 74.823 51.0293C74.5316 49.6898 72.8168 48.8329 71.5656 49.2019C70.4319 49.5056 69.264 51.0674 69.8012 52.4424Z" fill="#E79B06"/>
<path d="M121.531 37.5357C121.825 39.0097 123.537 39.7322 124.703 39.42C125.899 39.0993 126.973 37.5628 126.561 36.1541C126.167 34.8084 124.532 33.9976 123.336 34.3183C122.179 34.662 121.04 36.0809 121.531 37.5357Z" fill="#E79B06"/>
<path d="M52.7928 58.2488C54.2099 57.8691 54.9538 56.4884 54.6224 55.1258C54.3164 53.8577 52.8705 52.9963 51.5394 53.3192C50.2713 53.6253 49.3446 54.9536 49.6782 56.4506C50.1293 57.8824 51.4386 58.6117 52.7928 58.2488Z" fill="#E79B06"/>
<path d="M104.429 43.3666C105.886 43.0099 106.623 41.7321 106.315 40.3296C106.032 39.0216 104.815 38.1326 103.278 38.4431C102.088 38.6609 101.104 39.9032 101.392 41.4801C101.746 42.8027 102.963 43.6917 104.429 43.3666Z" fill="#E79B06"/>
<path d="M152.873 27.1468C153.233 28.3665 154.854 29.2487 156.042 28.8966C157.262 28.536 158.106 27.0271 157.786 25.8304C157.465 24.6337 155.859 23.6801 154.663 24.0007C153.466 24.3214 152.529 25.99 152.873 27.1468Z" fill="#E79B06"/>
<path d="M81.1581 45.9578C81.458 47.3288 82.6328 48.0604 84.0184 47.6891C85.4041 47.3178 86.0665 46.2627 85.7413 44.7972C85.4015 43.4032 84.2036 42.7116 82.8494 43.0744C81.4869 43.4057 80.7491 44.6835 81.1581 45.9578Z" fill="#E79B06"/>
<path d="M135.687 32.7976C137.05 32.4662 137.739 31.1339 137.41 29.9057C137.072 28.6461 135.769 27.8139 134.566 28.2374C133.21 28.4659 132.577 29.8842 132.858 31.0579C133.221 32.412 134.513 33.0783 135.687 32.7976Z" fill="#E79B06"/>
<path d="M63.8552 51.6728C64.8798 51.4657 65.8042 50.0029 65.492 48.8377C65.1967 47.7355 63.7569 46.7712 62.6654 47.2324C61.4265 47.3956 60.6703 48.9821 61.0202 50.036C61.4522 51.2703 62.6102 51.9389 63.8552 51.6728Z" fill="#E79B06"/>
<path d="M112.784 35.1198C113.104 36.3165 114.359 37.0942 115.501 36.8219C116.706 36.5327 117.467 35.215 117.178 34.0099C116.914 32.8992 115.485 32.1008 114.406 32.3562C113.327 32.6116 112.402 34.0744 112.784 35.1198Z" fill="#E79B06"/>
<path d="M43.6839 55.6273C44.9582 55.2184 45.5261 54.1886 45.2369 52.9835C44.9393 51.7469 43.8842 51.0845 42.5532 51.4074C41.348 51.6966 40.6879 52.886 40.9855 54.1226C41.3377 55.3109 42.5271 55.971 43.6839 55.6273Z" fill="#E79B06"/>
<path d="M147.155 26.2146C148.194 25.9361 148.986 24.61 148.731 23.5309C148.467 22.4202 147.101 21.6049 146.007 21.9317C144.913 22.2585 144.176 23.5363 144.471 24.6385C144.758 25.7092 146.084 26.5015 147.155 26.2146Z" fill="#E79B06"/>
<path d="M95.3521 40.736C96.6432 40.3901 97.1712 39.3373 96.9051 38.0922C96.6643 36.9416 95.395 36.2354 94.2529 36.5077C93.1107 36.78 92.4045 38.0493 92.7083 39.183C93.0919 40.3628 94.021 41.0589 95.3521 40.736Z" fill="#E79B06"/>
<path d="M23.4338 59.5342C24.6304 59.2135 25.1899 58.1523 24.9176 57.0102C24.6307 55.9394 23.6533 55.1888 22.402 55.5578C21.1255 55.8323 20.6228 56.9796 20.9097 58.0503C21.2219 59.2155 22.2371 59.8548 23.4338 59.5342Z" fill="#E79B06"/>
<path d="M75.1327 44.6344C76.1197 44.5388 76.8889 43.2526 76.5936 42.1503C76.3151 41.1111 75.1655 40.474 74.1578 40.7441C73.0241 41.0478 72.4669 42.2435 72.6801 43.1652C72.881 44.2927 74.2532 45.0051 75.1327 44.6344Z" fill="#E79B06"/>
<path d="M126.863 30.0993C128.037 29.8186 128.59 28.8603 128.381 27.7012C128.18 26.5737 126.896 25.9389 125.92 26.2005C124.849 26.4874 124.103 27.7337 124.473 28.6132C124.786 29.7784 125.752 30.3631 126.863 30.0993Z" fill="#E79B06"/>
<path d="M55.0628 48.966C56.1021 48.6875 56.6615 47.6263 56.4461 46.5702C56.2475 45.5771 54.9298 44.8163 54.0503 45.187C52.948 45.4823 52.3318 46.4575 52.6187 47.5282C52.914 48.6305 53.9921 49.2529 55.0628 48.966Z" fill="#E79B06"/>
<path d="M106.701 34.083C107.686 33.853 108.363 32.7265 108.141 31.7733C107.917 30.6857 106.704 30.0655 105.76 30.3186C104.87 30.5234 104.033 31.5577 104.32 32.6284C104.598 33.6676 105.662 34.3615 106.701 34.083Z" fill="#E79B06"/>
<path d="M158.441 19.2075C159.196 19.0049 160.128 17.9454 159.832 16.8432C159.571 15.8669 158.516 15.2045 157.468 15.4515C156.492 15.7131 155.829 16.7681 156.076 17.8158C156.34 18.9265 157.653 19.4184 158.441 19.2075Z" fill="#E79B06"/>
<path d="M34.8605 52.9287C35.8137 52.7071 36.4738 51.5176 36.2291 50.6043C35.9614 49.731 34.7235 49.0164 33.8732 49.2442C32.9915 49.4805 32.3083 50.7098 32.553 51.6231C32.8945 52.6455 33.8443 53.1673 34.8605 52.9287Z" fill="#E79B06"/>
<path d="M86.5611 38.0285C87.4597 37.8552 88.1114 36.6342 87.8436 35.7609C87.5759 34.8875 86.4095 34.1875 85.5676 34.4468C84.6943 34.7146 84.0572 35.8641 84.2935 36.7459C84.6349 37.7682 85.5364 38.2355 86.5611 38.0285Z" fill="#E79B06"/>
<path d="M137.898 23.1589C138.842 22.9058 139.436 21.9705 139.245 21.0089C139.049 20.1502 137.883 19.4501 137.001 19.6864C136.119 19.9227 135.551 20.9524 135.773 21.9056C136.011 22.9218 136.858 23.4374 137.898 23.1589Z" fill="#E79B06"/>
<path d="M14.6415 56.8266C15.5233 56.5904 16.0512 55.5376 15.8319 54.7188C15.6125 53.9 14.635 53.1493 13.6925 53.5369C12.777 53.6472 12.2743 54.7944 12.4937 55.6132C12.7131 56.432 13.6737 57.1197 14.6415 56.8266Z" fill="#E79B06"/>
<path d="M66.0032 42.0529C66.8704 41.8881 67.3983 40.8353 67.2189 40.0395C66.9888 39.0549 65.9905 38.4785 65.1971 38.7924C64.25 38.9111 63.6675 40.0123 63.9499 40.8142C64.243 41.782 65.0101 42.2515 66.0032 42.0529Z" fill="#E79B06"/>
<path d="M117.756 27.4756C118.773 27.2371 119.223 26.2726 118.987 25.3908C118.767 24.572 117.95 23.9136 116.887 24.2319C116.108 24.4744 115.379 25.2775 115.743 26.2599C115.927 27.3245 117.001 27.6781 117.756 27.4756Z" fill="#E79B06"/>
<path d="M45.8233 45.9746C46.6275 45.8266 47.21 44.7254 46.9445 43.9865C46.6621 43.1846 45.7437 42.6543 44.9019 42.9137C44.0915 43.1646 43.6243 44.0661 43.8122 44.8933C43.9832 45.6575 45.1327 46.2946 45.8233 45.9746Z" fill="#E79B06"/>
<path d="M97.5946 31.4606C98.4449 31.2328 98.9751 30.3144 98.7158 29.4725C98.4964 28.6538 97.578 28.1235 96.7823 28.303C95.9635 28.5224 95.4102 29.4807 95.6296 30.2995C95.8574 31.1498 96.7758 31.68 97.5946 31.4606Z" fill="#E79B06"/>
<path d="M149.334 16.5838C150.09 16.3813 150.635 15.3915 150.424 14.6042C150.213 13.8169 149.286 13.2552 148.49 13.4347C147.726 13.6057 147.149 14.6039 147.352 15.3597C147.548 16.2185 148.555 16.8263 149.334 16.5838Z" fill="#E79B06"/>
<path d="M25.6918 50.3224C26.4476 50.1199 26.9778 49.2015 26.7753 48.4457C26.5728 47.6899 25.6774 47.1197 24.8901 47.3306C24.0337 47.6614 23.6272 48.4116 23.8066 49.2074C23.9377 49.9485 24.9675 50.5165 25.6918 50.3224Z" fill="#E79B06"/>
<path d="M77.4059 35.3513C78.2247 35.1319 78.6627 34.3732 78.4832 33.5775C78.3122 32.8133 77.3623 32.2915 76.615 32.5255C75.7186 32.8332 75.375 33.5665 75.6175 34.3454C75.8453 35.1957 76.4128 35.5499 77.4059 35.3513Z" fill="#E79B06"/>
<path d="M129.074 20.4602C129.925 20.2324 130.294 19.5935 130.026 18.7202C129.764 17.744 129.167 17.5326 128.309 17.7289C127.521 17.9399 127.058 18.604 127.317 19.4459C127.587 20.4536 128.445 20.629 129.074 20.4602Z" fill="#E79B06"/>
<path d="M57.203 39.3133C57.9273 39.1192 58.2877 38.4488 58.1251 37.7161C57.994 36.9749 57.1555 36.4907 56.488 36.7709C55.7007 36.9818 55.3003 37.6291 55.5113 38.4164C55.7369 39.1323 56.4472 39.5158 57.203 39.3133Z" fill="#E79B06"/>
<path d="M108.902 24.4137C109.627 24.2196 110.01 23.5093 109.825 22.8165C109.622 22.0607 108.912 21.6772 108.156 21.8797C107.472 22.0969 107.088 22.8072 107.282 23.5315C107.459 24.1928 108.21 24.5993 108.902 24.4137Z" fill="#E79B06"/>
<path d="M160.633 9.87894C161.312 9.76472 161.842 8.84633 161.61 8.23337C161.361 7.55742 160.674 7.13402 159.981 7.31966C159.32 7.49686 158.882 8.25553 159.059 8.91686C159.253 9.64117 159.924 10.0016 160.633 9.87894Z" fill="#E79B06"/>
<path d="M37.0089 43.306C37.6702 43.1288 38.1083 42.3701 37.8996 41.7172C37.7224 41.0559 36.9721 40.6494 36.2877 40.8665C35.6264 41.0437 35.1884 41.8024 35.3971 42.4552C35.5973 43.0766 36.3476 43.4832 37.0089 43.306Z" fill="#E79B06"/>
<path d="M88.7704 28.7631C89.3688 28.6027 89.8152 27.8756 89.6779 27.2373C89.5491 26.6305 88.8765 26.1357 88.1269 26.2353C87.5116 26.3326 87.0213 27.2741 87.1648 27.8094C87.365 28.4308 88.1721 28.9234 88.7704 28.7631Z" fill="#E79B06"/>
<path d="M140.509 13.8864C141.067 13.703 141.497 12.9128 141.377 12.3375C141.239 11.6993 140.449 11.2697 139.811 11.407C139.181 11.5757 138.808 12.4519 138.935 12.9243C139.064 13.5311 139.951 14.0697 140.509 13.8864Z" fill="#E79B06"/>
<path d="M16.7332 47.2536C17.3631 47.0849 17.7634 46.4375 17.5947 45.8077C17.4428 45.2408 16.7724 44.8804 16.1971 45.0008C15.6617 45.1443 15.1377 45.9597 15.3042 46.4552C15.4791 46.9821 16.2209 47.3571 16.7332 47.2536Z" fill="#E79B06"/>
<path d="M68.526 32.7015C69.0928 32.5496 69.5708 31.814 69.4189 31.2472C69.2754 30.7118 68.5651 30.3283 68.0213 30.4403C67.446 30.5607 67.008 31.3193 67.1515 31.8547C67.2719 32.43 67.9906 32.845 68.526 32.7015Z" fill="#E79B06"/>
<path d="M120.242 17.731C120.872 17.5622 121.149 17.083 120.972 16.4217C120.803 15.7919 120.315 15.4837 119.685 15.6525C119.055 15.8213 118.747 16.3089 118.925 16.9702C119.133 17.6231 119.612 17.8997 120.242 17.731Z" fill="#E79B06"/>
<path d="M48.024 36.6761C48.6853 36.4989 48.8928 36.1395 48.7471 35.4698C48.6267 34.8945 48.0907 34.5318 47.5408 34.7467C46.8479 34.9323 46.609 35.3001 46.7462 35.9384C46.9319 36.6312 47.3312 36.8617 48.024 36.6761Z" fill="#E79B06"/>
<path d="M151.526 7.25573C152.155 7.08697 152.363 6.72759 152.226 6.08932C152.071 5.38806 151.704 5.14908 151.042 5.32629C150.381 5.50349 150.15 5.90279 150.319 6.53263C150.496 7.19396 150.896 7.42449 151.526 7.25573Z" fill="#E79B06"/>
<path d="M99.7327 21.8085C100.331 21.6481 100.608 21.169 100.447 20.5706C100.287 19.9723 99.8478 19.7187 99.2495 19.879C98.6512 20.0393 98.3976 20.4786 98.518 21.0539C98.6552 21.6921 99.1029 21.9772 99.7327 21.8085Z" fill="#E79B06"/>
<path d="M27.8372 40.7021C28.3096 40.5756 28.6408 40.048 28.5142 39.5757C28.4107 39.0634 27.8033 38.6861 27.3394 38.8441C26.9615 38.9454 26.5611 39.5927 26.6393 40.0105C26.749 40.4199 27.3648 40.8287 27.8372 40.7021Z" fill="#E79B06"/>
<path d="M79.499 25.7788C79.9483 25.6921 80.3256 25.0847 80.176 24.6523C80.0747 24.2744 79.4358 23.9055 79.081 23.9668C78.7031 24.0681 78.2797 24.7553 78.3809 25.1332C78.4906 25.5426 79.0896 25.8884 79.499 25.7788Z" fill="#E79B06"/>
<path d="M131.363 11.2397C131.764 11.0985 132.116 10.3966 131.951 10.0356C131.819 9.66612 131.157 9.33719 130.819 9.4615C130.449 9.59426 130.08 10.2331 130.173 10.5795C130.314 10.9805 130.993 11.3724 131.363 11.2397Z" fill="#E79B06"/>
<path d="M7.60442 44.6724C7.99076 44.6026 8.36188 44.0981 8.28368 43.6803C8.23079 43.3569 7.64646 42.9397 7.28317 42.9695C6.92832 43.0309 6.48804 43.6551 6.55781 44.0415C6.61914 44.3963 7.21808 44.7421 7.60442 44.6724Z" fill="#E79B06"/>
<path d="M59.4273 30.11C59.7737 30.0172 60.1195 29.4183 60.0267 29.0718C59.9339 28.7254 59.2466 28.302 58.9087 28.4263C58.6022 28.5422 58.2733 29.2041 58.3576 29.5191C58.4819 29.857 59.0809 30.2028 59.4273 30.11Z" fill="#E79B06"/>
<path d="M111.542 14.8636C111.835 14.4474 111.6 14.0718 111.372 13.7276C110.912 13.6484 110.478 13.6636 110.224 14.1028C110.063 14.3823 110.278 14.9323 110.549 15.0622C110.757 15.2089 111.372 15.1116 111.542 14.8636Z" fill="#E79B06"/>
<path d="M39.241 34.0014C39.6504 33.8917 39.8118 33.6122 39.7336 33.1944C39.6239 32.785 39.3359 32.5921 38.9496 32.6619C38.5318 32.7401 38.3389 33.028 38.4171 33.4459C38.4723 33.9036 38.8001 34.1196 39.241 34.0014Z" fill="#E79B06"/>
<path d="M90.8865 19.1498C91.3359 19.0632 91.5203 18.7437 91.3937 18.2713C91.2756 17.8305 90.9961 17.6691 90.5867 17.7788C90.1773 17.8885 90.0159 18.168 90.1026 18.6173C90.1892 19.0666 90.4687 19.228 90.8865 19.1498Z" fill="#E79B06"/>
<path d="M19.0777 37.9859C19.3841 37.87 19.5686 37.5506 19.4842 37.2356C19.3998 36.9207 19.032 36.6817 18.7171 36.7661C18.4022 36.8505 18.1716 37.2498 18.2875 37.5563C18.3404 37.8797 18.7313 38.0787 19.0777 37.9859Z" fill="#E79B06"/>
<path d="M142.639 4.20113C142.946 4.08526 143.145 3.69439 143.029 3.38791C142.913 3.08143 142.554 2.87395 142.239 2.95833C141.932 3.07421 141.733 3.46507 141.849 3.77155C141.965 4.07803 142.364 4.30857 142.639 4.20113Z" fill="#E79B06"/>
<path d="M71.0889 22.3607C70.9354 22.1656 70.6159 21.9811 70.4185 22.0003C70.2296 22.0509 70.0851 22.3934 69.8607 22.6898C70.2117 22.8658 70.4512 23.0041 70.697 23.0395C70.9428 23.0749 71.2424 22.5558 71.0889 22.3607Z" fill="#E79B06"/>
<path d="M122.436 8.53522C122.856 8.59142 122.801 8.13366 123.08 7.78891C122.675 7.66128 122.525 7.22883 122.158 7.49599C121.986 7.6096 121.841 7.9521 121.892 8.14105C121.894 8.27545 122.222 8.49138 122.436 8.53522Z" fill="#E79B06"/>
<path d="M50.9441 26.41C50.885 26.1895 50.4458 25.936 50.2422 26.058C50.0471 26.2115 49.9088 26.4511 49.6529 26.756C50.0039 26.9319 50.2519 27.1018 50.4976 27.1372C50.7749 27.1641 51.0431 26.6535 50.9441 26.41Z" fill="#E79B06"/>
<path d="M102.61 11.891C102.542 11.639 102.334 11.4923 102.059 11.5997C101.879 11.6818 101.803 11.9045 101.547 12.2094C101.913 12.3139 102.113 12.4292 102.31 12.4101C102.61 12.3971 102.686 12.1744 102.61 11.891Z" fill="#E79B06"/>
<path d="M30.6695 30.862C30.602 30.6101 30.4108 30.5263 30.1988 30.6169C30.0498 30.6905 29.966 30.8818 29.7332 31.1467C30.0903 31.2197 30.2585 31.3434 30.4159 31.3012C30.6847 31.2967 30.7286 31.0825 30.6695 30.862Z" fill="#E79B06"/>
<path d="M6.33394 53.2825C6.48627 52.4654 6.43564 52.2764 5.9711 51.9284C6.09767 52.4007 6.21581 52.8416 6.33394 53.2825Z" fill="#E79B06"/>
<path d="M81.7474 16.5354C82.0077 16.4994 82.0915 16.3082 82.001 16.0962C81.9357 15.9786 81.7591 15.8234 81.6562 15.8173C81.4504 15.8049 81.2867 15.95 81.3627 16.2334C81.3903 16.4623 81.4954 16.6029 81.7474 16.5354Z" fill="#E79B06"/>
<path d="M133.448 1.63591C133.574 1.60216 133.729 1.42556 133.727 1.29115C133.739 1.08533 133.625 0.91325 133.333 0.957702C133.082 1.02521 132.949 1.16188 133.08 1.39694C133.145 1.51446 133.353 1.66123 133.448 1.63591Z" fill="#E79B06"/>
<path d="M61.7839 20.1292C61.664 20.0599 61.5355 19.9591 61.4409 19.9844C61.3463 20.0098 61.2854 20.1613 61.17 20.3613C61.393 20.4368 61.553 20.5291 61.6077 20.4807C61.6938 20.4238 61.7147 20.2492 61.7839 20.1292Z" fill="#E79B06"/>
<path d="M72.9834 14.0571C73.0526 13.9373 73.1931 13.8321 73.1678 13.7377C73.174 13.6347 73.0143 13.5425 72.8377 13.3873C72.7309 13.6185 72.6302 13.7467 72.6555 13.8412C72.7123 13.9272 72.8951 13.9795 72.9834 14.0571Z" fill="#E79B06"/>
<path d="M1.09531 32.9817C1.18994 32.9563 1.3054 32.7563 1.28849 32.6933C1.26313 32.5986 1.09471 32.4747 0.991629 32.4685C0.896997 32.4939 0.804614 32.6539 0.640706 32.7992C0.872231 32.9062 1.00068 33.007 1.09531 32.9817Z" fill="#E79B06"/>
<path d="M52.8772 18.1274C52.9464 18.0076 53.047 17.8794 53.0217 17.7849C52.9964 17.6905 52.8451 17.6297 52.637 17.483C52.5617 17.7057 52.4695 17.8654 52.5263 17.9514C52.5831 18.0375 52.7574 18.0583 52.8772 18.1274Z" fill="#E79B06"/>
<path d="M10.0431 35.0052C10.0177 34.9105 9.82619 34.8266 9.73156 34.852C9.63693 34.8773 9.58454 35.0604 9.46063 35.2288C9.67525 35.2728 9.83524 35.3651 9.89833 35.3482C9.98451 35.2913 10.0684 35.0998 10.0431 35.0052Z" fill="#E79B06"/>
<path d="M113.468 5.3C113.443 5.20537 113.26 5.153 113.125 5.15526C113.062 5.17217 112.938 5.34061 112.963 5.43524C112.997 5.56142 113.117 5.63069 113.294 5.78614C113.393 5.52307 113.525 5.38618 113.468 5.3Z" fill="#E79B06"/>
<path d="M41.5821 24.2259C41.5568 24.1312 41.3652 24.0473 41.2306 24.0496C41.136 24.0749 41.0752 24.2265 40.9597 24.4265C41.1828 24.5019 41.3112 24.6027 41.4059 24.5774C41.5236 24.512 41.6075 24.3205 41.5821 24.2259Z" fill="#E79B06"/>
<path d="M104.729 2.91823C104.704 2.8236 104.512 2.73969 104.386 2.77349C104.292 2.79885 104.239 2.98193 104.115 3.15037C104.338 3.22583 104.498 3.3182 104.553 3.26975C104.671 3.2044 104.755 3.01287 104.729 2.91823Z" fill="#E79B06"/>
<path d="M21.3734 28.2903C21.3165 28.2041 21.165 28.1433 21.0765 28.0655C21.0073 28.1855 20.938 28.3055 20.8141 28.474C21.0287 28.5179 21.1487 28.5872 21.2433 28.5618C21.3379 28.5364 21.4218 28.3449 21.3734 28.2903Z" fill="#E79B06"/>
<path d="M93.15 9.96996C93.2446 9.94461 93.2739 9.80152 93.3516 9.71308C93.2632 9.63535 93.1663 9.52608 93.0632 9.51989C92.9917 9.50525 92.8993 9.66524 92.7585 9.77059C92.9585 9.88604 93.0869 9.98687 93.15 9.96996Z" fill="#E79B06"/>
</g>
</svg>
