<svg width="28" height="28" viewBox="0 0 28 28" fill="none" xmlns="http://www.w3.org/2000/svg">
<path d="M20.5573 12.5415C20.0557 12.5415 19.659 12.1332 19.659 11.6432C19.659 11.2115 19.2273 10.3132 18.504 9.53154C17.7923 8.7732 17.0107 8.32987 16.3573 8.32987C15.8557 8.32987 15.459 7.92154 15.459 7.43154C15.459 6.94154 15.8673 6.5332 16.3573 6.5332C17.524 6.5332 18.749 7.1632 19.8223 8.29487C20.8257 9.35654 21.4673 10.6749 21.4673 11.6315C21.4673 12.1332 21.059 12.5415 20.5573 12.5415Z" fill="white"/>
<path d="M24.769 12.5423C24.2674 12.5423 23.8707 12.134 23.8707 11.644C23.8707 7.50232 20.499 4.14232 16.369 4.14232C15.8674 4.14232 15.4707 3.73398 15.4707 3.24398C15.4707 2.75398 15.8674 2.33398 16.3574 2.33398C21.4907 2.33398 25.6674 6.51065 25.6674 11.644C25.6674 12.134 25.259 12.5423 24.769 12.5423Z" fill="white"/>
<path d="M12.8923 17.4423L10.734 19.6006C10.279 20.0556 9.55565 20.0557 9.08898 19.6123C8.96065 19.484 8.83232 19.3673 8.70398 19.239C7.50232 18.0257 6.41732 16.754 5.44898 15.424C4.49232 14.094 3.72232 12.764 3.16232 11.4457C2.61398 10.1157 2.33398 8.84398 2.33398 7.63065C2.33398 6.83732 2.47398 6.07898 2.75398 5.37898C3.03398 4.66732 3.47732 4.01398 4.09565 3.43065C4.84232 2.69565 5.65898 2.33398 6.52232 2.33398C6.84898 2.33398 7.17565 2.40398 7.46732 2.54398C7.77065 2.68398 8.03898 2.89398 8.24898 3.19732L10.9557 7.01232C11.1657 7.30398 11.3173 7.57232 11.4223 7.82898C11.5273 8.07398 11.5857 8.31898 11.5857 8.54065C11.5857 8.82065 11.504 9.10065 11.3407 9.36898C11.189 9.63732 10.9673 9.91732 10.6873 10.1973L9.80065 11.119C9.67232 11.2473 9.61398 11.399 9.61398 11.5857C9.61398 11.679 9.62565 11.7607 9.64898 11.854C9.68398 11.9473 9.71898 12.0173 9.74232 12.0873C9.95232 12.4723 10.314 12.974 10.8273 13.5807C11.3523 14.1873 11.9123 14.8057 12.519 15.424C12.6357 15.5407 12.764 15.6573 12.8807 15.774C13.3473 16.229 13.359 16.9757 12.8923 17.4423Z" fill="white"/>
<path d="M25.6309 21.3859C25.6309 21.7125 25.5726 22.0509 25.4559 22.3775C25.4209 22.4709 25.3859 22.5642 25.3392 22.6575C25.1409 23.0775 24.8842 23.4742 24.5459 23.8475C23.9742 24.4775 23.3442 24.9325 22.6326 25.2242C22.6209 25.2242 22.6092 25.2359 22.5976 25.2359C21.9092 25.5159 21.1626 25.6675 20.3576 25.6675C19.1676 25.6675 17.8959 25.3875 16.5542 24.8159C15.2126 24.2442 13.8709 23.4742 12.5409 22.5059C12.0859 22.1675 11.6309 21.8292 11.1992 21.4675L15.0142 17.6525C15.3409 17.8975 15.6326 18.0842 15.8776 18.2125C15.9359 18.2359 16.0059 18.2709 16.0876 18.3059C16.1809 18.3409 16.2742 18.3525 16.3792 18.3525C16.5776 18.3525 16.7292 18.2825 16.8576 18.1542L17.7442 17.2792C18.0359 16.9875 18.3159 16.7659 18.5842 16.6259C18.8526 16.4625 19.1209 16.3809 19.4126 16.3809C19.6342 16.3809 19.8676 16.4275 20.1242 16.5325C20.3809 16.6375 20.6492 16.7892 20.9409 16.9875L24.8026 19.7292C25.1059 19.9392 25.3159 20.1842 25.4442 20.4759C25.5609 20.7675 25.6309 21.0592 25.6309 21.3859Z" fill="white"/>
</svg>
