<svg width="56" height="51" viewBox="0 0 56 51" fill="none" xmlns="http://www.w3.org/2000/svg">
<path d="M10.3495 10.3947C10.6555 7.88598 12.7854 6 15.3127 6H44.2238C47.2253 6 49.5504 8.62588 49.1871 11.6053L45.6505 40.6053C45.3445 43.114 43.2146 45 40.6873 45H11.7762C8.77469 45 6.44959 42.3741 6.81293 39.3947L10.3495 10.3947Z" fill="#2ECC71" stroke="#0EC55B" stroke-width="2"/>
<g filter="url(#filter0_f_81_10977)">
<path d="M9.87287 9.48025C10.1367 7.21133 12.0585 5.5 14.3428 5.5H45.2619C47.9531 5.5 50.0426 7.84653 49.7318 10.5198L46.1271 41.5197C45.8633 43.7887 43.9415 45.5 41.6572 45.5H10.7381C8.04686 45.5 5.95738 43.1535 6.26822 40.4802L9.87287 9.48025Z" stroke="#2ECC71" stroke-opacity="0.6" stroke-width="3"/>
</g>
<mask id="mask0_81_10977" style="mask-type:alpha" maskUnits="userSpaceOnUse" x="5" y="5" width="46" height="41">
<path d="M10.3495 10.3947C10.6555 7.88598 12.7854 6 15.3127 6H44.2238C47.2253 6 49.5504 8.62588 49.1871 11.6053L45.6505 40.6053C45.3445 43.114 43.2146 45 40.6873 45H11.7762C8.77469 45 6.44959 42.3741 6.81293 39.3947L10.3495 10.3947Z" fill="#2ECC71" stroke="#0EC55B" stroke-width="2"/>
</mask>
<g mask="url(#mask0_81_10977)">
<g opacity="0.3">
<path d="M115.319 35.8333C115.103 35.663 114.868 35.4975 114.583 35.2883C114.917 35.2559 115.193 35.2201 115.522 35.17C115.108 33.6254 114.709 32.134 114.309 30.6427C113.557 30.749 112.769 31.5692 112.641 32.4408C112.483 33.4154 112.69 34.3304 114.176 35.1882C112.632 35.1071 111.567 35.6779 110.998 37.1053C111.027 36.4316 110.949 35.7864 110.605 35.2126C110.256 34.621 109.72 34.251 109.053 34.1062C108.127 33.9167 106.796 34.3493 106.315 35.3917C106.074 35.913 105.997 36.4092 106.092 36.9738C106.239 37.8095 106.722 38.4033 107.434 38.8595C106.274 38.7898 105.476 39.365 104.769 40.2775C104.708 40.0467 104.652 39.9095 104.627 39.7449C104.534 39.256 104.273 38.8502 103.933 38.5037C102.885 37.4335 101.151 37.4983 100.154 38.603C99.392 39.454 99.2184 40.7945 99.9892 41.8248C100.14 42.0318 100.286 42.2211 100.464 42.4589C100.096 42.5765 99.7357 42.6539 99.4304 42.7928C99.1121 42.9542 98.8531 43.1949 98.5313 43.4143C98.2199 42.3941 97.6152 41.6998 96.6628 41.2699C97.43 41.2927 98.1142 41.1474 98.6902 40.6696C99.2615 40.174 99.6206 39.5259 99.5499 38.7647C99.4347 37.4826 98.7907 36.5705 97.2181 36.383C96.3336 36.2775 95.1079 37.1006 94.8296 38.0505C94.5054 39.184 94.8219 40.5073 96.5822 41.2535C95.8552 41.2389 95.2253 41.1604 94.6467 41.4867C94.0859 41.8082 93.6921 42.2562 93.3187 42.851C93.3006 42.5704 93.3063 42.3786 93.2765 42.1963C93.0776 41.2411 92.518 40.5728 91.6248 40.2222C90.8845 39.9449 90.1588 40.0061 89.4347 40.4285C88.9449 40.731 88.6352 41.1375 88.38 41.6055C88.354 41.6505 88.27 41.692 88.2215 41.724C88.1929 41.6175 88.1596 41.4932 88.1714 41.395C88.243 40.881 88.066 40.4337 87.8133 39.9876C87.2486 39.0163 85.9185 38.6686 84.9884 39.032C84.7978 39.1021 84.6441 39.2384 84.463 39.344C83.6467 39.8482 83.3329 40.8076 83.495 41.6966C83.6035 42.3145 83.9237 42.7995 84.438 43.1565C84.5328 43.2262 84.6146 43.3185 84.6917 43.393C84.1283 43.5629 83.5909 43.6879 83.0998 43.9146C82.591 44.1461 82.2921 44.6639 81.9624 45.2089C81.9183 44.9733 81.8672 44.8538 81.8694 44.72C81.9033 44.3494 81.7644 44.0441 81.603 43.7258C81.012 42.5141 79.7577 42.1651 78.6972 42.4683C78.0048 42.6539 77.4418 43.1092 77.1502 43.7962C76.8668 44.443 76.8155 45.1038 77.0803 45.7369C77.2382 46.1132 77.4541 46.493 77.7931 46.7637C77.8381 46.7897 77.8441 46.8832 77.8952 47.0028C77.0227 47.0843 76.3614 47.5279 75.7926 48.1751C75.7321 48.02 75.6953 47.9538 75.6715 47.865C75.4821 46.9453 74.906 46.3575 74.0484 45.9974C73.9406 45.9502 73.841 45.8627 73.7237 45.78C73.5994 45.8133 73.4799 45.8643 73.3414 45.8444C72.7031 45.8061 72.135 45.9583 71.6062 46.3283C70.0991 47.3791 70.2733 49.5208 71.475 50.4547C71.5473 50.5114 71.6066 50.5907 71.7157 50.7137C71.2541 50.8374 70.8492 50.8888 70.4776 51.0644C70.1013 51.2223 69.7713 51.482 69.4448 51.6837C69.2596 51.2766 69.1146 50.8778 68.8952 50.556C68.671 50.2165 68.3369 49.9635 68.0191 49.63C68.3387 49.5444 68.605 49.473 68.8713 49.4017C69.7318 49.1331 70.2425 48.4824 70.38 47.6464C70.5717 46.5865 70.2178 45.6918 69.2533 45.0749C68.4962 44.5928 67.3466 44.6344 66.5493 45.2096C65.0954 46.2461 65.4129 48.4255 66.5658 49.1061C66.6333 49.1451 66.6796 49.2468 66.7709 49.3746C65.5348 49.3062 64.7837 49.9832 64.1348 50.8992C64.085 49.7898 63.6081 49.0042 62.6768 48.5116C62.3214 48.3214 61.946 48.2698 61.5577 48.2406C61.071 48.1998 60.6497 48.3317 60.2439 48.5927C59.7541 48.8952 59.4266 49.3064 59.1584 49.7969C59.1324 49.8419 59.0614 49.861 59.0129 49.893C59.0107 50.0268 59.031 50.1736 59.0288 50.3074C59.0161 50.6152 58.9632 50.9148 59.0038 51.2084C59.0815 51.8536 59.4646 52.3599 59.9399 52.7844C60.0169 52.8588 60.094 52.9333 60.2208 53.0516C59.7769 53.1705 59.3721 53.2219 59.0183 53.3928C58.6645 53.5638 58.3569 53.8364 58.0399 54.0736C57.231 51.8357 55.374 51.4389 53.9258 52.2836C53.3472 52.6099 52.9678 53.1112 52.7779 53.752C52.4312 54.8724 52.7993 55.8203 53.6434 56.6979C52.8172 56.8812 52.1581 57.191 51.6911 57.7918C51.4739 57.3362 51.3195 56.9019 51.0728 56.5494C50.8261 56.1968 50.4516 55.9356 50.1162 55.6069C50.2452 55.5913 50.347 55.545 50.4452 55.5568C50.9094 55.5846 51.2892 55.3687 51.624 55.1268C52.5183 54.4875 52.7836 53.5601 52.6142 52.5019C52.5749 52.2841 52.4243 52.077 52.3139 51.8783C51.8535 51.0121 51.1024 50.6235 50.1433 50.5951C49.318 50.5688 48.678 50.9496 48.1755 51.56C47.6163 52.2426 47.5273 53.0467 47.7639 53.8586C47.9196 54.3687 48.2481 54.8135 48.6996 55.1492C48.7671 55.1882 48.7909 55.277 48.8775 55.387C48.4158 55.5107 47.9755 55.5716 47.6039 55.7472C47.2371 55.9407 46.9214 56.2536 46.5251 56.5501C46.468 56.337 46.4204 56.1595 46.3729 55.982C46.2064 55.3606 45.8068 54.9348 45.2843 54.6181C43.9146 53.7673 41.9772 54.4196 41.4333 56.0116C41.4121 56.0743 41.3553 56.1466 41.3163 56.2142C41.2878 56.1076 41.219 55.9929 41.2355 55.9123C41.3296 55.4114 41.1704 54.9593 41.0112 54.5072C40.8935 54.1391 40.6304 53.8671 40.3187 53.6272C39.5603 53.0692 38.7515 52.9624 37.8746 53.3116C37.0817 53.6192 36.597 54.2248 36.4452 55.0076C36.2522 55.9917 36.5125 56.8924 37.3657 57.5201C37.4333 57.5591 37.4618 57.6656 37.5129 57.7851C36.4863 57.7177 35.8132 58.2596 35.1605 58.9482C34.8354 57.3798 33.8896 56.5486 32.3741 56.5741C31.273 56.5837 30.4865 57.2702 30.116 58.3019C29.716 59.4366 30.0759 60.4248 30.9992 61.243C30.8619 61.2989 30.7554 61.3274 30.6489 61.3559C30.0357 61.4822 29.4546 61.6569 29.0349 62.15C28.9734 62.2045 28.8621 62.2153 28.8088 62.2296C28.5834 61.8142 28.4207 61.4202 28.161 61.0902C27.9013 60.7601 27.5364 60.5344 27.2329 60.2542C28.4288 60.3143 29.4509 59.5838 29.7409 58.5356C30.0652 57.4021 29.6092 56.2684 28.5299 55.7203C27.4956 55.1983 26.3936 55.4174 25.5802 56.3585C25.2787 56.7247 25.1075 57.1511 25.0667 57.6378C25.0306 58.1422 25.1365 58.6086 25.3667 59.0417C25.5922 59.457 25.9359 59.7454 26.3731 60.0279C26.16 60.085 26.0275 60.1585 25.9115 60.1516C25.5361 60.0999 25.2355 60.2566 24.9172 60.418C24.4439 60.64 24.0749 60.9672 23.815 61.4174C23.75 61.53 23.6802 61.6248 23.536 61.7966C23.5045 60.1876 22.7657 59.2058 21.2771 58.9767C20.1237 58.791 19.1844 59.4043 18.7333 60.4195C18.1358 61.7403 18.5823 62.8385 19.7792 63.7547C19.2643 63.8926 18.8192 63.9358 18.4346 64.134C18.0631 64.3097 17.7521 64.6404 17.3736 64.9321C17.3212 64.7368 17.2832 64.5948 17.2404 64.435C17.051 63.5152 16.4571 62.9322 15.622 62.5851C15.5592 62.5639 15.5047 62.5024 15.4372 62.4634C15.2454 62.4577 15.0488 62.4343 14.8392 62.4334C14.304 62.4245 13.7844 62.5447 13.3479 62.833C12.8143 63.1852 12.3898 63.6605 12.2225 64.3143C12.2143 64.3545 12.1255 64.3783 12.077 64.4104C12.058 64.3393 12.0389 64.2683 12.0602 64.2056C12.1768 63.7176 12.0046 63.288 11.8809 62.8264C11.7953 62.5068 11.6079 62.2336 11.3767 62.0101C10.0907 60.8324 8.34129 61.2631 7.59792 62.3947C7.14999 63.0665 7.09045 63.7675 7.33052 64.5214C7.49575 65.067 7.77922 65.4858 8.26147 65.7943C8.37878 65.877 8.47834 65.9645 8.59566 66.0472C8.11154 66.1579 7.61315 66.2154 7.18832 66.4053C6.7635 66.5953 6.42175 66.9532 6.00772 67.2545C5.88972 66.601 5.63445 66.0034 5.12366 65.5885C4.60335 65.138 3.97083 64.9079 3.31138 64.9323C2.27782 64.9809 1.50649 65.5111 1.07666 66.4635C0.526378 67.6766 0.900582 68.7181 1.85719 69.6605C1.43109 69.7747 1.02623 69.8261 0.672425 69.997C0.336365 70.1632 0.0240983 70.4181 -0.310686 70.6601C-0.352225 70.576 -0.406752 70.5145 -0.448291 70.4305C-0.60494 70.13 -0.726082 69.8199 -0.91348 69.5466C-1.20171 69.1101 -1.64718 68.8679 -2.1104 68.6305C-2.17318 68.6093 -2.21471 68.5252 -2.26449 68.4815C-2.41604 68.484 -2.56758 68.4866 -2.73213 68.5116C-3.10624 68.5358 -3.52189 68.4759 -3.8497 68.6018C-4.36805 68.7978 -4.84487 69.0778 -5.19833 69.534C-5.24208 69.5838 -5.29058 69.6158 -5.36508 69.6929C-5.4079 69.5331 -5.4412 69.4088 -5.46974 69.3023C-5.57567 68.8359 -5.82713 68.4656 -6.1366 68.0919C-7.00443 67.1256 -8.72852 66.9406 -9.7975 68.0643C-10.779 69.0884 -10.7735 70.7424 -9.65104 71.7356C-9.59649 71.7971 -9.54195 71.8586 -9.45539 71.9686C-9.91699 72.0923 -10.3574 72.1532 -10.7289 72.3289C-11.1182 72.5093 -11.434 72.8223 -11.8125 73.114C-11.9676 72.109 -12.545 71.4455 -13.4052 70.9338C-12.6427 70.9388 -11.9858 70.7628 -11.4466 70.2187C-10.9073 69.6746 -10.6642 69.0196 -10.7527 68.2631C-10.8581 67.3019 -11.5328 66.4171 -12.691 66.2136C-13.8089 66.0184 -14.7093 66.5641 -15.1841 67.4906C-15.4948 68.1066 -15.5283 68.7626 -15.2588 69.4135C-14.994 70.0466 -14.514 70.4888 -13.8979 70.7995C-15.3969 70.7444 -16.4796 71.3199 -17.0473 72.8231C-17.0869 72.32 -17.0366 71.8688 -17.159 71.483C-17.2814 71.0971 -17.4358 70.6628 -17.8731 70.3803C-17.8575 70.5094 -17.874 70.5899 -17.8502 70.6787C-17.7979 70.874 -17.7633 71.074 -17.6885 71.2823C-17.4782 71.8539 -17.5118 72.5099 -17.0802 72.9842C-17.053 73.0149 -17.0387 73.0682 -17.0469 73.1084C-17.1636 73.5964 -16.9333 74.0294 -16.8144 74.4733C-16.7621 74.6686 -16.6565 74.8496 -16.5379 75.0081C-16.36 75.2459 -16.1514 75.4564 -15.9332 75.7024C-16.106 75.7677 -16.2611 75.8283 -16.4291 75.9114C-16.1151 77.0831 -15.8059 78.2372 -15.4824 79.4444C-15.2694 79.3874 -15.1096 79.3445 -14.9498 79.3017C-13.2099 78.8355 -11.483 78.3918 -9.7526 77.8901C-9.21998 77.7474 -8.70289 77.4756 -8.1893 77.2619C-8.12304 77.2251 -8.07929 77.1753 -8.01779 77.1208C-7.74927 76.9157 -7.48551 76.6928 -7.18624 76.4603C-7.10665 76.6864 -7.0318 76.8947 -6.96172 77.0852C-6.45857 77.0455 -1.91829 75.8099 -1.64026 75.6403C-1.66125 74.9228 -2.1023 74.4131 -2.55286 73.8678C-1.91975 73.603 -1.35765 73.3572 -0.915412 72.8772C-0.77049 73.276 -0.697849 73.6181 -0.523448 73.9139C-0.344289 74.2274 -0.0681267 74.4769 0.186808 74.7892C-0.326788 75.0029 -0.910467 75.0261 -1.27914 75.6387C2.3782 74.6587 5.96453 73.6977 9.55085 72.7368C9.50642 72.2159 9.03496 72.0187 8.90303 71.5974C9.59544 71.4119 10.1052 70.9708 10.641 70.4847C10.6968 70.622 10.7336 70.6883 10.7573 70.777C10.8417 71.0208 10.8858 71.2564 10.9879 71.4954C11.2574 72.1463 11.4553 72.2455 12.1122 72.0695C14.7398 71.3654 17.3674 70.6614 19.995 69.9573C20.1725 69.9098 20.3453 69.8444 20.5359 69.7743C20.435 69.6111 20.3437 69.4833 20.2749 69.3685C20.6287 69.1976 20.9435 69.0942 21.2168 68.9068C21.4948 68.7372 21.7538 68.4965 22.0354 68.2689C22.153 68.637 22.2564 68.9518 22.3823 69.2796C22.5291 69.2593 22.6581 69.2437 22.7646 69.2152C25.8539 68.3874 28.9608 67.5549 32.05 66.7272C32.2631 66.6701 32.4796 66.555 32.6689 66.4091C32.9066 66.2313 33.1171 66.0226 33.3631 65.8045C33.4285 65.9773 33.489 66.1323 33.5449 66.2696C34.0657 66.2251 38.5705 64.9991 38.8616 64.8069C38.8032 64.5181 38.7271 64.234 38.4912 63.9928C38.2825 63.7823 38.0999 63.5267 37.877 63.263C38.6322 63.0987 39.213 62.6386 39.8007 62.0625C39.9438 62.8804 40.2228 63.5668 40.9042 64.0503C40.4712 64.2805 39.9892 64.2574 39.6557 64.5751C39.825 64.5678 39.9718 64.5475 40.1316 64.5046C40.5044 64.4047 40.8773 64.3048 41.2324 64.2097C44.0198 63.4628 46.8071 62.7159 49.5768 61.9738C49.7188 61.9358 49.8383 61.8847 50.0111 61.8194C49.7739 61.5024 49.5688 61.2338 49.3862 60.9783C49.74 60.8074 50.0453 60.6685 50.3233 60.4989C50.6013 60.3292 50.8603 60.0886 51.1419 59.8609C51.3473 60.4148 51.4013 60.9712 51.8671 61.3601C54.832 60.5657 57.8147 59.7665 60.7974 58.9673C60.7866 58.856 60.7758 58.7447 60.778 58.6109C61.4669 58.4834 61.9957 58.1134 62.4947 57.561C62.5981 57.8759 62.6919 58.1552 62.8083 58.4475C63.3054 58.3143 63.7493 58.1953 64.2109 58.0717C64.6725 57.948 65.1519 57.8195 65.6135 57.6958C66.0751 57.5721 66.5189 57.4532 66.9805 57.3295C67.4421 57.2058 67.886 57.0869 68.3476 56.9632C68.8092 56.8395 69.2886 56.7111 69.7502 56.5874C70.2118 56.4637 70.6556 56.3448 71.1172 56.2211C71.5788 56.0974 72.0275 55.9962 72.4843 55.8548C72.9411 55.7134 73.4491 55.6914 73.8406 55.3772C74.3238 55.4761 74.7521 55.2281 75.2007 55.1269C75.667 55.021 76.1061 54.8843 76.5677 54.7606C77.0293 54.637 77.5087 54.5085 77.9703 54.3848C78.4142 54.2659 78.8675 54.1825 79.2746 53.9973C79.273 53.6362 79.0869 53.4387 78.896 53.2234C78.7276 53.0212 78.5592 52.8189 78.3363 52.5551C79.1638 52.4476 79.7043 51.9793 80.2743 51.4079C80.3409 51.6565 80.3837 51.8162 80.4218 51.9583C80.536 52.3844 80.7874 52.7547 81.0826 53.0752C81.3233 53.3342 81.5519 53.4061 81.8892 53.3157C84.5476 52.5844 87.1977 51.8933 89.8608 51.1798C90.0028 51.1417 90.1223 51.0906 90.3484 51.011C90.1255 50.7473 89.9476 50.5095 89.7567 50.2943C90.1153 50.1411 90.4881 50.0412 90.8017 49.862C91.0974 49.6876 91.3695 49.4245 91.664 49.1743C91.7626 49.4714 91.8387 49.7554 91.9503 50.03C92.1095 50.4821 92.2173 50.5293 92.6789 50.4056C94.5786 49.8966 96.4831 49.4053 98.3957 48.8738C99.5593 48.6001 100.742 48.3974 101.824 47.8219C102.01 47.734 102.174 47.6332 102.35 47.5098C102.588 47.332 102.825 47.1541 103.076 46.9537C103.156 47.1797 103.226 47.3703 103.291 47.5431C103.977 47.4736 117.531 43.8036 117.822 43.6114C117.789 43.4871 117.751 43.3451 117.713 43.2031C117.151 41.1081 116.595 39.0309 116.033 36.9359C115.91 36.4743 115.681 36.117 115.319 35.8333ZM-12.9646 78.0467C-13.1526 77.2027 -13.6127 76.622 -14.2586 76.129C-13.8905 76.0113 -13.5307 75.934 -13.2124 75.7726C-12.8941 75.6112 -12.6351 75.3705 -12.2825 75.1238C-12.1797 75.9335 -11.7374 76.5191 -11.1435 77.1021C-11.8632 77.2568 -12.4608 77.5121 -12.9646 78.0467ZM-5.84697 73.6468C-6.16051 73.8259 -6.39225 74.0973 -6.69976 74.37C-6.85293 74.0115 -6.97058 73.6434 -7.17225 73.3168C-7.36916 73.0081 -7.63232 72.7361 -7.91452 72.393C-7.03855 72.2535 -6.34044 71.8761 -5.83926 71.19C-5.71685 71.5758 -5.63945 71.9357 -5.47329 72.2717C-5.30713 72.6078 -5.07472 72.907 -4.84103 73.2821C-5.19135 73.395 -5.55118 73.4724 -5.84697 73.6468ZM4.68987 72.1364C4.52719 71.7423 4.4498 71.3825 4.27064 71.069C4.09148 70.7554 3.83308 70.5012 3.57815 70.1889C3.91072 70.0808 4.29307 70.0164 4.60661 69.8372C4.92014 69.6581 5.17439 69.3996 5.49966 69.1222C5.62556 69.45 5.73845 69.8003 5.8951 70.1009C6.05174 70.4014 6.27941 70.6829 6.52134 71.0177C5.77092 71.1998 5.15207 71.5178 4.68987 72.1364ZM13.1875 67.3477C12.3696 67.4907 11.662 67.8326 11.0815 68.578C10.8329 67.579 10.33 66.8384 9.39875 66.3458C9.64731 66.2792 9.80234 66.2187 9.96688 66.1936C10.567 66.0899 11.0984 65.8714 11.4601 65.3749C11.6433 65.1355 11.7768 64.8523 11.9375 64.6C11.9812 64.5502 12.0025 64.4874 12.0462 64.4376C12.07 64.5264 12.1341 64.6234 12.1176 64.7039C12.0276 65.7175 12.3673 66.5589 13.1495 67.2056C13.172 67.2186 13.1637 67.2589 13.1875 67.3477ZM16.2532 69.6279C15.9177 69.2992 16.0214 68.8337 15.6824 68.563C15.411 68.3313 15.1916 68.0095 14.9189 67.702C15.6256 67.5697 16.2942 67.2954 16.8097 66.6626C16.9464 67.1016 17.0108 67.484 17.1769 67.8201C17.3383 68.1383 17.579 68.3974 17.8304 68.7676C17.1913 68.9389 16.6552 69.1396 16.2532 69.6279ZM23.3924 65.4506C23.0611 65.6345 22.7938 65.9154 22.4686 66.1928C22.2526 65.813 22.271 65.3134 21.9355 64.9846C21.6226 64.6689 21.3274 64.3484 20.9919 64.0196C22.0398 64.0243 22.7388 63.4374 23.3037 62.5629C23.4369 63.06 23.5736 63.4991 23.6925 63.943C23.8339 64.3998 24.2179 64.6966 24.5629 65.0608C24.1415 65.1927 23.7414 65.2619 23.3924 65.4506ZM28.3631 66.7446C28.0981 66.8918 27.8521 67.1099 27.5528 67.3423C27.3838 66.5694 26.9509 66.0194 26.3358 65.4991C27.104 65.3123 27.6826 64.986 28.2266 64.4597C28.3649 65.2599 28.7362 65.8645 29.3383 66.4072C28.9702 66.5249 28.6459 66.5927 28.3631 66.7446ZM33.8747 63.8787C33.6429 63.0845 33.385 62.3354 32.6231 61.8355C33.0397 61.6858 33.4173 61.6036 33.7356 61.4422C34.0492 61.2631 34.3389 60.9951 34.6204 60.7675C34.7913 61.1213 34.9315 61.5024 35.1332 61.8289C35.3348 62.1554 35.585 62.45 35.8542 62.8155C35.067 62.9313 34.3901 63.2458 33.8747 63.8787ZM40.259 60.151C40.1379 59.8409 40.0488 59.5794 39.9289 59.3451C39.809 59.1108 39.6489 58.8683 39.4805 58.666C39.3122 58.4638 39.0775 58.2983 38.8286 58.0795C39.0062 58.032 39.1127 58.0034 39.2192 57.9749C40.0905 57.8175 40.7067 57.348 41.0811 56.5436C41.1283 56.4358 41.1115 56.231 41.3258 56.2497C41.3075 56.7493 41.3424 57.2347 41.4886 57.7093C41.611 58.0952 41.7949 58.4264 42.0806 58.7114C42.1352 58.7729 42.1767 58.857 42.268 58.9847C41.4323 59.1325 40.7827 59.4779 40.259 60.151ZM45.374 61.2732C45.2161 60.8969 45.1127 60.5821 44.9383 60.2863C44.7639 59.9905 44.5102 59.754 44.26 59.4595C44.9442 59.3142 45.5466 59.0767 45.9815 58.4274C46.136 58.8617 46.2263 59.199 46.3782 59.4818C46.5301 59.7646 46.7483 60.0106 46.9902 60.3454C46.3736 60.5296 45.8245 60.7529 45.374 61.2732ZM56.7351 58.9331C56.5638 58.2939 56.221 57.7959 55.7943 57.3394C56.3681 56.9953 56.8886 56.6656 57.4447 56.3263C57.5757 56.9572 57.8617 57.5275 58.3656 58.0585C57.7359 58.2653 57.1821 58.4708 56.7351 58.9331ZM63.0132 55.5192C62.7849 54.667 62.4075 53.9689 61.6149 53.4963C62.0562 53.2258 62.5333 53.2312 62.9118 52.9394C63.2726 52.6525 63.5529 52.3491 63.8483 51.8893C63.9638 52.3912 63.8424 52.8614 64.1388 53.2577C64.4258 53.6184 64.682 54.0065 64.9607 54.4075C64.2458 54.58 63.5321 54.8283 63.0132 55.5192ZM68.0736 56.5799C67.9201 55.936 67.5276 55.3942 66.9302 54.8693C67.6807 54.6872 68.2272 54.3124 68.75 53.8489C68.8724 54.2347 68.932 54.5993 69.0934 54.9176C69.2323 55.2229 69.473 55.4819 69.6556 55.7374C69.1208 56.0139 68.6215 56.2809 68.0736 56.5799ZM74.3756 53.2549C74.1862 52.3351 73.7781 51.6643 73.0032 51.1869C73.4601 51.0455 73.8602 50.9763 74.2317 50.8006C74.5678 50.6345 74.8575 50.3666 75.2278 50.1151C75.3306 50.9248 75.7955 51.5234 76.3941 52.1241C75.5536 52.2542 74.9538 52.6432 74.3756 53.2549ZM80.7941 49.4419C80.593 48.6204 80.1542 47.9769 79.4633 47.4579C80.6611 47.0989 80.8516 47.0288 81.6803 45.9315C81.7992 46.3753 81.8731 46.7932 82.0358 47.1873C82.1985 47.5813 82.4452 47.9339 82.6931 48.3622C81.9509 48.5039 81.2871 48.796 80.7941 49.4419ZM85.9212 50.7511C85.7699 49.9734 85.363 49.3784 84.8094 48.8036C85.5018 48.6181 86.096 48.4208 86.5464 47.9005C86.7332 48.6687 87.1223 49.2685 87.7564 49.8598C87.0238 50.0371 86.4071 50.2213 85.9212 50.7511ZM88.055 45.0797C87.7237 45.2636 87.434 45.5315 87.0732 45.8185C86.8648 44.8277 86.3762 44.1404 85.4415 43.7058C85.5835 43.6678 85.6675 43.6262 85.7433 43.6249C86.6019 43.7755 87.6322 43.0046 87.9498 42.2726C88.0183 42.102 88.1093 41.9444 88.1955 41.7691C88.1958 42.0544 88.1962 42.3397 88.1788 42.6298C88.1366 43.0407 88.2413 43.4313 88.443 43.7579C88.6221 44.0714 88.89 44.3612 89.1497 44.6912C88.7639 44.8136 88.3863 44.8957 88.055 45.0797ZM92.1482 47.2178C91.9342 46.4188 91.6729 45.7277 90.9833 45.2845C91.4211 45.0721 91.8377 44.9224 92.1724 44.6805C92.5072 44.4385 92.7602 44.1043 93.0404 43.8009C93.1226 44.1785 93.1562 44.5881 93.3141 44.9644C93.4721 45.3408 93.7673 45.6613 94.0235 46.0493C93.3085 46.2218 92.6672 46.5269 92.1482 47.2178ZM97.2762 48.3175C97.136 47.9364 97.0552 47.6346 96.8903 47.3743C96.7479 47.127 96.5168 46.9035 96.3484 46.7013C96.9045 46.362 97.412 46.0547 97.9811 45.6929C98.1121 46.3238 98.3626 46.9037 98.9327 47.3979C98.2628 47.5964 97.7089 47.8019 97.2762 48.3175ZM103.514 44.8954C103.331 44.0692 103.048 43.4408 102.385 42.9526C102.779 42.79 103.152 42.6901 103.478 42.4884C103.787 42.2915 104.036 42.0153 104.375 41.7154C104.473 42.5073 104.866 43.1249 105.399 43.7624C104.621 43.9137 104.057 44.2933 103.514 44.8954ZM109.368 45.4389C109.121 45.5813 108.906 45.7722 108.624 45.9999C108.44 45.3832 108.146 44.8531 107.693 44.4417C108.254 44.1201 108.784 43.8259 109.362 43.4996C109.476 44.1352 109.783 44.6428 110.25 45.1076C109.9 45.2205 109.616 45.2966 109.368 45.4389ZM111.355 40.2827C111.116 40.3848 110.849 40.4561 110.638 40.589C110.408 40.7266 110.211 40.9127 109.947 41.1356C109.691 40.2527 109.198 39.5476 108.388 39.0797C108.965 38.963 109.507 38.8558 109.957 38.5451C110.389 38.2391 110.707 37.7923 110.93 37.2759C110.939 38.377 111.178 39.3404 112.144 40.0331C111.893 40.2335 111.594 40.1806 111.355 40.2827ZM114.902 42.586C114.705 41.7066 114.327 41.0085 113.53 40.5181C113.987 40.3766 114.387 40.3075 114.723 40.1413C115.064 39.9929 115.358 39.7427 115.716 39.5138C115.829 39.8641 115.888 40.2287 116.054 40.5648C116.216 40.8831 116.456 41.1421 116.721 41.4898C115.988 41.6671 115.414 42.0112 114.902 42.586Z" fill="white"/>
<path d="M49.3584 48.731C49.6819 49.9383 50.8832 50.5869 52.0112 50.3227C53.157 50.0537 53.9074 48.8061 53.6159 47.6473C53.3339 46.524 52.0993 45.7512 50.9453 46.0604C49.764 46.3389 49.0492 47.577 49.3584 48.731Z" fill="white"/>
<path d="M48.4939 46.3561C48.2025 45.1974 47.1137 44.6138 46.0484 44.8992C44.9477 45.1941 44.3723 46.2427 44.6093 47.3399C44.935 48.4134 45.9622 49.0515 47.0452 48.7613C48.1152 48.4937 48.7759 47.4794 48.4939 46.3561Z" fill="white"/>
<path d="M41.1693 43.7331C40.1928 43.9947 39.6032 44.99 39.8601 45.9487C40.0945 46.8944 41.0672 47.471 42.0757 47.2579C43.0167 47.0058 43.624 46.0058 43.4122 45.073C43.173 44.1095 42.1103 43.4809 41.1693 43.7331Z" fill="white"/>
<path d="M29.6751 46.1477C28.6489 46.3656 28.1515 47.279 28.3859 48.2247C28.5835 49.1042 29.4462 49.7674 30.4807 49.5092C31.5152 49.251 31.9723 48.3294 31.7474 47.4191C31.5273 46.5267 30.6871 45.8765 29.6751 46.1477Z" fill="white"/>
<path d="M46.2299 42.1682C46.4345 42.9316 47.4617 43.5697 48.2784 43.3509C49.0418 43.1463 49.6895 42.1545 49.4611 41.3023C49.2423 40.4857 48.2103 39.8298 47.4174 40.1374C46.4929 40.309 46.0396 41.458 46.2299 42.1682Z" fill="white"/>
<path d="M36.1169 42.6319C35.1404 42.8935 34.7708 43.7156 34.9282 44.5869C35.0712 45.4048 36.1197 45.9802 36.9412 45.7791C37.8359 45.4252 38.337 44.7391 38.0754 43.7626C37.86 42.8879 37.0449 42.4022 36.1169 42.6319Z" fill="white"/>
<path d="M25.5237 47.9813C26.3629 47.7754 26.8437 46.9425 26.6427 46.1211C26.4463 45.3174 25.6039 44.801 24.8002 44.9973C23.9255 45.2126 23.4091 46.0551 23.6812 46.8575C23.8433 47.7465 24.7555 48.1681 25.5237 47.9813Z" fill="white"/>
<path d="M41.5159 40.7675C41.6815 41.5984 42.6469 42.0058 43.3038 41.8297C43.9785 41.649 44.5836 40.7828 44.3518 39.9886C44.1295 39.2299 43.2078 38.7728 42.5331 38.9536C41.881 39.1474 41.2391 39.9473 41.5159 40.7675Z" fill="white"/>
<path d="M31.8737 44.0545C32.6952 43.8534 33.1111 43.133 32.9373 42.3423C32.7777 41.6049 32.0916 41.1037 31.2251 41.2788C30.554 41.4015 29.9995 42.1019 30.1616 42.9909C30.3614 43.7366 31.0475 44.2378 31.8737 44.0545Z" fill="white"/>
<path d="M18.7543 45.5138C18.9234 46.2867 19.5857 46.6992 20.3669 46.4898C21.1481 46.2805 21.5215 45.6857 21.3382 44.8595C21.1466 44.0736 20.4713 43.6837 19.7079 43.8882C18.9397 44.075 18.5238 44.7954 18.7543 45.5138Z" fill="white"/>
<path d="M49.4962 38.0948C50.2643 37.908 50.653 37.1569 50.4674 36.4645C50.2772 35.7543 49.5425 35.2852 48.8644 35.524C48.0997 35.6527 47.7431 36.4524 47.9013 37.114C48.1059 37.8774 48.8345 38.2531 49.4962 38.0948Z" fill="white"/>
<path d="M9.00032 48.7367C9.57796 48.62 10.0991 47.7953 9.92309 47.1384C9.75659 46.517 8.94491 45.9734 8.32955 46.2334C7.63111 46.3254 7.20476 47.2198 7.40201 47.814C7.64556 48.5099 8.29839 48.8868 9.00032 48.7367Z" fill="white"/>
<path d="M36.5842 39.4041C36.765 40.0788 37.4724 40.5172 38.1163 40.3637C38.7957 40.2007 39.2246 39.4578 39.0615 38.7784C38.9128 38.1523 38.1072 37.7021 37.4988 37.8461C36.8904 37.9901 36.3692 38.8148 36.5842 39.4041Z" fill="white"/>
<path d="M26.7571 42.5711C27.4851 42.3761 27.7827 41.7825 27.6327 41.0806C27.4969 40.4319 26.7813 40.0338 26.1374 40.1873C25.4935 40.3408 25.0954 41.0564 25.2666 41.6956C25.4829 42.3607 26.0067 42.7532 26.7571 42.5711Z" fill="white"/>
<path d="M15.358 44.768C15.9144 44.7141 16.3481 43.989 16.1816 43.3676C16.0246 42.7817 15.3765 42.4226 14.8084 42.5748C14.1693 42.746 13.8551 43.4201 13.9753 43.9397C14.0886 44.5754 14.8622 44.977 15.358 44.768Z" fill="white"/>
<path d="M44.5214 36.5744C45.183 36.4161 45.4949 35.8758 45.3769 35.2224C45.2637 34.5867 44.5399 34.2289 43.9895 34.3763C43.3858 34.5381 42.9652 35.2407 43.1742 35.7365C43.3502 36.3934 43.8952 36.7231 44.5214 36.5744Z" fill="white"/>
<path d="M33.1545 38.8214C33.7096 38.6917 34.0913 38.0566 33.9663 37.5192C33.8401 36.9061 33.1565 36.5564 32.6239 36.6992C32.122 36.8146 31.6503 37.3977 31.8121 38.0013C31.9691 38.5872 32.5686 38.9784 33.1545 38.8214Z" fill="white"/>
<path d="M21.8008 41.0432C22.3074 40.9455 22.6748 40.2572 22.5239 39.7648C22.3729 39.2725 21.7153 38.8778 21.2407 39.024C20.7484 39.175 20.3892 39.823 20.5224 40.3201C20.7149 40.8965 21.2231 41.1599 21.8008 41.0432Z" fill="white"/>
<path d="M50.7425 32.6609C51.2751 32.5182 51.6095 31.9909 51.5023 31.4488C51.3916 30.9647 50.734 30.57 50.2369 30.7032C49.7398 30.8364 49.4196 31.417 49.5446 31.9543C49.6791 32.5272 50.1566 32.8179 50.7425 32.6609Z" fill="white"/>
<path d="M10.211 43.3121C10.6999 43.2191 10.9976 42.6256 10.8964 42.177C10.7667 41.6218 10.2039 41.2969 9.75655 41.4739C9.22265 41.5408 8.89425 42.1616 9.05344 42.6137C9.21867 43.1593 9.65115 43.424 10.211 43.3121Z" fill="white"/>
<path d="M39.3875 35.0954C39.9604 34.9609 40.2143 34.4171 40.0811 33.92C39.9574 33.4584 39.4964 33.0872 38.8975 33.2667C38.4584 33.4034 38.0469 33.8562 38.2524 34.41C38.3562 35.0102 38.9614 35.2095 39.3875 35.0954Z" fill="white"/>
<path d="M28.0201 37.3417C28.4995 37.2132 28.7984 36.6954 28.6522 36.2208C28.5285 35.7592 28.0108 35.4603 27.5622 35.5615C27.1005 35.6852 26.7886 36.2254 26.9123 36.687C27.0408 37.1664 27.5585 37.4653 28.0201 37.3417Z" fill="white"/>
<path d="M16.6388 39.5354C17.1004 39.4117 17.3474 38.984 17.2462 38.5354C17.1498 38.1045 16.6143 37.8103 16.1929 37.9423C15.6876 38.1157 15.4939 38.5292 15.6306 38.9683C15.759 39.4476 16.0789 39.6473 16.6388 39.5354Z" fill="white"/>
<path d="M45.7682 31.1395C46.2475 31.011 46.4555 30.6508 46.3045 30.1585C46.1571 29.6081 45.8207 29.4889 45.3366 29.5996C44.8927 29.7185 44.6315 30.093 44.7777 30.5676C44.9299 31.1357 45.4131 31.2346 45.7682 31.1395Z" fill="white"/>
<path d="M5.24891 41.769C5.65726 41.6596 5.86045 41.2817 5.76879 40.8686C5.69488 40.4507 5.22215 40.1778 4.84583 40.3357C4.40198 40.4546 4.17627 40.8196 4.2952 41.2634C4.42237 41.667 4.82282 41.8832 5.24891 41.769Z" fill="white"/>
<path d="M34.3963 33.369C34.8046 33.2596 35.0208 32.8591 34.9162 32.4685C34.802 32.0424 34.4015 31.8263 33.9754 31.9404C33.5896 32.0628 33.3734 32.4633 33.4828 32.8716C33.5827 33.2445 34.0057 33.4737 34.3963 33.369Z" fill="white"/>
<path d="M23.0456 35.8205C23.3829 35.7301 23.6346 35.3202 23.5572 34.9603C23.4846 34.6182 23.1054 34.3393 22.6828 34.3954C22.3359 34.4503 22.0595 34.9811 22.1404 35.2829C22.2533 35.6332 22.7082 35.9109 23.0456 35.8205Z" fill="white"/>
<path d="M11.6335 38.0421C11.953 37.9565 12.2225 37.5418 12.1368 37.2222C12.056 36.9204 11.6555 36.7042 11.349 36.7673C11.0246 36.8352 10.7777 37.2629 10.8586 37.5647C10.9264 37.889 11.3316 38.123 11.6335 38.0421Z" fill="white"/>
<path d="M40.7883 29.6014C41.1434 29.5063 41.2994 29.2362 41.1995 28.8633C41.1043 28.5083 40.8294 28.3345 40.4743 28.4297C40.1193 28.5248 39.9455 28.7997 40.0454 29.1726C40.1631 29.5406 40.4332 29.6966 40.7883 29.6014Z" fill="white"/>
<path d="M29.226 31.9004C29.5633 31.81 29.7193 31.5399 29.6289 31.2026C29.5385 30.8652 29.2909 30.7223 28.9536 30.8126C28.6162 30.903 28.4733 31.1507 28.5411 31.475C28.6185 31.8348 28.8709 31.9955 29.226 31.9004Z" fill="white"/>
<path d="M17.8191 34.1393C18.0724 34.0904 18.2851 33.748 18.2007 33.5042C18.1437 33.2912 17.7835 33.0832 17.5834 33.1178C17.3704 33.1749 17.1317 33.5623 17.1888 33.7754C17.2506 34.0062 17.5883 34.2011 17.8191 34.1393Z" fill="white"/>
<path d="M47.0579 25.943C47.284 25.8634 47.4824 25.4677 47.3898 25.2641C47.315 25.0558 46.9418 24.8704 46.7513 24.9405C46.543 25.0153 46.335 25.3755 46.3874 25.5708C46.467 25.7969 46.8496 26.0178 47.0579 25.943Z" fill="white"/>
<path d="M6.50373 36.5807C6.69903 36.5284 6.89397 36.1907 6.84165 35.9954C6.78932 35.8001 6.40187 35.5614 6.21133 35.6315C6.03855 35.6968 5.85311 36.07 5.90068 36.2476C5.97076 36.4381 6.30844 36.633 6.50373 36.5807Z" fill="white"/>
<path d="M35.8837 27.9845C36.0492 27.7499 35.9163 27.5381 35.7882 27.3441C35.5289 27.2994 35.2838 27.308 35.1408 27.5556C35.0499 27.7132 35.171 28.0232 35.3238 28.0964C35.4411 28.1792 35.788 28.1243 35.8837 27.9845Z" fill="white"/>
<path d="M24.2384 30.402C24.4917 30.3532 24.5957 30.1731 24.5243 29.9068C24.4577 29.6582 24.3002 29.5672 24.0694 29.6291C23.8386 29.6909 23.7476 29.8485 23.7964 30.1018C23.8453 30.3551 24.0028 30.4461 24.2384 30.402Z" fill="white"/>
<path d="M13.0781 32.212C12.9916 32.102 12.8115 31.998 12.7002 32.0088C12.5937 32.0373 12.5122 32.2304 12.3857 32.3975C12.5836 32.4967 12.7186 32.5747 12.8572 32.5947C12.9957 32.6146 13.1647 32.322 13.0781 32.212Z" fill="white"/>
<path d="M42.0257 24.4166C42.2626 24.4483 42.2315 24.1903 42.3887 23.9959C42.1601 23.9239 42.0758 23.6801 41.8688 23.8308C41.7718 23.8948 41.6903 24.0879 41.7188 24.1944C41.7201 24.2702 41.905 24.3919 42.0257 24.4166Z" fill="white"/>
<path d="M30.8484 26.3083C30.8104 26.1662 30.6931 26.0835 30.538 26.144C30.4363 26.1903 30.3938 26.3159 30.2496 26.4878C30.4556 26.5467 30.5682 26.6117 30.6795 26.6009C30.8488 26.5936 30.8912 26.468 30.8484 26.3083Z" fill="white"/>
<path d="M19.0871 28.9268C19.2339 28.9065 19.2811 28.7987 19.23 28.6791C19.1932 28.6129 19.0937 28.5254 19.0357 28.5219C18.9196 28.5149 18.8274 28.5967 18.8702 28.7565C18.8857 28.8856 18.945 28.9648 19.0871 28.9268Z" fill="white"/>
<path d="M48.2335 20.5274C48.3045 20.5084 48.392 20.4088 48.3908 20.333C48.3977 20.217 48.3337 20.12 48.1691 20.145C48.0271 20.1831 47.9526 20.2601 48.0262 20.3927C48.063 20.4589 48.1803 20.5417 48.2335 20.5274Z" fill="white"/>
<path d="M7.83137 30.9544C7.76373 30.9153 7.69132 30.8585 7.63797 30.8728C7.58462 30.8871 7.55033 30.9725 7.48523 31.0852C7.611 31.1278 7.70119 31.1799 7.73199 31.1525C7.78058 31.1205 7.79232 31.022 7.83137 30.9544Z" fill="white"/>
<path d="M14.1452 27.531C14.1842 27.4635 14.2635 27.4042 14.2492 27.3509C14.2527 27.2929 14.1627 27.2409 14.0631 27.1534C14.0029 27.2837 13.9461 27.356 13.9604 27.4093C13.9924 27.4578 14.0955 27.4872 14.1452 27.531Z" fill="white"/>
<path d="M43.4185 18.9647C43.4042 18.9114 43.3012 18.8819 43.2514 18.8382C43.2124 18.9057 43.1332 18.965 43.1474 19.0183C43.1439 19.0763 43.234 19.1283 43.3336 19.2158C43.3808 19.108 43.4375 19.0357 43.4185 18.9647Z" fill="white"/>
<path d="M36.9699 22.5936C36.9557 22.5403 36.8524 22.5108 36.7765 22.512C36.741 22.5216 36.6711 22.6165 36.6854 22.6699C36.7045 22.741 36.7721 22.7801 36.8718 22.8677C36.9274 22.7194 37.002 22.6422 36.9699 22.5936Z" fill="white"/>
<path d="M32.0433 21.2503C32.029 21.1969 31.921 21.1496 31.8499 21.1687C31.7965 21.183 31.767 21.2862 31.6971 21.3811C31.8229 21.4237 31.9131 21.4758 31.9439 21.4484C32.0103 21.4116 32.0576 21.3036 32.0433 21.2503Z" fill="white"/>
<path d="M25.5154 25.2256C25.5688 25.2113 25.5853 25.1307 25.6291 25.0808C25.5793 25.037 25.5246 24.9754 25.4665 24.9719C25.4262 24.9636 25.3741 25.0538 25.2947 25.1132C25.4075 25.1783 25.4799 25.2352 25.5154 25.2256Z" fill="white"/>
</g>
<path d="M33.1518 23.8546C32.7577 23.8546 32.446 23.5338 32.446 23.1488C32.446 22.8096 32.1068 22.1038 31.5385 21.4896C30.9793 20.8938 30.3652 20.5455 29.8518 20.5455C29.4577 20.5455 29.146 20.2246 29.146 19.8396C29.146 19.4546 29.4668 19.1338 29.8518 19.1338C30.7685 19.1338 31.731 19.6288 32.5743 20.518C33.3627 21.3521 33.8668 22.388 33.8668 23.1396C33.8668 23.5338 33.546 23.8546 33.1518 23.8546Z" fill="#1E1E1E"/>
<path d="M36.4606 23.8538C36.0665 23.8538 35.7548 23.533 35.7548 23.148C35.7548 19.8938 33.1056 17.2538 29.8606 17.2538C29.4665 17.2538 29.1548 16.933 29.1548 16.548C29.1548 16.163 29.4665 15.833 29.8515 15.833C33.8848 15.833 37.1665 19.1147 37.1665 23.148C37.1665 23.533 36.8456 23.8538 36.4606 23.8538Z" fill="#1E1E1E"/>
<path d="M27.1293 27.7038L25.4335 29.3997C25.076 29.7572 24.5077 29.7572 24.141 29.4088C24.0402 29.308 23.9393 29.2163 23.8385 29.1155C22.8943 28.1622 22.0418 27.163 21.281 26.118C20.5293 25.073 19.9243 24.028 19.4843 22.9922C19.0535 21.9472 18.8335 20.948 18.8335 19.9947C18.8335 19.3713 18.9435 18.7755 19.1635 18.2255C19.3835 17.6663 19.7318 17.153 20.2177 16.6947C20.8043 16.1172 21.446 15.833 22.1243 15.833C22.381 15.833 22.6377 15.888 22.8668 15.998C23.1052 16.108 23.316 16.273 23.481 16.5113L25.6077 19.5088C25.7727 19.738 25.8918 19.9488 25.9743 20.1505C26.0568 20.343 26.1027 20.5355 26.1027 20.7097C26.1027 20.9297 26.0385 21.1497 25.9102 21.3605C25.791 21.5713 25.6168 21.7913 25.3968 22.0113L24.7002 22.7355C24.5993 22.8363 24.5535 22.9555 24.5535 23.1022C24.5535 23.1755 24.5627 23.2397 24.581 23.313C24.6085 23.3863 24.636 23.4413 24.6543 23.4963C24.8193 23.7988 25.1035 24.193 25.5068 24.6697C25.9193 25.1463 26.3593 25.6322 26.836 26.118C26.9277 26.2097 27.0285 26.3013 27.1202 26.393C27.4868 26.7505 27.496 27.3372 27.1293 27.7038Z" fill="#1E1E1E"/>
<path d="M37.139 30.8026C37.139 31.0593 37.0931 31.3251 37.0015 31.5818C36.974 31.6551 36.9465 31.7285 36.9098 31.8018C36.754 32.1318 36.5523 32.4435 36.2865 32.7368C35.8373 33.2318 35.3423 33.5893 34.7831 33.8185C34.774 33.8185 34.7648 33.8276 34.7556 33.8276C34.2148 34.0476 33.6281 34.1668 32.9956 34.1668C32.0606 34.1668 31.0615 33.9468 30.0073 33.4976C28.9531 33.0485 27.899 32.4435 26.854 31.6826C26.4965 31.4168 26.139 31.1509 25.7998 30.8668L28.7973 27.8693C29.054 28.0618 29.2831 28.2085 29.4756 28.3093C29.5215 28.3276 29.5765 28.3551 29.6406 28.3826C29.714 28.4101 29.7873 28.4193 29.8698 28.4193C30.0256 28.4193 30.1448 28.3643 30.2456 28.2635L30.9423 27.576C31.1715 27.3468 31.3915 27.1726 31.6023 27.0626C31.8131 26.9343 32.024 26.8701 32.2531 26.8701C32.4273 26.8701 32.6106 26.9068 32.8123 26.9893C33.014 27.0718 33.2248 27.191 33.454 27.3468L36.4881 29.501C36.7265 29.666 36.8915 29.8584 36.9923 30.0876C37.084 30.3168 37.139 30.546 37.139 30.8026Z" fill="#1E1E1E"/>
</g>
<defs>
<filter id="filter0_f_81_10977" x="0.737305" y="0" width="54.5254" height="51" filterUnits="userSpaceOnUse" color-interpolation-filters="sRGB">
<feFlood flood-opacity="0" result="BackgroundImageFix"/>
<feBlend mode="normal" in="SourceGraphic" in2="BackgroundImageFix" result="shape"/>
<feGaussianBlur stdDeviation="2" result="effect1_foregroundBlur_81_10977"/>
</filter>
</defs>
</svg>
