<svg width="101" height="100" viewBox="0 0 101 100" fill="none" xmlns="http://www.w3.org/2000/svg">
<rect x="1.16672" y="0.5" width="99" height="99" rx="5.5" fill="#F3FAFF"/>
<rect x="1.16672" y="0.5" width="99" height="99" rx="5.5" stroke="#0092E5"/>
<path d="M80.6667 53.75C80.6667 49.5972 78.8518 45.7679 75.6667 43.1446V37.5C75.6667 33.3289 73.0988 29.7478 69.4616 28.25C70.2118 27.3752 70.6667 26.2401 70.6667 25C70.6667 22.243 68.4238 20 65.6667 20C62.9097 20 60.6667 22.243 60.6667 25C60.6667 26.2401 61.1216 27.3752 61.8718 28.25C58.2346 29.7478 55.6667 33.3289 55.6667 37.5V40H45.6667V37.5C45.6667 33.3289 43.0988 29.7478 39.4616 28.25C40.2118 27.3751 40.6667 26.24 40.6667 25C40.6667 22.243 38.4238 20 35.6667 20C32.9097 20 30.6667 22.243 30.6667 25C30.6667 26.2401 31.1216 27.3752 31.8718 28.25C28.2346 29.7478 25.6667 33.3289 25.6667 37.5V43.1446C22.4817 45.7679 20.6667 49.5972 20.6667 53.75C20.6667 58.9399 23.5851 63.6279 28.0976 65.9625C26.535 67.762 25.6667 70.0588 25.6667 72.5V78.75C25.6667 79.4403 26.2265 80 26.9167 80H44.4167C45.1071 80 45.6667 79.4403 45.6667 78.75V72.5C45.6667 70.7134 45.2 69.0029 44.328 67.5H57.0056C56.1336 69.0029 55.6667 70.7134 55.6667 72.5V78.75C55.6667 79.4403 56.2265 80 56.9167 80H74.4167C75.1071 80 75.6667 79.4403 75.6667 78.75V72.5C75.6667 70.0588 74.7985 67.762 73.236 65.9625C77.7483 63.6279 80.6667 58.9398 80.6667 53.75ZM63.1667 25C63.1667 23.6215 64.2883 22.5 65.6667 22.5C67.0452 22.5 68.1667 23.6215 68.1667 25C68.1667 26.3785 67.0452 27.5 65.6667 27.5C64.2883 27.5 63.1667 26.3785 63.1667 25ZM58.1667 37.5C58.1667 33.3645 61.5312 30 65.6667 30C69.8022 30 73.1667 33.3645 73.1667 37.5V41.4974C72.3675 41.0893 71.5302 40.7607 70.6667 40.5163V38.75C70.6667 38.0596 70.1071 37.5 69.4167 37.5C68.7265 37.5 68.1667 38.0596 68.1667 38.75V40.0557C67.2712 39.976 66.8077 40.0055 63.1667 40V38.75C63.1667 38.0596 62.6071 37.5 61.9167 37.5C61.2265 37.5 60.6667 38.0596 60.6667 38.75V40H58.1667V37.5ZM33.1667 25C33.1667 23.6215 34.2883 22.5 35.6667 22.5C37.0452 22.5 38.1667 23.6215 38.1667 25C38.1667 26.3785 37.0452 27.5 35.6667 27.5C34.2883 27.5 33.1667 26.3785 33.1667 25ZM28.1667 37.5C28.1667 33.3645 31.5312 30 35.6667 30C39.8022 30 43.1667 33.3645 43.1667 37.5V40H40.6667V38.75C40.6667 38.0596 40.1071 37.5 39.4167 37.5C38.7265 37.5 38.1667 38.0596 38.1667 38.75V40C34.343 40.0037 34.0465 39.9776 33.1667 40.0557V38.75C33.1667 38.0596 32.6071 37.5 31.9167 37.5C31.2265 37.5 30.6667 38.0596 30.6667 38.75V40.5161C29.8052 40.7714 29.0453 41.0471 28.1667 41.4972V37.5ZM43.1667 77.5H40.6667V73.75C40.6667 73.0597 40.1071 72.5 39.4167 72.5C38.7265 72.5 38.1667 73.0597 38.1667 73.75V77.5H33.1667V73.75C33.1667 73.0597 32.6071 72.5 31.9167 72.5C31.2265 72.5 30.6667 73.0597 30.6667 73.75V77.5H28.1667V72.5C28.1667 70.157 29.234 67.9907 31.095 66.5566C34.0447 64.2836 38.2281 64.5127 40.9135 67.1429C42.3666 68.5664 43.1667 70.4689 43.1667 72.5V77.5ZM35.6667 62.5C34.2883 62.5 33.1667 61.3785 33.1667 60C33.1667 58.6215 34.2883 57.5 35.6667 57.5C37.0452 57.5 38.1667 58.6215 38.1667 60C38.1667 61.3785 37.0452 62.5 35.6667 62.5ZM73.1667 77.5H70.6667V73.75C70.6667 73.0597 70.1071 72.5 69.4167 72.5C68.7265 72.5 68.1667 73.0597 68.1667 73.75V77.5H63.1667V73.75C63.1667 73.0597 62.6071 72.5 61.9167 72.5C61.2265 72.5 60.6667 73.0597 60.6667 73.75V77.5H58.1667V72.5C58.1667 68.3334 61.5498 65 65.6667 65C69.7366 65 73.1667 68.2854 73.1667 72.5V77.5ZM65.6667 62.5C64.2883 62.5 63.1667 61.3785 63.1667 60C63.1667 58.6215 64.2883 57.5 65.6667 57.5C67.0452 57.5 68.1667 58.6215 68.1667 60C68.1667 61.3785 67.0452 62.5 65.6667 62.5ZM71.1857 64.1615C70.6429 63.8017 70.0665 63.4953 69.4646 63.2466C70.2131 62.3724 70.6667 61.2384 70.6667 60C70.6667 57.243 68.4238 55 65.6667 55C62.9097 55 60.6667 57.243 60.6667 60C60.6667 61.2381 61.1201 62.3719 61.8683 63.2461C60.9061 63.6397 59.9178 64.2371 59.0543 65H42.2791C41.4123 64.2344 40.4102 63.6316 39.4651 63.2461C40.2133 62.3719 40.6667 61.2381 40.6667 60C40.6667 57.243 38.4238 55 35.6667 55C32.9097 55 30.6667 57.243 30.6667 60C30.6667 61.2384 31.1203 62.3724 31.8688 63.2466C31.2672 63.4959 30.6909 63.8022 30.1477 64.1615C25.9468 62.4401 23.1667 58.3333 23.1667 53.75C23.1667 47.381 28.3473 42.5 34.4167 42.5H66.9167C72.9901 42.5 78.1667 47.3844 78.1667 53.75C78.1667 58.3333 75.3867 62.4401 71.1857 64.1615Z" fill="#0092E5"/>
<path d="M33.1667 48.75C32.4765 48.75 31.9167 49.3096 31.9167 50V52.5C31.9167 53.1902 32.4765 53.75 33.1667 53.75C33.8571 53.75 34.4167 53.1902 34.4167 52.5V50C34.4167 49.3096 33.8571 48.75 33.1667 48.75ZM38.1667 48.75C37.4765 48.75 36.9167 49.3096 36.9167 50V52.5C36.9167 53.1902 37.4765 53.75 38.1667 53.75C38.8571 53.75 39.4167 53.1902 39.4167 52.5V50C39.4167 49.3096 38.8571 48.75 38.1667 48.75ZM43.1667 48.75C42.4765 48.75 41.9167 49.3096 41.9167 50V52.5C41.9167 53.1902 42.4765 53.75 43.1667 53.75C43.8571 53.75 44.4167 53.1902 44.4167 52.5V50C44.4167 49.3096 43.8571 48.75 43.1667 48.75ZM59.4167 48.75C58.7265 48.75 58.1667 49.3096 58.1667 50V52.5C58.1667 53.1902 58.7265 53.75 59.4167 53.75C60.1071 53.75 60.6667 53.1902 60.6667 52.5V50C60.6667 49.3096 60.1071 48.75 59.4167 48.75ZM64.4167 48.75C63.7265 48.75 63.1667 49.3096 63.1667 50V52.5C63.1667 53.1902 63.7265 53.75 64.4167 53.75C65.1071 53.75 65.6667 53.1902 65.6667 52.5V50C65.6667 49.3096 65.1071 48.75 64.4167 48.75ZM69.4167 48.75C68.7265 48.75 68.1667 49.3096 68.1667 50V52.5C68.1667 53.1902 68.7265 53.75 69.4167 53.75C70.1071 53.75 70.6667 53.1902 70.6667 52.5V50C70.6667 49.3096 70.1071 48.75 69.4167 48.75Z" fill="#0092E5"/>
</svg>
