<svg width="96" height="96" viewBox="0 0 96 96" fill="none" xmlns="http://www.w3.org/2000/svg">
<g clip-path="url(#clip0_125_8001)">
<path d="M73.5 51.75C70.0588 51.7443 66.6654 52.5566 63.5997 54.1198C60.534 55.6831 57.8838 57.9527 55.8675 60.7414C53.8512 63.5301 52.5266 66.7581 52.0029 70.1593C51.4792 73.5605 51.7714 77.0374 52.8554 80.3035L64.5352 70.292C64.9657 69.9232 65.5195 69.7304 66.086 69.7521C66.6524 69.7739 67.1899 70.0085 67.5909 70.4092L73.5 76.3184L77.8184 72L76.4092 70.5909C76.0954 70.2759 75.8819 69.875 75.7956 69.4389C75.7093 69.0028 75.754 68.5508 75.9242 68.1401C76.0943 67.7293 76.3822 67.3781 76.7516 67.1308C77.121 66.8834 77.5554 66.7509 78 66.75H84C84.5962 66.7519 85.1674 66.9895 85.589 67.4111C86.0105 67.8326 86.2482 68.4039 86.25 69V75C86.2492 75.4447 86.1168 75.8791 85.8695 76.2486C85.6221 76.6181 85.2709 76.9061 84.8601 77.0762C84.4493 77.2464 83.9973 77.2911 83.5611 77.2047C83.125 77.1183 82.7241 76.9047 82.4092 76.5909L81 75.1817L75.0909 81.0909C74.882 81.2998 74.634 81.4656 74.361 81.5787C74.0881 81.6918 73.7955 81.75 73.5 81.75C73.2046 81.75 72.912 81.6918 72.639 81.5787C72.3661 81.4656 72.1181 81.2998 71.9092 81.0909L65.8828 75.0645L54.8052 84.5595C56.7439 87.8352 59.5087 90.5443 62.8231 92.416C66.1374 94.2877 69.8852 95.2563 73.6914 95.2249C77.4976 95.1935 81.2288 94.1633 84.5119 92.2372C87.795 90.3111 90.5147 87.5567 92.3991 84.2496C94.2835 80.9424 95.2665 77.1985 95.2498 73.3922C95.233 69.5858 94.2171 65.8507 92.3037 62.5602C90.3902 59.2698 87.6463 56.5395 84.3464 54.6424C81.0465 52.7453 77.3064 51.7479 73.5 51.75Z" fill="#FFC100"/>
<path d="M88.5 0.75H7.5C5.71039 0.751949 3.99463 1.46373 2.72918 2.72918C1.46373 3.99463 0.751949 5.71039 0.75 7.5V76.5C0.751949 78.2896 1.46373 80.0054 2.72918 81.2708C3.99463 82.5363 5.71039 83.248 7.5 83.25H48C48.5967 83.25 49.169 83.0129 49.591 82.591C50.0129 82.169 50.25 81.5967 50.25 81C50.25 80.4033 50.0129 79.831 49.591 79.409C49.169 78.9871 48.5967 78.75 48 78.75H32.25V17.25H90.75V54C90.75 54.5967 90.9871 55.169 91.409 55.591C91.831 56.0129 92.4033 56.25 93 56.25C93.5967 56.25 94.169 56.0129 94.591 55.591C95.0129 55.169 95.25 54.5967 95.25 54V7.5C95.248 5.71039 94.5363 3.99463 93.2708 2.72918C92.0054 1.46373 90.2896 0.751949 88.5 0.75ZM27.75 78.75H7.5C6.90346 78.7494 6.33154 78.5121 5.90973 78.0903C5.48791 77.6685 5.25065 77.0965 5.25 76.5V17.25H27.75V78.75ZM5.25 12.75V7.5C5.25065 6.90346 5.48791 6.33154 5.90973 5.90973C6.33154 5.48791 6.90346 5.25065 7.5 5.25H88.5C89.0965 5.25065 89.6685 5.48791 90.0903 5.90973C90.5121 6.33154 90.7494 6.90346 90.75 7.5V12.75H5.25Z" fill="black"/>
<path d="M13.5 26.25H19.5C20.0967 26.25 20.669 26.0129 21.091 25.591C21.5129 25.169 21.75 24.5967 21.75 24C21.75 23.4033 21.5129 22.831 21.091 22.409C20.669 21.9871 20.0967 21.75 19.5 21.75H13.5C12.9033 21.75 12.331 21.9871 11.909 22.409C11.4871 22.831 11.25 23.4033 11.25 24C11.25 24.5967 11.4871 25.169 11.909 25.591C12.331 26.0129 12.9033 26.25 13.5 26.25ZM13.5 38.25H19.5C20.0967 38.25 20.669 38.0129 21.091 37.591C21.5129 37.169 21.75 36.5967 21.75 36C21.75 35.4033 21.5129 34.831 21.091 34.409C20.669 33.9871 20.0967 33.75 19.5 33.75H13.5C12.9033 33.75 12.331 33.9871 11.909 34.409C11.4871 34.831 11.25 35.4033 11.25 36C11.25 36.5967 11.4871 37.169 11.909 37.591C12.331 38.0129 12.9033 38.25 13.5 38.25ZM13.5 50.25H19.5C20.0967 50.25 20.669 50.0129 21.091 49.591C21.5129 49.169 21.75 48.5967 21.75 48C21.75 47.4033 21.5129 46.831 21.091 46.409C20.669 45.9871 20.0967 45.75 19.5 45.75H13.5C12.9033 45.75 12.331 45.9871 11.909 46.409C11.4871 46.831 11.25 47.4033 11.25 48C11.25 48.5967 11.4871 49.169 11.909 49.591C12.331 50.0129 12.9033 50.25 13.5 50.25ZM84 47.25C84.5967 47.25 85.169 47.0129 85.591 46.591C86.0129 46.169 86.25 45.5967 86.25 45V24C86.25 23.4033 86.0129 22.831 85.591 22.409C85.169 21.9871 84.5967 21.75 84 21.75H66C65.4033 21.75 64.831 21.9871 64.409 22.409C63.9871 22.831 63.75 23.4033 63.75 24V45C63.75 45.5967 63.9871 46.169 64.409 46.591C64.831 47.0129 65.4033 47.25 66 47.25H84ZM68.25 26.25H81.75V42.75H68.25V26.25ZM39 47.25H57C57.5967 47.25 58.169 47.0129 58.591 46.591C59.0129 46.169 59.25 45.5967 59.25 45V24C59.25 23.4033 59.0129 22.831 58.591 22.409C58.169 21.9871 57.5967 21.75 57 21.75H39C38.4033 21.75 37.831 21.9871 37.409 22.409C36.9871 22.831 36.75 23.4033 36.75 24V45C36.75 45.5967 36.9871 46.169 37.409 46.591C37.831 47.0129 38.4033 47.25 39 47.25ZM41.25 26.25H54.75V42.75H41.25V26.25ZM53.25 54C53.25 53.4033 53.0129 52.831 52.591 52.409C52.169 51.9871 51.5967 51.75 51 51.75H39C38.4033 51.75 37.831 51.9871 37.409 52.409C36.9871 52.831 36.75 53.4033 36.75 54C36.75 54.5967 36.9871 55.169 37.409 55.591C37.831 56.0129 38.4033 56.25 39 56.25H51C51.5967 56.25 52.169 56.0129 52.591 55.591C53.0129 55.169 53.25 54.5967 53.25 54ZM47.25 63C47.25 62.4033 47.0129 61.831 46.591 61.409C46.169 60.9871 45.5967 60.75 45 60.75H39C38.4033 60.75 37.831 60.9871 37.409 61.409C36.9871 61.831 36.75 62.4033 36.75 63C36.75 63.5967 36.9871 64.169 37.409 64.591C37.831 65.0129 38.4033 65.25 39 65.25H45C45.5967 65.25 46.169 65.0129 46.591 64.591C47.0129 64.169 47.25 63.5967 47.25 63ZM39 69.75C38.4033 69.75 37.831 69.9871 37.409 70.409C36.9871 70.831 36.75 71.4033 36.75 72C36.75 72.5967 36.9871 73.169 37.409 73.591C37.831 74.0129 38.4033 74.25 39 74.25H43.5C44.0967 74.25 44.669 74.0129 45.091 73.591C45.5129 73.169 45.75 72.5967 45.75 72C45.75 71.4033 45.5129 70.831 45.091 70.409C44.669 69.9871 44.0967 69.75 43.5 69.75H39Z" fill="black"/>
</g>
<defs>
<clipPath id="clip0_125_8001">
<rect width="96" height="96" fill="white"/>
</clipPath>
</defs>
</svg>
