<svg width="96" height="96" viewBox="0 0 96 96" fill="none" xmlns="http://www.w3.org/2000/svg">
<path d="M16.5 3.00293C16.1022 3.00293 15.7206 3.16108 15.4393 3.44238C15.158 3.72369 15 4.1051 15 4.50293V22.5029C15 22.9008 15.158 23.2822 15.4393 23.5635C15.7206 23.8448 16.1022 24.0029 16.5 24.0029H79.5C79.8978 24.0029 80.2794 23.8448 80.5607 23.5635C80.842 23.2822 81 22.9008 81 22.5029V4.50293C81 4.1051 80.842 3.72369 80.5607 3.44238C80.2794 3.16108 79.8978 3.00293 79.5 3.00293H16.5ZM18 6.00293H78V21.0029H18V6.00293Z" fill="#2B4255"/>
<path fill-rule="evenodd" clip-rule="evenodd" d="M57 12.0029V15.0029H75V12.0029H57Z" fill="#2B4255"/>
<path d="M16.5 30.0029C16.1022 30.0029 15.7206 30.1611 15.4393 30.4424C15.158 30.7237 15 31.1051 15 31.5029V49.5029C15 49.9008 15.158 50.2822 15.4393 50.5635C15.7206 50.8448 16.1022 51.0029 16.5 51.0029H79.5C79.8978 51.0029 80.2794 50.8448 80.5607 50.5635C80.842 50.2822 81 49.9008 81 49.5029V31.5029C81 31.1051 80.842 30.7237 80.5607 30.4424C80.2794 30.1611 79.8978 30.0029 79.5 30.0029H16.5ZM18 33.0029H78V48.0029H18V33.0029Z" fill="#2B4255"/>
<path d="M21 36H51V45H21V36Z" fill="#F8B84E"/>
<path fill-rule="evenodd" clip-rule="evenodd" d="M57 39.0029V42.0029H75V39.0029H57Z" fill="#2B4255"/>
<path d="M16.5 57.0029C16.1022 57.0029 15.7206 57.1611 15.4393 57.4424C15.158 57.7237 15 58.1051 15 58.5029V76.5029C15 76.9008 15.158 77.2822 15.4393 77.5635C15.7206 77.8448 16.1022 78.0029 16.5 78.0029H79.5C79.8978 78.0029 80.2794 77.8448 80.5607 77.5635C80.842 77.2822 81 76.9008 81 76.5029V58.5029C81 58.1051 80.842 57.7237 80.5607 57.4424C80.2794 57.1611 79.8978 57.0029 79.5 57.0029H16.5ZM18 60.0029H78V75.0029H18V60.0029Z" fill="#2B4255"/>
<path d="M54 67.5C54 69.0913 53.3679 70.6174 52.2426 71.7426C51.1174 72.8679 49.5913 73.5 48 73.5C46.4087 73.5 44.8826 72.8679 43.7574 71.7426C42.6321 70.6174 42 69.0913 42 67.5C42 65.9087 42.6321 64.3826 43.7574 63.2574C44.8826 62.1321 46.4087 61.5 48 61.5C49.5913 61.5 51.1174 62.1321 52.2426 63.2574C53.3679 64.3826 54 65.9087 54 67.5Z" fill="#F8B84E"/>
<path fill-rule="evenodd" clip-rule="evenodd" d="M20.9375 63.0029V72.0029H23.9375V63.0029H20.9375ZM27.0005 63.0029V72.0029H30.0005V63.0029H27.0005ZM33.0005 63.0029V72.0029H36.0005V63.0029H33.0005ZM59.9375 63.0029V72.0029H62.9375V63.0029H59.9375ZM65.9375 63.0029V72.0029H68.9375V63.0029H65.9375ZM72.0005 63.0029V72.0029H75.0005V63.0029H72.0005ZM46.5005 24.0029V30.0029H49.5005V24.0029H46.5005ZM46.5005 51.0029V57.0029H49.5005V51.0029H46.5005Z" fill="#2B4255"/>
<path d="M42 84H54V96H42V84Z" fill="#F8B84E"/>
<path fill-rule="evenodd" clip-rule="evenodd" d="M6 88.8241V91.8241H42V88.8241H6ZM54 88.8241V91.8241H90V88.8241H54ZM46.5 78V84H49.5V78H46.5Z" fill="#2B4255"/>
<path d="M21 9H51V18H21V9Z" fill="#F8B84E"/>
</svg>
