<svg width="96" height="96" viewBox="0 0 96 96" fill="none" xmlns="http://www.w3.org/2000/svg">
<path d="M57.5387 11.0949C56.3926 11.2262 55.3291 11.756 54.5339 12.5916L42.8379 23.8057C40.2753 26.3399 41.7607 29.8947 44.5387 29.8947H51.6992V45.8484H63.9734V29.8947H71.1396C73.9176 29.8947 75.3746 26.476 72.8404 23.8L61.0877 12.5746C59.9312 11.384 58.6896 10.9929 57.533 11.1006L57.5387 11.0949Z" fill="#FFC100"/>
<path d="M37.8688 3.005C36.7237 3.13572 35.6606 3.66326 34.864 4.49606L23.1737 15.7101C20.6054 18.2444 22.0908 21.7991 24.8745 21.7991H32.035V45.8714H44.3092V21.7991H51.4753C54.259 21.7991 55.7104 18.3804 53.1761 15.7101L41.4178 4.47905C40.2556 3.28847 39.0197 2.89728 37.8688 3.005ZM12.759 45.3441L7.04422 57.2328C6.15979 60.9747 8.68268 64.1722 12.5265 64.1722H17.4419V45.3441H12.759Z" fill="#FFC100"/>
<path d="M27.224 67.8171C25.2227 67.8171 25.3701 70.9127 27.3714 70.8163H32.8084C34.8097 70.8163 34.8097 67.8115 32.8084 67.8115L27.224 67.8171ZM27.2353 76.8712C25.2341 76.8712 25.2341 79.876 27.2353 79.876H38.1093C40.1106 79.876 40.1106 76.8712 38.1093 76.8712H27.2353Z" fill="#00003A"/>
<path d="M38.5823 40.5703C37.9678 40.5736 37.3691 40.7653 36.8669 41.1195C36.3647 41.4736 35.9831 41.9731 35.7737 42.5508C35.5642 43.1285 35.5369 43.7567 35.6955 44.3504C35.854 44.9441 36.1908 45.4748 36.6604 45.8712H45.2835V40.5703H38.5823Z" fill="#FFC100"/>
<path d="M46.8537 64.172C42.2842 64.172 39.5969 61.2579 38.2419 57.8449L33.5703 45.3439H84.6403L88.9377 57.2326C89.8221 60.9744 87.3049 64.172 83.4611 64.172H46.8537Z" fill="#FFC100"/>
<path d="M51.7031 40.5703V45.8485H63.9831V40.5703H51.7031Z" fill="#FFC100"/>
<path d="M38.0016 1.67578C36.5075 1.68778 35.0765 2.26979 33.9035 3.34379C29.813 7.26482 25.613 11.2744 22.1104 14.6494C19.1044 17.9914 20.6629 23.3059 24.8675 23.3059H32.033C34.034 23.3059 34.034 20.3059 32.033 20.3059H24.8675C23.003 20.3059 22.9385 17.9119 24.215 16.7839L35.906 5.57881C37.5111 4.0203 38.8641 4.1433 40.3806 5.56681L52.0957 16.7614C53.5312 18.2734 52.9957 20.3059 51.4657 20.3059H44.3001C43.9044 20.3075 43.5253 20.4654 43.2454 20.7452C42.9656 21.0251 42.8077 21.4042 42.8061 21.7999V43.8501C39.5181 43.8501 36.665 43.8471 33.5285 43.8501V28.928C33.5285 27.9275 32.7785 27.425 32.0285 27.425C31.2785 27.425 30.5285 27.9275 30.5285 28.928V43.8486C26.2055 43.8516 21.1294 43.8486 17.4409 43.8486C16.4059 43.8486 15.9469 44.7336 15.9469 45.3441V62.6707H12.5254C9.78336 62.6707 7.71035 59.8132 8.51735 57.6307L14.1064 45.9951C15.0094 44.0751 12.2164 43.1076 11.4064 44.6886L5.69133 56.5807C4.21232 60.8482 8.02085 65.5972 12.5254 65.6707H15.9454V85.4964C15.9454 90.4554 19.9804 94.4994 24.938 94.4994H77.1338C79.5201 94.4947 81.8073 93.5446 83.4947 91.8573C85.1821 90.1699 86.1321 87.8827 86.1369 85.4964V69.7463C86.0919 67.7903 83.1804 67.7903 83.1369 69.7463V85.4964C83.1427 86.2864 82.9914 87.0697 82.6917 87.8007C82.3921 88.5317 81.9502 89.1959 81.3916 89.7546C80.833 90.3133 80.169 90.7554 79.438 91.0552C78.7071 91.355 77.9239 91.5065 77.1338 91.5009H24.938C24.1481 91.5065 23.365 91.355 22.6341 91.0553C21.9033 90.7556 21.2393 90.3137 20.6807 89.7551C20.1222 89.1966 19.6802 88.5326 19.3805 87.8017C19.0808 87.0709 18.9293 86.2878 18.9349 85.4979V46.8486H32.5235L36.8526 58.3987C38.3466 62.1727 41.6391 65.6737 46.8486 65.6737H83.4609C89.0319 65.6737 91.5339 61.1077 90.3459 56.7247L86.0499 44.8341C85.9374 44.5219 85.7246 44.2558 85.4448 44.0775C85.1649 43.8992 84.8339 43.8187 84.5034 43.8486C79.1334 43.8381 72.0383 43.8501 65.4833 43.8486V31.3055H71.1443C76.2698 31.3055 76.6643 25.0204 73.9343 22.6804C70.0193 18.9289 66.0818 15.1804 62.1607 11.4304C59.2672 8.90283 55.9207 9.17283 53.4802 11.4424L52.1767 12.6904C48.9486 9.60334 45.7131 6.51782 42.4866 3.42929C41.0526 2.22179 39.4971 1.66528 38.0031 1.67728L38.0016 1.67578ZM57.9877 12.5779C58.7632 12.6334 59.4802 13.0234 60.0577 13.5679L71.7728 24.7624C73.1108 26.1305 72.7958 28.307 71.1428 28.307H63.9757C63.58 28.3086 63.2009 28.4665 62.9211 28.7463C62.6412 29.0261 62.4833 29.4052 62.4817 29.801V43.8486H53.2057V30.665C53.2057 29.411 52.5262 28.307 51.0907 28.307H45.8076V23.3029H51.4687C56.2312 23.3029 57.0967 17.6404 54.3397 14.7724L55.5847 13.5799C56.3827 12.7969 57.2137 12.5209 57.9877 12.5779ZM45.8076 31.307H50.2026V43.8486H45.8076V31.307ZM35.7275 46.8486H83.5854L87.4749 57.5887C87.8169 59.0512 87.4989 60.2812 86.7894 61.1782C86.0799 62.0782 84.9624 62.6722 83.4564 62.6722H46.8486C42.9141 62.6722 40.8381 60.3427 39.6306 57.2902L35.7275 46.8486Z" fill="#00003A"/>
</svg>
