<svg width="96" height="96" viewBox="0 0 96 96" fill="none" xmlns="http://www.w3.org/2000/svg">
<path d="M34.5 76.5H61.5V88.5H34.5V76.5Z" fill="#FFC100"/>
<path d="M60 76.5V70.5C60 64.245 63.1515 57.8415 67.5 54C73.845 48.51 78 40.56 78 31.5C78 14.925 64.575 1.5 48 1.5C31.425 1.5 18 14.925 18 31.5C18 40.56 22.155 48.51 28.5 54C32.8485 57.8415 36 64.245 36 70.5V76.5M31.5 76.5H64.5M31.5 82.5H64.5M31.5 88.5H64.5M54 88.5V91.5C54 92.268 53.7075 93.0345 53.121 93.621C52.5345 94.2075 51.768 94.5 51 94.5H45C44.232 94.5 43.4655 94.2075 42.879 93.621C42.2925 93.0345 42 92.268 42 91.5V88.5" stroke="#34303D" stroke-width="2" stroke-miterlimit="10"/>
<path d="M48 54C60.4264 54 70.5 43.9264 70.5 31.5C70.5 19.0736 60.4264 9 48 9C35.5736 9 25.5 19.0736 25.5 31.5C25.5 43.9264 35.5736 54 48 54Z" fill="#FFC100"/>
<path d="M48 18V36M48 39V45" stroke="white" stroke-width="4" stroke-miterlimit="10"/>
<path d="M70.5708 71.2047C67.3008 70.6062 63.7758 69.8397 60.0708 68.8647C54.9723 67.5147 49.5408 65.8197 43.9458 63.7647C40.0458 62.3397 36.3258 60.8397 32.8008 59.2797L32.7858 59.2647C13.8108 50.9247 1.07578 41.2497 2.99578 35.9997C4.09078 33.0147 9.71578 32.0097 18.0258 32.7597M71.6358 49.6647C85.8423 56.9697 94.6308 64.5597 92.9958 68.9997C92.1873 71.1927 88.4958 71.9997 83.9958 71.9997" stroke="#34303D" stroke-width="2" stroke-miterlimit="10"/>
<path d="M75 78C78.3137 78 81 75.3137 81 72C81 68.6863 78.3137 66 75 66C71.6863 66 69 68.6863 69 72C69 75.3137 71.6863 78 75 78Z" fill="#FFC100"/>
</svg>
