<svg width="32" height="32" viewBox="0 0 32 32" fill="none" xmlns="http://www.w3.org/2000/svg">
<path d="M22.4615 2H9.53846C7.53979 2.00214 5.6236 2.79705 4.21033 4.21033C2.79705 5.6236 2.00214 7.53979 2 9.53846V22.4615C2.00214 24.4602 2.79705 26.3764 4.21033 27.7897C5.6236 29.2029 7.53979 29.9979 9.53846 30H22.4615C24.4602 29.9979 26.3764 29.2029 27.7897 27.7897C29.2029 26.3764 29.9979 24.4602 30 22.4615V9.53846C29.9979 7.53979 29.2029 5.6236 27.7897 4.21033C26.3764 2.79705 24.4602 2.00214 22.4615 2ZM16 22.4615C14.722 22.4615 13.4728 22.0826 12.4102 21.3726C11.3476 20.6626 10.5194 19.6534 10.0303 18.4727C9.54126 17.292 9.4133 15.9928 9.66262 14.7394C9.91194 13.486 10.5273 12.3347 11.431 11.431C12.3347 10.5273 13.486 9.91194 14.7394 9.66262C15.9928 9.4133 17.292 9.54126 18.4727 10.0303C19.6534 10.5194 20.6626 11.3476 21.3726 12.4102C22.0826 13.4728 22.4615 14.722 22.4615 16C22.4598 17.7132 21.7784 19.3556 20.567 20.567C19.3556 21.7784 17.7132 22.4598 16 22.4615ZM24.0769 9.53846C23.7574 9.53846 23.4451 9.44372 23.1795 9.26622C22.9138 9.08872 22.7068 8.83643 22.5845 8.54126C22.4622 8.24609 22.4302 7.92128 22.4926 7.60793C22.5549 7.29458 22.7088 7.00674 22.9347 6.78083C23.1606 6.55491 23.4484 6.40106 23.7618 6.33873C24.0751 6.2764 24.3999 6.30839 24.6951 6.43066C24.9903 6.55292 25.2426 6.75997 25.4201 7.02562C25.5976 7.29127 25.6923 7.60358 25.6923 7.92308C25.6923 8.3515 25.5221 8.76238 25.2192 9.06533C24.9162 9.36827 24.5054 9.53846 24.0769 9.53846ZM20.3077 16C20.3077 16.852 20.055 17.6848 19.5817 18.3932C19.1084 19.1016 18.4356 19.6537 17.6485 19.9798C16.8614 20.3058 15.9952 20.3911 15.1596 20.2249C14.324 20.0587 13.5564 19.6484 12.954 19.046C12.3516 18.4436 11.9413 17.676 11.7751 16.8404C11.6089 16.0048 11.6942 15.1386 12.0202 14.3515C12.3463 13.5644 12.8984 12.8916 13.6068 12.4183C14.3152 11.945 15.148 11.6923 16 11.6923C17.1425 11.6923 18.2381 12.1462 19.046 12.954C19.8538 13.7619 20.3077 14.8575 20.3077 16Z" fill="white"/>
</svg>
