<svg width="60" height="60" viewBox="0 0 60 60" fill="none" xmlns="http://www.w3.org/2000/svg">
<circle cx="30" cy="30" r="29.5775" fill="#F3FAFF" stroke="#0092E5" stroke-width="0.84507"/>
<path d="M44.3181 32.7739C44.0975 32.7188 43.8802 32.6519 43.6672 32.5736C42.7541 32.2586 41.9816 31.6458 41.4813 30.8395C40.2155 29.0399 36.8982 24.308 35.6776 22.5749C35.4737 22.2828 35.162 22.078 34.8071 22.003C34.4521 21.9281 34.0811 21.9887 33.7708 22.1723C33.4606 22.3559 33.2349 22.6484 33.1405 22.9893C33.0462 23.3301 33.0903 23.6932 33.2639 24.0033L36.1657 29.2424C36.1896 29.2862 36.2003 29.3356 36.1967 29.385C36.1931 29.4344 36.1754 29.4818 36.1454 29.5219C36.1155 29.562 36.0746 29.5931 36.0273 29.6117C35.9801 29.6303 35.9285 29.6357 35.8783 29.6272L21.0923 26.9233C20.7233 26.8595 20.3432 26.9383 20.0332 27.143C19.7231 27.3476 19.5076 27.6619 19.4326 28.0188C19.3576 28.3756 19.429 28.7468 19.6317 29.0532C19.8344 29.3596 20.1522 29.577 20.5174 29.6589L26.4893 30.85C26.5252 30.8582 26.559 30.8734 26.5887 30.8947C26.6183 30.916 26.6432 30.943 26.6618 30.9739C26.6804 31.0049 26.6923 31.0392 26.6968 31.0748C26.7013 31.1104 26.6983 31.1465 26.688 31.1809C26.6777 31.2153 26.6602 31.2473 26.6367 31.275C26.6133 31.3026 26.5842 31.3253 26.5514 31.3417C26.5186 31.3581 26.4827 31.3678 26.4459 31.3703C26.4091 31.3727 26.3722 31.3679 26.3373 31.356C26.32 31.3583 17.7132 29.643 17.7132 29.643C17.3535 29.5746 16.9806 29.6469 16.6756 29.8443C16.3706 30.0417 16.1582 30.3481 16.0845 30.697C16.0109 31.0458 16.082 31.4088 16.2824 31.707C16.4828 32.0051 16.7962 32.2143 17.1545 32.289L26.2777 34.1021C26.3469 34.1174 26.4072 34.1583 26.4457 34.2162C26.4841 34.2742 26.4977 34.3444 26.4835 34.412C26.4694 34.4795 26.4285 34.539 26.3697 34.5776C26.311 34.6162 26.239 34.6309 26.1692 34.6186L19.3404 33.264C18.9766 33.1969 18.6002 33.2716 18.2926 33.4721C17.985 33.6725 17.7711 33.9826 17.6969 34.3352C17.6228 34.6878 17.6945 35.0545 17.8965 35.3561C18.0985 35.6577 18.4145 35.87 18.7763 35.9469L26.5164 37.4807C26.5869 37.4967 26.6479 37.5394 26.686 37.5992C26.7242 37.659 26.7363 37.731 26.7198 37.7995C26.7032 37.868 26.6594 37.9273 26.5978 37.9644C26.5363 38.0015 26.4621 38.0133 26.3916 37.9972L21.2822 36.9799C21.1214 36.9464 20.9554 36.945 20.794 36.9759C20.6327 37.0067 20.4796 37.069 20.3438 37.1592C20.1413 37.2939 19.9838 37.4832 19.8905 37.7038C19.7973 37.9245 19.7726 38.1668 19.8193 38.4009C19.866 38.635 19.9821 38.8508 20.1534 39.0216C20.3246 39.1924 20.5436 39.3109 20.7832 39.3623L35.1406 42.2138C35.6275 42.3062 36.1323 42.2356 36.5726 42.0135C37.9721 41.3194 39.5721 41.1057 41.1125 41.4074L42.4414 41.6709C42.5187 41.6866 42.5984 41.6872 42.6759 41.6729C42.7535 41.6586 42.8274 41.6296 42.8934 41.5875C42.9594 41.5453 43.0162 41.491 43.0605 41.4276C43.1049 41.3641 43.136 41.2928 43.1519 41.2176L44.7736 33.5065C44.8088 33.3509 44.7812 33.1881 44.6964 33.0518C44.6116 32.9154 44.4762 32.816 44.3181 32.7739Z" fill="#0092E5"/>
<path d="M41.9464 30.6179C42.4194 31.3071 43.121 31.8322 43.9437 32.1126C43.552 31.8415 43.223 31.499 42.9766 31.1057C42.7302 30.7125 42.5715 30.2766 42.51 29.8244L40.8793 20.8662C40.7942 20.4305 40.5349 20.0415 40.1543 19.7781C39.7736 19.5148 39.3 19.3969 38.8298 19.4483C38.3595 19.4998 37.9279 19.7169 37.6225 20.0553C37.3171 20.3938 37.1609 20.8283 37.1857 21.2706L37.3991 24.3829L41.9464 30.6179Z" fill="#0092E5"/>
<path d="M25.828 25.8249L22.3228 23.3944C22.0451 23.2093 21.7017 23.1348 21.3666 23.1869C21.0315 23.2391 20.7314 23.4138 20.5311 23.6734C20.3307 23.9329 20.2461 24.2566 20.2955 24.5746C20.3449 24.8927 20.5243 25.1796 20.795 25.3737L21.8298 26.0864C21.911 26.1428 35.493 28.7322 35.493 28.7322L32.8546 24.1071C32.666 23.7781 32.5885 23.4023 32.6325 23.0303L26.3372 18.8104C26.0504 18.6245 25.6978 18.5529 25.3556 18.611C25.0134 18.6691 24.7091 18.8523 24.5085 19.121C24.3079 19.3897 24.227 19.7224 24.2833 20.0471C24.3396 20.3717 24.5286 20.6624 24.8095 20.8563L29.3603 23.9995C29.4164 24.0403 29.4535 24.1003 29.4636 24.1666C29.4737 24.233 29.456 24.3004 29.4143 24.3546C29.3726 24.4088 29.3102 24.4454 29.2404 24.4566C29.1706 24.4679 29.0989 24.4529 29.0406 24.4148L22.3878 19.8103C22.1819 19.6773 21.9398 19.6035 21.6907 19.5975C21.4415 19.5915 21.1959 19.6537 20.9831 19.7766C20.7704 19.8994 20.5996 20.0778 20.4913 20.2902C20.383 20.5027 20.3417 20.7402 20.3725 20.9743C20.3982 21.1311 20.4564 21.2817 20.5438 21.4172C20.6312 21.5527 20.746 21.6705 20.8817 21.7639L26.1476 25.4095C26.2038 25.4504 26.2409 25.5104 26.251 25.5767C26.2611 25.643 26.2434 25.7105 26.2017 25.7647C26.16 25.8188 26.0976 25.8555 26.0278 25.8667C25.958 25.8779 25.8863 25.8629 25.828 25.8249Z" fill="#0092E5"/>
</svg>
