<svg width="100" height="100" viewBox="0 0 100 100" fill="none" xmlns="http://www.w3.org/2000/svg">
<rect x="0.5" y="0.5" width="99" height="99" rx="5.5" fill="#F3FAFF"/>
<rect x="0.5" y="0.5" width="99" height="99" rx="5.5" stroke="#0092E5"/>
<path d="M34 54V51C34 48.302 32.463 45.96 30.221 44.792C31.3 43.874 32 42.524 32 41C32 38.243 29.757 36 27 36C24.243 36 22 38.243 22 41C22 42.524 22.7 43.874 23.779 44.792C21.537 45.96 20 48.302 20 51V54C20 54.553 20.447 55 21 55H27H33C33.553 55 34 54.553 34 54ZM24 41C24 39.346 25.346 38 27 38C28.654 38 30 39.346 30 41C30 42.654 28.654 44 27 44C25.346 44 24 42.654 24 41ZM32 53H22V51C22 48.243 24.243 46 27 46C29.757 46 32 48.243 32 51V53ZM76.221 44.792C77.3 43.874 78 42.524 78 41C78 38.243 75.757 36 73 36C70.243 36 68 38.243 68 41C68 42.524 68.7 43.874 69.779 44.792C67.537 45.96 66 48.302 66 51V54C66 54.553 66.447 55 67 55H73H79C79.553 55 80 54.553 80 54V51C80 48.302 78.463 45.96 76.221 44.792ZM70 41C70 39.346 71.346 38 73 38C74.654 38 76 39.346 76 41C76 42.654 74.654 44 73 44C71.346 44 70 42.654 70 41ZM78 53H68V51C68 48.243 70.243 46 73 46C75.757 46 78 48.243 78 51V53ZM57 20H45C44.734 20 44.48 20.105 44.293 20.293L38.293 26.293C38.105 26.48 38 26.734 38 27V43C38 43.553 38.447 44 39 44H40V47C40 47.553 40.447 48 41 48H61C61.553 48 62 47.553 62 47V23C62 22.447 61.553 22 61 22H58V21C58 20.447 57.553 20 57 20ZM40 42V28H45C45.553 28 46 27.553 46 27V22H56V42H40ZM41.414 26L44 23.414V26H41.414ZM60 24V46H42V44H57C57.553 44 58 43.553 58 43V24H60Z" fill="#0092E5"/>
<path d="M54 30H42V32H54V30Z" fill="#0092E5"/>
<path d="M54 34H42V36H54V34Z" fill="#0092E5"/>
<path d="M54 38H42V40H54V38Z" fill="#0092E5"/>
<path d="M54 26H48V28H54V26Z" fill="#0092E5"/>
<path d="M62 55H38C36.346 55 35 56.346 35 58V70V72C35 73.654 36.346 75 38 75H45.523L44.323 78H41V80H45H55H59V78H55.677L54.477 75H62C63.654 75 65 73.654 65 72V70V58C65 56.346 63.654 55 62 55ZM53.523 78H46.476L47.676 75H52.322L53.523 78ZM62 73H53H47H38C37.448 73 37 72.552 37 72V58C37 57.448 37.448 57 38 57H62C62.552 57 63 57.448 63 58V69H59V71H63V72C63 72.552 62.552 73 62 73Z" fill="#0092E5"/>
<path d="M74 32H72V34H74V32Z" fill="#0092E5"/>
<path d="M74 28H72V30H74V28Z" fill="#0092E5"/>
<path d="M70 28H68V30H70V28Z" fill="#0092E5"/>
<path d="M66 28H64V30H66V28Z" fill="#0092E5"/>
<path d="M28 32H26V34H28V32Z" fill="#0092E5"/>
<path d="M28 28H26V30H28V28Z" fill="#0092E5"/>
<path d="M32 28H30V30H32V28Z" fill="#0092E5"/>
<path d="M36 28H34V30H36V28Z" fill="#0092E5"/>
<path d="M69.293 58.293L70.707 59.707L72 58.414V69H68.414L69.707 67.707L68.293 66.293L65.293 69.293C65.098 69.488 65 69.744 65 70C65 70.256 65.098 70.512 65.293 70.707L68.293 73.707L69.707 72.293L68.414 71H73C73.553 71 74 70.553 74 70V58.414L75.293 59.707L76.707 58.293L73.707 55.293C73.512 55.098 73.256 55 73 55C72.744 55 72.488 55.098 72.293 55.293L69.293 58.293ZM31.707 66.293L30.293 67.707L31.586 69H28V58.414L29.293 59.707L30.707 58.293L27.707 55.293C27.512 55.098 27.256 55 27 55C26.744 55 26.488 55.098 26.293 55.293L23.293 58.293L24.707 59.707L26 58.414V70C26 70.553 26.447 71 27 71H31.586L30.293 72.293L31.707 73.707L34.707 70.707C34.902 70.512 35 70.256 35 70C35 69.744 34.902 69.488 34.707 69.293L31.707 66.293ZM50 62C50.552 62 51 62.448 51 63H53C53 61.698 52.161 60.598 51 60.184V59H49V60.184C47.839 60.598 47 61.698 47 63C47 64.654 48.346 66 50 66C50.552 66 51 66.448 51 67C51 67.552 50.552 68 50 68C49.448 68 49 67.552 49 67H47C47 68.302 47.839 69.402 49 69.816V71H51V69.816C52.161 69.402 53 68.302 53 67C53 65.346 51.654 64 50 64C49.448 64 49 63.552 49 63C49 62.448 49.448 62 50 62Z" fill="#0092E5"/>
<path d="M57 69H55V71H57V69Z" fill="#0092E5"/>
</svg>
