<svg width="30" height="30" viewBox="0 0 30 30" fill="none" xmlns="http://www.w3.org/2000/svg">
<g clip-path="url(#clip0_74_511)">
<path d="M15.8053 22.1158C15.638 22.6272 15.3528 23.0994 14.9593 23.4732L14.379 22.2633C14.861 22.2043 15.3331 22.1551 15.8053 22.1158ZM15.5987 27.0534L13.3561 22.4207C12.225 22.5978 11.1036 22.8338 10.0413 23.1289L8.44793 23.7092L12.2938 28.7649C12.6086 29.1879 13.1594 29.3452 13.6512 29.1682L14.92 28.7058C15.5888 28.4599 15.9036 27.6928 15.5987 27.0534ZM3.83487 11.9553C0.815232 13.0569 -0.74865 16.4011 0.352969 19.4207C1.21853 21.7814 3.44147 23.2469 5.81191 23.2469C6.48074 23.2469 7.14958 23.1289 7.80863 22.8928L9.32334 22.342L5.34964 11.4044L3.83487 11.9553ZM16.3265 3.56517C13.4839 6.80123 9.61841 9.40772 6.25454 11.0208L10.2676 22.0469C13.8872 21.1322 18.5298 20.6404 22.7789 21.2896L16.3265 3.56517ZM26.6873 20.4734L19.8469 1.67961C19.5667 0.90973 18.7154 0.512778 17.9456 0.792993C17.1757 1.07321 16.7787 1.92448 17.0589 2.69436L23.8993 21.4882C24.1795 22.2581 25.0308 22.655 25.8007 22.3748C26.5706 22.0946 26.9675 21.2433 26.6873 20.4734ZM25.3328 6.77327L26.5306 5.05631C26.6862 4.83346 26.6315 4.52705 26.4086 4.37144C26.1887 4.21775 25.8803 4.27058 25.7237 4.49343L24.526 6.21039C24.3703 6.43324 24.4251 6.73965 24.6479 6.89526C24.7334 6.95481 24.8314 6.98363 24.9294 6.98363C25.084 6.98363 25.2368 6.91015 25.3328 6.77327ZM29.5083 14.5575C29.466 14.5575 29.4228 14.5522 29.3805 14.5407L27.3595 13.9951C27.0973 13.924 26.9417 13.6541 27.0128 13.3919C27.0829 13.1297 27.3576 12.9765 27.6151 13.0451L29.636 13.5907C29.8983 13.6618 30.0539 13.9317 29.9828 14.1939C29.9242 14.4134 29.7254 14.5575 29.5083 14.5575ZM26.2088 10.4978C26.0081 10.4978 25.8198 10.3739 25.7468 10.1741C25.6536 9.91904 25.7852 9.63665 26.0407 9.54395L28.0175 8.8245C28.273 8.73133 28.5545 8.86341 28.6476 9.11843C28.7408 9.37345 28.6092 9.65585 28.3537 9.74855L26.3769 10.468C26.3212 10.4882 26.2645 10.4978 26.2088 10.4978Z" fill="black"/>
</g>
<defs>
<clipPath id="clip0_74_511">
<rect width="30" height="30" fill="white"/>
</clipPath>
</defs>
</svg>
