<svg width="96" height="96" viewBox="0 0 96 96" fill="none" xmlns="http://www.w3.org/2000/svg">
<path d="M30.5234 2.99915V16.7361C30.5234 18.7714 32.1676 20.4042 34.1972 20.4042H44.3511C44.8335 20.4057 45.3114 20.3119 45.7575 20.1281C46.2035 19.9444 46.6088 19.6744 46.9502 19.3335C47.2916 18.9927 47.5622 18.5878 47.7467 18.142C47.9311 17.6963 48.0256 17.2185 48.0249 16.7361V2.99915H30.5234Z" fill="#FFC100"/>
<path d="M14.1658 48.4051C12.1588 48.4051 12.3062 51.5006 14.3075 51.4042H19.7501C21.7458 51.4042 21.7458 48.3994 19.7501 48.3994H14.1658V48.4051ZM14.1771 57.4591C12.1701 57.4591 12.1701 60.4639 14.1771 60.4639H25.051C27.0523 60.4639 27.0523 57.4591 25.051 57.4591H14.1771Z" fill="#00003A"/>
<path d="M65.0592 34.538C65.0592 50.3783 61.0169 55.6848 53.8111 55.6848H48V85.7383H50.6249C58.3977 85.7383 60.9999 90.5743 67.1229 90.5743H80.5934C92.8166 90.5743 92.981 67.2221 92.998 55.8776C87.1982 55.8776 75.5703 55.7812 75.5703 55.7812V41.8798C75.5703 36.2388 69.9746 34.538 65.0592 34.538Z" fill="#FFC100"/>
<path d="M10.8305 1.49121C5.69397 1.49121 1.51562 5.68101 1.51562 10.8175V64.5862C1.51562 69.7226 5.69398 73.9008 10.8248 73.9008H25.191C27.232 73.9462 27.232 70.8564 25.191 70.8961H10.8248C9.99372 70.9028 9.16959 70.7444 8.40032 70.4298C7.63106 70.1152 6.932 69.651 6.3438 69.0638C5.7556 68.4767 5.28999 67.7785 4.97404 67.0098C4.65809 66.2411 4.49811 65.4172 4.5034 64.5862V10.8175C4.5034 7.29112 7.30409 4.49045 10.8248 4.49045H29.0236V16.7364C29.0236 19.5768 31.365 21.8954 34.2054 21.8954H44.3536C47.194 21.8954 49.5298 19.5768 49.5298 16.7364V4.49045H67.7286C71.2549 4.49045 74.0443 7.29112 74.0443 10.8175V29.3053C73.9989 31.352 77.0888 31.352 77.0491 29.3053V10.8175C77.0491 5.68101 72.8651 1.49121 67.7342 1.49121H10.8305ZM32.0227 4.5017H46.525V16.7364C46.5304 17.0225 46.4781 17.3067 46.3712 17.5722C46.2643 17.8377 46.1051 18.079 45.903 18.2816C45.7009 18.4842 45.46 18.6441 45.1948 18.7517C44.9296 18.8592 44.6455 18.9124 44.3593 18.9077H34.2054C33.9182 18.9131 33.633 18.8607 33.3665 18.7536C33.1 18.6465 32.8577 18.4869 32.6541 18.2844C32.4505 18.0818 32.2897 17.8404 32.1812 17.5745C32.0727 17.3085 32.0188 17.0236 32.0227 16.7364V4.5017ZM63.5672 34.5325C63.5672 42.3279 62.5241 47.3964 60.8459 50.2992C59.1621 53.2076 57.0474 54.1884 53.8159 54.1884C51.7692 54.143 51.7692 57.2385 53.8159 57.1932C57.7844 57.1932 61.2995 55.515 63.4482 51.8072C65.3758 48.4736 66.0674 43.0594 66.2489 36.2845C68.1198 36.4149 70.0757 36.6416 71.4307 37.4013C73.0975 38.3367 74.0783 39.5557 74.0783 41.8802V55.7815C74.0783 56.6036 74.7416 57.267 75.558 57.2783C75.558 57.2783 85.2754 57.3519 91.3927 57.3632C91.3757 62.9986 91.3246 70.6354 89.9129 77.1665C89.1533 80.6759 88.0137 83.7657 86.4773 85.8577C84.9466 87.9553 83.1777 89.0666 80.5981 89.0666H67.1276C64.463 89.0666 62.6091 88.0461 60.1883 86.8215C57.7674 85.5969 54.8307 84.2419 50.6297 84.2419H49.5128V52.4932C49.5068 50.9043 48.8718 49.3825 47.7466 48.2605C46.6215 47.1385 45.0978 46.5078 43.5089 46.5063H37.1138C35.5259 46.5093 34.0036 47.1406 32.8797 48.2624C31.7558 49.3842 31.1216 50.9052 31.1156 52.4932V88.5053C31.1156 91.7993 33.8199 94.5035 37.1138 94.5035H43.5032C46.8028 94.5035 49.5071 91.7993 49.5071 88.5053V87.2409H50.624C54.2014 87.2409 56.4635 88.2955 58.8219 89.4917C61.1747 90.6823 63.6693 92.0657 67.1219 92.0657H80.5981C84.1302 92.0657 86.9705 90.2684 88.9038 87.6321C90.8427 84.9902 92.0333 81.5433 92.844 77.7958C94.4655 70.3008 94.4995 61.5529 94.5052 55.8722C94.5037 55.4747 94.3447 55.094 94.0631 54.8135C93.7815 54.533 93.4002 54.3754 93.0028 54.3754C87.7076 54.3754 78.7726 54.3018 77.0774 54.2905V41.8745C77.0774 38.5579 75.2632 36.1029 72.9047 34.7763C70.5406 33.4553 67.6889 33.0415 65.064 33.0415C64.0094 33.0415 63.5672 33.7728 63.5672 34.5325ZM37.1138 49.4998H43.5032C45.1927 49.4998 46.508 50.8037 46.508 52.4932V88.5053C46.508 90.1891 45.1927 91.5101 43.5032 91.5101H37.1138C36.7182 91.5147 36.3257 91.44 35.9594 91.2906C35.5931 91.1411 35.2604 90.9199 34.9809 90.6398C34.7014 90.3598 34.4808 90.0266 34.332 89.66C34.1833 89.2935 34.1094 88.9009 34.1147 88.5053V52.4932C34.1093 52.0979 34.1835 51.7055 34.3328 51.3395C34.4821 50.9734 34.7035 50.6412 34.9838 50.3625C35.2641 50.0837 35.5977 49.8642 35.9646 49.717C36.3315 49.5697 36.7242 49.4979 37.1195 49.5055L37.1138 49.4998Z" fill="#00003A"/>
</svg>
