<svg width="60" height="60" viewBox="0 0 60 60" fill="none" xmlns="http://www.w3.org/2000/svg">
<circle cx="30" cy="30" r="29.5775" fill="#F3FAFF" stroke="#0092E5" stroke-width="0.84507"/>
<g clip-path="url(#clip0_111_13807)">
<path d="M23.4772 35.7448C23.055 35.3054 22.3157 35.2508 21.8331 35.6172L21.8204 35.609L20.7284 36.7011C20.489 36.9398 20.3577 37.2583 20.3577 37.5969C20.3433 38.2789 20.9438 38.8781 21.625 38.8643C22.0216 38.8707 22.3748 38.6724 22.6335 38.3809L23.4772 37.5373C23.6539 37.3605 23.7726 37.1404 23.8218 36.901C23.9102 36.4868 23.7795 36.0427 23.4772 35.7448Z" fill="#0092E5"/>
<path d="M20.4394 32.0322C19.9451 31.5378 19.1419 31.5383 18.6469 32.0322C18.5319 32.1478 17.8227 32.8566 17.6914 32.9885C16.5514 34.2257 18.2452 35.9202 19.4831 34.781C19.4831 34.781 20.3124 33.9516 20.4394 33.8247C20.934 33.3309 20.934 32.5268 20.4394 32.0322Z" fill="#0092E5"/>
<path d="M26.0686 38.6353C25.7299 38.6353 25.4114 38.7673 25.1719 39.0067L24.2157 39.963C24.2112 39.9675 24.2067 39.972 24.2022 39.9772C23.723 40.4506 23.7302 41.289 24.2157 41.7555C24.7102 42.2493 25.5143 42.2493 26.0081 41.7555L26.9652 40.7985C27.7578 40.0079 27.1881 38.631 26.0686 38.6353Z" fill="#0092E5"/>
<path d="M34.5738 24.5675C32.6172 25.8013 29.9937 25.567 28.2908 23.8641L26.0739 21.6479L28.8405 18.8813C25.869 15.5466 20.6437 15.335 17.4807 18.5196C14.3004 21.6781 14.5043 26.8972 17.832 29.8697C20.2554 28.5152 23.2354 30.407 23.0393 33.1667C24.644 33.3401 26.0025 34.7945 26.076 36.3995C27.585 36.3672 29.0838 37.4973 29.4514 38.9879C30.7076 38.6512 32.1155 39.0683 32.9759 40.0636L33.0013 40.0337C34.2485 40.7826 35.5681 39.2445 34.6274 38.1241L34.6296 38.1212C34.6102 38.1025 29.5924 33.0846 29.5924 33.0846C29.9866 32.6903 30.7802 31.8967 31.1745 31.5025L36.1543 36.4823C37.3914 37.6221 39.0863 35.9271 37.946 34.6899L32.9669 29.71C33.3612 29.3157 34.1548 28.5221 34.5491 28.1279C35.6683 29.247 38.3835 31.9624 39.5289 33.1077C40.0005 33.599 40.8497 33.5988 41.3214 33.1077C41.8152 32.6132 41.8152 31.8091 41.3214 31.3153L34.5738 24.5675Z" fill="#0092E5"/>
<path d="M43.3645 18.5197C40.3323 15.4882 35.3987 15.4882 32.3665 18.5197C31.7769 19.1097 29.7956 21.0914 29.2388 21.6481L29.8728 22.2822C30.9753 23.3847 32.7685 23.3847 33.8703 22.2822L34.6617 21.4907C35.0825 21.9161 42.8065 29.627 43.0236 29.8594C46.3433 26.8858 46.54 21.6742 43.3645 18.5197Z" fill="#0092E5"/>
<path d="M31.2393 41.4815C30.7447 40.9876 29.9412 40.987 29.4469 41.4815L28.4906 42.4378C27.9985 42.9095 27.9987 43.7584 28.4906 44.2302C28.963 44.7212 29.8109 44.7209 30.283 44.2302L31.2393 43.2739C31.7304 42.8028 31.7304 41.9515 31.2393 41.4815Z" fill="#0092E5"/>
</g>
<defs>
<clipPath id="clip0_111_13807">
<rect width="30.4225" height="30.4225" fill="white" transform="translate(15.2114 15.2114)"/>
</clipPath>
</defs>
</svg>
