<svg width="101" height="100" viewBox="0 0 101 100" fill="none" xmlns="http://www.w3.org/2000/svg">
<rect x="0.833374" y="0.5" width="99" height="99" rx="5.5" fill="#F3FAFF"/>
<rect x="0.833374" y="0.5" width="99" height="99" rx="5.5" stroke="#0092E5"/>
<path d="M34.3334 50C34.3334 58.822 41.5114 66 50.3334 66C59.1554 66 66.3334 58.822 66.3334 50C66.3334 41.178 59.1554 34 50.3334 34C41.5114 34 34.3334 41.178 34.3334 50ZM42.8184 38.207L44.4384 41.447C44.5354 41.64 44.6924 41.798 44.8854 41.894L47.9194 43.411L45.7674 47H42.3334C41.9024 47 41.5214 47.275 41.3844 47.684L40.6124 50H36.3334C36.3334 45.047 38.9264 40.696 42.8184 38.207ZM50.3334 61V64C45.4274 64 41.1104 61.459 38.6104 57.629L43.1534 56.115L46.7334 58.8C47.0984 59.073 47.6024 59.066 47.9584 58.781L52.2594 55.34L54.3334 57.414V59.219L51.0904 60.03C50.6454 60.141 50.3334 60.541 50.3334 61ZM64.3334 50C64.3334 52.206 63.8064 54.287 62.8934 56.146L60.6204 53.873L62.1654 51.555C62.3214 51.321 62.3724 51.031 62.3034 50.758L61.3034 46.758C61.2364 46.488 61.0584 46.258 60.8144 46.124C60.5694 45.989 60.2804 45.964 60.0164 46.052L57.7004 46.824L55.4184 43.782L56.1144 41H61.0424C63.0924 43.436 64.3334 46.574 64.3334 50ZM55.3334 39C54.8744 39 54.4744 39.312 54.3634 39.757L53.3634 43.757C53.2904 44.049 53.3534 44.359 53.5334 44.6L56.5334 48.6C56.7914 48.944 57.2414 49.085 57.6494 48.949L59.6254 48.29L60.2554 50.813L58.5014 53.445C58.2364 53.841 58.2894 54.37 58.6264 54.707L61.8544 57.935C59.6864 61.072 56.2724 63.273 52.3334 63.84V61.78L55.5764 60.969C56.0214 60.859 56.3334 60.459 56.3334 60V57C56.3334 56.735 56.2284 56.48 56.0404 56.293L53.0404 53.293C52.6804 52.932 52.1064 52.9 51.7084 53.219L47.3134 56.735L43.9334 54.2C43.6714 54.002 43.3294 53.948 43.0164 54.051L37.6294 55.847C37.0744 54.646 36.6884 53.355 36.4924 52H41.3334C41.7644 52 42.1454 51.725 42.2824 51.316L43.0544 49H46.3334C46.6844 49 47.0104 48.816 47.1904 48.515L50.1904 43.515C50.3344 43.276 50.3714 42.988 50.2934 42.721C50.2154 42.454 50.0294 42.231 49.7804 42.106L46.0784 40.255L44.5774 37.252C46.3354 36.455 48.2804 36 50.3334 36C53.5904 36 56.5844 37.128 58.9654 39H55.3334ZM77.3334 47C76.0314 47 74.9314 47.839 74.5174 49H68.3334V51H74.5174C74.9314 52.161 76.0314 53 77.3334 53C78.9874 53 80.3334 51.654 80.3334 50C80.3334 48.346 78.9874 47 77.3334 47ZM77.3334 51C76.7824 51 76.3334 50.551 76.3334 50C76.3334 49.449 76.7824 49 77.3334 49C77.8844 49 78.3334 49.449 78.3334 50C78.3334 50.551 77.8844 51 77.3334 51ZM77.3334 67C77.3334 65.346 75.9874 64 74.3334 64C73.0314 64 71.9314 64.839 71.5174 66H70.0104L68.2614 61.628C68.1094 61.249 67.7424 61 67.3334 61H64.3334V63H66.6564L68.4054 67.372C68.5574 67.751 68.9244 68 69.3334 68H71.5174C71.9314 69.161 73.0314 70 74.3334 70C75.9874 70 77.3334 68.654 77.3334 67ZM73.3334 67C73.3334 66.449 73.7824 66 74.3334 66C74.8844 66 75.3334 66.449 75.3334 67C75.3334 67.551 74.8844 68 74.3334 68C73.7824 68 73.3334 67.551 73.3334 67ZM66.3334 79C67.9874 79 69.3334 77.654 69.3334 76C69.3334 74.346 67.9874 73 66.3334 73C65.0314 73 63.9314 73.839 63.5174 75H61.0874L59.2944 68.725C59.1724 68.296 58.7794 68 58.3334 68H53.3334V70H57.5794L59.3724 76.275C59.4944 76.704 59.8874 77 60.3334 77H63.5174C63.9314 78.161 65.0314 79 66.3334 79ZM66.3334 75C66.8844 75 67.3334 75.449 67.3334 76C67.3334 76.551 66.8844 77 66.3334 77C65.7824 77 65.3334 76.551 65.3334 76C65.3334 75.449 65.7824 75 66.3334 75ZM58.2284 31.447L60.9514 26H63.5054C63.9264 27.19 65.0624 28 66.3324 28C66.4814 28 66.6324 27.989 66.7844 27.966C67.5764 27.845 68.2744 27.424 68.7494 26.778C69.2244 26.132 69.4194 25.34 69.2994 24.549C69.0504 22.914 67.5204 21.79 65.8824 22.033C65.0904 22.154 64.3924 22.575 63.9174 23.221C63.7404 23.462 63.6164 23.727 63.5184 24H60.3334C59.9544 24 59.6084 24.214 59.4384 24.553L56.7154 30H53.3334V32H57.3334C57.7124 32 58.0584 31.786 58.2284 31.447ZM65.5274 24.407C65.6864 24.192 65.9184 24.051 66.1824 24.011C66.2334 24.003 66.2834 24 66.3334 24C66.8194 24 67.2474 24.355 67.3224 24.85C67.3624 25.114 67.2974 25.378 67.1394 25.593C66.9804 25.808 66.7484 25.949 66.4844 25.989C65.9464 26.074 65.4284 25.696 65.3454 25.15C65.3044 24.886 65.3694 24.622 65.5274 24.407ZM72.5174 35C72.9314 36.161 74.0314 37 75.3334 37C76.9874 37 78.3334 35.654 78.3334 34C78.3334 32.346 76.9874 31 75.3334 31C74.0314 31 72.9314 31.839 72.5174 33H68.3334C67.9994 33 67.6874 33.167 67.5014 33.445L65.7984 36H63.3334V38H66.3334C66.6674 38 66.9794 37.833 67.1654 37.555L68.8684 35H72.5174ZM75.3334 33C75.8844 33 76.3334 33.449 76.3334 34C76.3334 34.551 75.8844 35 75.3334 35C74.7824 35 74.3334 34.551 74.3334 34C74.3334 33.449 74.7824 33 75.3334 33Z" fill="#0092E5"/>
<path d="M21.3334 45C20.7814 45 20.3334 45.448 20.3334 46V54C20.3334 54.552 20.7814 55 21.3334 55H23.7974C24.0474 56.328 24.4014 57.646 24.8554 58.937L22.7184 60.17C22.2394 60.446 22.0764 61.058 22.3524 61.536L26.3524 68.464C26.6284 68.942 27.2374 69.106 27.7184 68.83L29.8594 67.594C30.7454 68.623 31.7094 69.588 32.7384 70.473L31.5024 72.614C31.2264 73.093 31.3904 73.704 31.8684 73.98L38.7964 77.98C39.2734 78.255 39.8854 78.091 40.1624 77.614L41.3954 75.477C42.6854 75.931 44.0034 76.285 45.3324 76.535V79C45.3324 79.552 45.7804 80 46.3324 80H50.3324C50.8844 80 51.3324 79.552 51.3324 79V69C51.3324 68.448 50.8844 68 50.3324 68C40.4074 68 32.3324 59.925 32.3324 50C32.3324 40.075 40.4074 32 50.3324 32C50.8844 32 51.3324 31.552 51.3324 31V21C51.3324 20.448 50.8844 20 50.3324 20H46.3324C45.7804 20 45.3324 20.448 45.3324 21V23.464C44.0044 23.714 42.6864 24.068 41.3954 24.522L40.1634 22.385C39.8864 21.906 39.2744 21.742 38.7974 22.019L31.8694 26.019C31.3904 26.295 31.2274 26.907 31.5034 27.385L32.7394 29.526C31.7104 30.412 30.7454 31.376 29.8604 32.405L27.7184 31.17C27.2374 30.894 26.6284 31.058 26.3524 31.536L22.3524 38.464C22.0764 38.942 22.2404 39.554 22.7184 39.83L24.8554 41.063C24.4014 42.354 24.0474 43.672 23.7974 45H21.3334ZM25.6284 46.153C25.8994 44.403 26.3664 42.662 27.0184 40.981C27.1964 40.521 27.0134 40 26.5854 39.753L24.5854 38.598L27.5854 33.402L29.5894 34.559C30.0164 34.805 30.5584 34.703 30.8674 34.321C31.9894 32.93 33.2634 31.656 34.6544 30.534C35.0374 30.225 35.1384 29.682 34.8924 29.256L33.7354 27.252L38.9314 24.252L40.0864 26.252C40.3334 26.679 40.8534 26.861 41.3134 26.685C42.9954 26.033 44.7354 25.566 46.4854 25.295C46.9734 25.22 47.3334 24.8 47.3334 24.307V22H49.3334V30.025C38.7684 30.547 30.3334 39.307 30.3334 50C30.3334 60.693 38.7684 69.453 49.3334 69.975V78H47.3334V75.693C47.3334 75.2 46.9734 74.78 46.4864 74.705C44.7364 74.434 42.9954 73.967 41.3144 73.315C40.8544 73.138 40.3344 73.32 40.0864 73.748L38.9314 75.748L33.7354 72.748L34.8924 70.744C35.1384 70.317 35.0374 69.775 34.6544 69.466C33.2634 68.344 31.9894 67.07 30.8674 65.679C30.5574 65.295 30.0154 65.194 29.5894 65.441L27.5854 66.598L24.5854 61.402L26.5854 60.247C27.0124 60 27.1964 59.479 27.0184 59.02C26.3664 57.338 25.8994 55.598 25.6284 53.848C25.5534 53.36 25.1334 53 24.6404 53H22.3334V47H24.6404C25.1334 47 25.5534 46.64 25.6284 46.153Z" fill="#0092E5"/>
</svg>
