<svg width="32" height="32" viewBox="0 0 32 32" fill="none" xmlns="http://www.w3.org/2000/svg">
<path d="M18.3377 15.7565L15.0623 14.2281C14.7765 14.0954 14.5417 14.2442 14.5417 14.5606V17.4394C14.5417 17.7558 14.7765 17.9046 15.0623 17.7719L18.3363 16.2435C18.6235 16.1094 18.6235 15.8906 18.3377 15.7565ZM16 2C8.26792 2 2 8.26792 2 16C2 23.7321 8.26792 30 16 30C23.7321 30 30 23.7321 30 16C30 8.26792 23.7321 2 16 2ZM16 21.6875C8.83375 21.6875 8.70833 21.0415 8.70833 16C8.70833 10.9585 8.83375 10.3125 16 10.3125C23.1663 10.3125 23.2917 10.9585 23.2917 16C23.2917 21.0415 23.1663 21.6875 16 21.6875Z" fill="white"/>
</svg>
